solid OpenSCAD_Model
  facet normal 0 -1 0
    outer loop
      vertex -38.6174 35 4.5
      vertex 38.625 35 6
      vertex -38.6174 35 6
    endloop
  endfacet
  facet normal 0 -1 -0
    outer loop
      vertex 38.625 35 6
      vertex -38.6174 35 4.5
      vertex 38.625 35 4.5
    endloop
  endfacet
  facet normal 0 1 -0
    outer loop
      vertex 38.625 29 4.5
      vertex -38.6174 29 6
      vertex 38.625 29 6
    endloop
  endfacet
  facet normal 0 1 0
    outer loop
      vertex -38.6174 29 6
      vertex 38.625 29 4.5
      vertex -38.6174 29 4.5
    endloop
  endfacet
  facet normal -0 0 1
    outer loop
      vertex -38.6174 35 4.5
      vertex 38.625 29 4.5
      vertex 38.625 35 4.5
    endloop
  endfacet
  facet normal 0 0 1
    outer loop
      vertex 38.625 29 4.5
      vertex -38.6174 35 4.5
      vertex -38.6174 29 4.5
    endloop
  endfacet
  facet normal 0 -1 0
    outer loop
      vertex -38.6174 -29 4.5
      vertex 38.625 -29 6
      vertex -38.6174 -29 6
    endloop
  endfacet
  facet normal 0 -1 -0
    outer loop
      vertex 38.625 -29 6
      vertex -38.6174 -29 4.5
      vertex 38.625 -29 4.5
    endloop
  endfacet
  facet normal 0 1 -0
    outer loop
      vertex 38.625 -35 4.5
      vertex -38.6174 -35 6
      vertex 38.625 -35 6
    endloop
  endfacet
  facet normal 0 1 0
    outer loop
      vertex -38.6174 -35 6
      vertex 38.625 -35 4.5
      vertex -38.6174 -35 4.5
    endloop
  endfacet
  facet normal -0 0 1
    outer loop
      vertex -38.6174 -29 4.5
      vertex 38.625 -35 4.5
      vertex 38.625 -29 4.5
    endloop
  endfacet
  facet normal 0 0 1
    outer loop
      vertex 38.625 -35 4.5
      vertex -38.6174 -29 4.5
      vertex -38.6174 -35 4.5
    endloop
  endfacet
  facet normal -1 0 0
    outer loop
      vertex -38.6174 37.7462 2.31129e-15
      vertex -38.6174 35 4.5
      vertex -38.6174 37.7462 6
    endloop
  endfacet
  facet normal -1 0 0
    outer loop
      vertex -38.6174 37.7462 2.31129e-15
      vertex -38.6174 29 4.5
      vertex -38.6174 35 4.5
    endloop
  endfacet
  facet normal -1 0 0
    outer loop
      vertex -38.6174 29 4.5
      vertex -38.6174 -29 4.5
      vertex -38.6174 29 6
    endloop
  endfacet
  facet normal -1 0 0
    outer loop
      vertex -38.6174 37.7462 2.31129e-15
      vertex -38.6174 -29 4.5
      vertex -38.6174 29 4.5
    endloop
  endfacet
  facet normal -1 0 0
    outer loop
      vertex -38.6174 -37.7462 -2.31129e-15
      vertex -38.6174 -29 4.5
      vertex -38.6174 37.7462 2.31129e-15
    endloop
  endfacet
  facet normal -1 -0 0
    outer loop
      vertex -38.6174 -29 4.5
      vertex -38.6174 -37.7462 -2.31129e-15
      vertex -38.6174 -35 4.5
    endloop
  endfacet
  facet normal -1 0 0
    outer loop
      vertex -38.6174 -37.7462 6
      vertex -38.6174 -35 4.5
      vertex -38.6174 -37.7462 -2.31129e-15
    endloop
  endfacet
  facet normal -1 0 0
    outer loop
      vertex -38.6174 -35 4.5
      vertex -38.6174 -37.7462 6
      vertex -38.6174 -35 6
    endloop
  endfacet
  facet normal -1 -0 0
    outer loop
      vertex -38.6174 37.7462 6
      vertex -38.6174 35 4.5
      vertex -38.6174 35 6
    endloop
  endfacet
  facet normal -1 -0 0
    outer loop
      vertex -38.6174 29 6
      vertex -38.6174 -29 4.5
      vertex -38.6174 -29 6
    endloop
  endfacet
  facet normal 0 0 1
    outer loop
      vertex 34.5018 -41.4981 6
      vertex 38.625 -37.5 6
      vertex 38.625 -35 6
    endloop
  endfacet
  facet normal 0 0 1
    outer loop
      vertex 38.625 -37.5 6
      vertex 34.5018 -41.4981 6
      vertex 38.5947 -37.9916 6
    endloop
  endfacet
  facet normal 0 0 1
    outer loop
      vertex 38.5947 -37.9916 6
      vertex 34.5018 -41.4981 6
      vertex 38.5042 -38.4757 6
    endloop
  endfacet
  facet normal 0 0 1
    outer loop
      vertex 38.5042 -38.4757 6
      vertex 34.5018 -41.4981 6
      vertex 38.3549 -38.945 6
    endloop
  endfacet
  facet normal 0 0 1
    outer loop
      vertex 38.3549 -38.945 6
      vertex 34.5018 -41.4981 6
      vertex 38.149 -39.3924 6
    endloop
  endfacet
  facet normal 0 0 1
    outer loop
      vertex 38.149 -39.3924 6
      vertex 34.5018 -41.4981 6
      vertex 37.8898 -39.8111 6
    endloop
  endfacet
  facet normal 0 0 1
    outer loop
      vertex 37.8898 -39.8111 6
      vertex 34.5018 -41.4981 6
      vertex 37.581 -40.1948 6
    endloop
  endfacet
  facet normal 0 0 1
    outer loop
      vertex 37.581 -40.1948 6
      vertex 34.5018 -41.4981 6
      vertex 37.2275 -40.5376 6
    endloop
  endfacet
  facet normal 0 0 1
    outer loop
      vertex 37.2275 -40.5376 6
      vertex 34.5018 -41.4981 6
      vertex 36.8345 -40.8344 6
    endloop
  endfacet
  facet normal 0 0 1
    outer loop
      vertex 36.8345 -40.8344 6
      vertex 34.5018 -41.4981 6
      vertex 36.408 -41.0807 6
    endloop
  endfacet
  facet normal 0 0 1
    outer loop
      vertex 36.408 -41.0807 6
      vertex 34.5018 -41.4981 6
      vertex 35.9544 -41.2726 6
    endloop
  endfacet
  facet normal 0 0 1
    outer loop
      vertex 35.9544 -41.2726 6
      vertex 34.5018 -41.4981 6
      vertex 35.4807 -41.4074 6
    endloop
  endfacet
  facet normal 0 0 1
    outer loop
      vertex 35.4807 -41.4074 6
      vertex 34.5018 -41.4981 6
      vertex 34.9941 -41.4829 6
    endloop
  endfacet
  facet normal -0 0 1
    outer loop
      vertex -38.6174 -35 6
      vertex 34.5018 -41.4981 6
      vertex 38.625 -35 6
    endloop
  endfacet
  facet normal 0 0 1
    outer loop
      vertex 34.5018 -41.4981 6
      vertex -38.6174 -35 6
      vertex -34.7482 -41.4981 6
    endloop
  endfacet
  facet normal -0 0 1
    outer loop
      vertex -38.6174 -37.7462 6
      vertex -34.7482 -41.4981 6
      vertex -38.6174 -35 6
    endloop
  endfacet
  facet normal 0 0 1
    outer loop
      vertex -34.7482 -41.4981 6
      vertex -38.6174 -37.7462 6
      vertex -35.2386 -41.4527 6
    endloop
  endfacet
  facet normal 0 0 1
    outer loop
      vertex -35.2386 -41.4527 6
      vertex -38.6174 -37.7462 6
      vertex -35.7197 -41.3473 6
    endloop
  endfacet
  facet normal 0 0 1
    outer loop
      vertex -35.7197 -41.3473 6
      vertex -38.6174 -37.7462 6
      vertex -36.1841 -41.1836 6
    endloop
  endfacet
  facet normal 0 0 1
    outer loop
      vertex -36.1841 -41.1836 6
      vertex -38.6174 -37.7462 6
      vertex -36.625 -40.9641 6
    endloop
  endfacet
  facet normal 0 0 1
    outer loop
      vertex -36.625 -40.9641 6
      vertex -38.6174 -37.7462 6
      vertex -37.0355 -40.6921 6
    endloop
  endfacet
  facet normal 0 0 1
    outer loop
      vertex -37.0355 -40.6921 6
      vertex -38.6174 -37.7462 6
      vertex -37.4095 -40.3716 6
    endloop
  endfacet
  facet normal 0 0 1
    outer loop
      vertex -37.4095 -40.3716 6
      vertex -38.6174 -37.7462 6
      vertex -37.7413 -40.0077 6
    endloop
  endfacet
  facet normal 0 0 1
    outer loop
      vertex -37.7413 -40.0077 6
      vertex -38.6174 -37.7462 6
      vertex -38.0259 -39.6057 6
    endloop
  endfacet
  facet normal 0 0 1
    outer loop
      vertex -38.0259 -39.6057 6
      vertex -38.6174 -37.7462 6
      vertex -38.2589 -39.1718 6
    endloop
  endfacet
  facet normal 0 0 1
    outer loop
      vertex -38.2589 -39.1718 6
      vertex -38.6174 -37.7462 6
      vertex -38.4368 -38.7126 6
    endloop
  endfacet
  facet normal 0 0 1
    outer loop
      vertex -38.4368 -38.7126 6
      vertex -38.6174 -37.7462 6
      vertex -38.5569 -38.235 6
    endloop
  endfacet
  facet normal 0 0 1
    outer loop
      vertex 34.5018 41.4981 6
      vertex 38.625 37.5 6
      vertex 38.5947 37.9916 6
    endloop
  endfacet
  facet normal 0 0 1
    outer loop
      vertex 34.5018 41.4981 6
      vertex 38.5947 37.9916 6
      vertex 38.5042 38.4757 6
    endloop
  endfacet
  facet normal 0 0 1
    outer loop
      vertex 34.5018 41.4981 6
      vertex 38.5042 38.4757 6
      vertex 38.3549 38.945 6
    endloop
  endfacet
  facet normal 0 0 1
    outer loop
      vertex 34.5018 41.4981 6
      vertex 38.3549 38.945 6
      vertex 38.149 39.3924 6
    endloop
  endfacet
  facet normal 0 0 1
    outer loop
      vertex 34.5018 41.4981 6
      vertex 38.149 39.3924 6
      vertex 37.8898 39.8111 6
    endloop
  endfacet
  facet normal 0 0 1
    outer loop
      vertex 34.5018 41.4981 6
      vertex 37.8898 39.8111 6
      vertex 37.581 40.1948 6
    endloop
  endfacet
  facet normal 0 0 1
    outer loop
      vertex 34.5018 41.4981 6
      vertex 37.581 40.1948 6
      vertex 37.2275 40.5376 6
    endloop
  endfacet
  facet normal 0 0 1
    outer loop
      vertex 34.5018 41.4981 6
      vertex 37.2275 40.5376 6
      vertex 36.8345 40.8344 6
    endloop
  endfacet
  facet normal 0 0 1
    outer loop
      vertex 34.5018 41.4981 6
      vertex 36.8345 40.8344 6
      vertex 36.408 41.0807 6
    endloop
  endfacet
  facet normal 0 0 1
    outer loop
      vertex 34.5018 41.4981 6
      vertex 36.408 41.0807 6
      vertex 35.9544 41.2726 6
    endloop
  endfacet
  facet normal 0 0 1
    outer loop
      vertex 34.5018 41.4981 6
      vertex 35.9544 41.2726 6
      vertex 35.4807 41.4074 6
    endloop
  endfacet
  facet normal 0 0 1
    outer loop
      vertex 34.5018 41.4981 6
      vertex 35.4807 41.4074 6
      vertex 34.9941 41.4829 6
    endloop
  endfacet
  facet normal 0 0 1
    outer loop
      vertex 38.625 37.5 6
      vertex 34.5018 41.4981 6
      vertex 38.625 35 6
    endloop
  endfacet
  facet normal 0 0 1
    outer loop
      vertex -38.6174 35 6
      vertex 34.5018 41.4981 6
      vertex -34.7482 41.4981 6
    endloop
  endfacet
  facet normal 0 0 1
    outer loop
      vertex -38.6174 37.7462 6
      vertex -34.7482 41.4981 6
      vertex -35.2386 41.4527 6
    endloop
  endfacet
  facet normal 0 0 1
    outer loop
      vertex -38.6174 37.7462 6
      vertex -35.2386 41.4527 6
      vertex -35.7197 41.3473 6
    endloop
  endfacet
  facet normal 0 0 1
    outer loop
      vertex -38.6174 37.7462 6
      vertex -35.7197 41.3473 6
      vertex -36.1841 41.1836 6
    endloop
  endfacet
  facet normal 0 0 1
    outer loop
      vertex -38.6174 37.7462 6
      vertex -36.1841 41.1836 6
      vertex -36.625 40.9641 6
    endloop
  endfacet
  facet normal 0 0 1
    outer loop
      vertex -38.6174 37.7462 6
      vertex -36.625 40.9641 6
      vertex -37.0355 40.6921 6
    endloop
  endfacet
  facet normal 0 0 1
    outer loop
      vertex -38.6174 37.7462 6
      vertex -37.0355 40.6921 6
      vertex -37.4095 40.3716 6
    endloop
  endfacet
  facet normal 0 0 1
    outer loop
      vertex -38.6174 37.7462 6
      vertex -37.4095 40.3716 6
      vertex -37.7413 40.0077 6
    endloop
  endfacet
  facet normal 0 0 1
    outer loop
      vertex -38.6174 37.7462 6
      vertex -37.7413 40.0077 6
      vertex -38.0259 39.6057 6
    endloop
  endfacet
  facet normal 0 0 1
    outer loop
      vertex -38.6174 37.7462 6
      vertex -38.0259 39.6057 6
      vertex -38.2589 39.1718 6
    endloop
  endfacet
  facet normal 0 0 1
    outer loop
      vertex -38.6174 37.7462 6
      vertex -38.2589 39.1718 6
      vertex -38.4368 38.7126 6
    endloop
  endfacet
  facet normal 0 0 1
    outer loop
      vertex -38.6174 37.7462 6
      vertex -38.4368 38.7126 6
      vertex -38.5569 38.235 6
    endloop
  endfacet
  facet normal 0 0 1
    outer loop
      vertex -34.7482 41.4981 6
      vertex -38.6174 37.7462 6
      vertex -38.6174 35 6
    endloop
  endfacet
  facet normal 0 0 1
    outer loop
      vertex 34.5018 41.4981 6
      vertex -38.6174 35 6
      vertex 38.625 35 6
    endloop
  endfacet
  facet normal -0 0 1
    outer loop
      vertex -38.6174 29 6
      vertex 38.625 -29 6
      vertex 38.625 29 6
    endloop
  endfacet
  facet normal 0 0 1
    outer loop
      vertex 38.625 -29 6
      vertex -38.6174 29 6
      vertex -38.6174 -29 6
    endloop
  endfacet
  facet normal 0 -1 0
    outer loop
      vertex -34.7482 -41.4981 -2.54103e-15
      vertex 34.5018 -41.4981 6
      vertex -34.7482 -41.4981 6
    endloop
  endfacet
  facet normal 0 -1 -0
    outer loop
      vertex 34.5018 -41.4981 6
      vertex -34.7482 -41.4981 -2.54103e-15
      vertex 34.5018 -41.4981 -2.54103e-15
    endloop
  endfacet
  facet normal -0.0922676 0.995734 0
    outer loop
      vertex -34.7482 41.4981 2.54103e-15
      vertex -35.2386 41.4527 6
      vertex -34.7482 41.4981 6
    endloop
  endfacet
  facet normal -0.0922676 0.995734 0
    outer loop
      vertex -35.2386 41.4527 6
      vertex -34.7482 41.4981 2.54103e-15
      vertex -35.2386 41.4527 2.53824e-15
    endloop
  endfacet
  facet normal -0.881011 -0.473096 0
    outer loop
      vertex -38.0259 -39.6057 -2.42515e-15
      vertex -38.2589 -39.1718 6
      vertex -38.2589 -39.1718 -2.39858e-15
    endloop
  endfacet
  facet normal -0.881011 -0.473096 0
    outer loop
      vertex -38.2589 -39.1718 6
      vertex -38.0259 -39.6057 -2.42515e-15
      vertex -38.0259 -39.6057 6
    endloop
  endfacet
  facet normal -0.445738 0.895163 0
    outer loop
      vertex -36.1841 41.1836 2.52177e-15
      vertex -36.625 40.9641 6
      vertex -36.1841 41.1836 6
    endloop
  endfacet
  facet normal -0.445738 0.895163 0
    outer loop
      vertex -36.625 40.9641 6
      vertex -36.1841 41.1836 2.52177e-15
      vertex -36.625 40.9641 2.50833e-15
    endloop
  endfacet
  facet normal 0.0307896 -0.999526 0
    outer loop
      vertex 34.5018 -41.4981 6
      vertex 34.9941 -41.4829 -2.5401e-15
      vertex 34.9941 -41.4829 6
    endloop
  endfacet
  facet normal 0.0307896 -0.999526 0
    outer loop
      vertex 34.9941 -41.4829 -2.5401e-15
      vertex 34.5018 -41.4981 6
      vertex 34.5018 -41.4981 -2.54103e-15
    endloop
  endfacet
  facet normal 0.998103 -0.0615633 0
    outer loop
      vertex 38.5947 -37.9916 6
      vertex 38.625 -37.5 -2.29621e-15
      vertex 38.625 -37.5 6
    endloop
  endfacet
  facet normal 0.998103 -0.0615633 0
    outer loop
      vertex 38.625 -37.5 -2.29621e-15
      vertex 38.5947 -37.9916 6
      vertex 38.5947 -37.9916 -2.32631e-15
    endloop
  endfacet
  facet normal 3.24432e-22 6.12321e-17 -1
    outer loop
      vertex 34.5018 -41.4981 -2.54103e-15
      vertex 38.625 -37.5 -2.29621e-15
      vertex 38.5947 -37.9916 -2.32631e-15
    endloop
  endfacet
  facet normal 1.67732e-25 6.12324e-17 -1
    outer loop
      vertex -38.6174 -37.7462 -2.31129e-15
      vertex 38.625 -37.5 -2.29621e-15
      vertex 34.5018 -41.4981 -2.54103e-15
    endloop
  endfacet
  facet normal -2.48857e-22 6.12327e-17 -1
    outer loop
      vertex 34.5018 -41.4981 -2.54103e-15
      vertex 38.5947 -37.9916 -2.32631e-15
      vertex 38.5042 -38.4757 -2.35595e-15
    endloop
  endfacet
  facet normal 3.59513e-25 6.12323e-17 -1
    outer loop
      vertex 38.625 -37.5 -2.29621e-15
      vertex -38.6174 -37.7462 -2.31129e-15
      vertex 38.625 37.5 2.29621e-15
    endloop
  endfacet
  facet normal -1.03053e-22 6.12325e-17 -1
    outer loop
      vertex 34.5018 -41.4981 -2.54103e-15
      vertex 38.5042 -38.4757 -2.35595e-15
      vertex 38.3549 -38.945 -2.38469e-15
    endloop
  endfacet
  facet normal -3.24432e-22 6.12321e-17 -1
    outer loop
      vertex 38.625 37.5 2.29621e-15
      vertex 34.5018 41.4981 2.54103e-15
      vertex 38.5947 37.9916 2.32631e-15
    endloop
  endfacet
  facet normal -3.10971e-23 6.12324e-17 -1
    outer loop
      vertex 34.5018 -41.4981 -2.54103e-15
      vertex 38.3549 -38.945 -2.38469e-15
      vertex 38.149 -39.3924 -2.41209e-15
    endloop
  endfacet
  facet normal 2.48857e-22 6.12327e-17 -1
    outer loop
      vertex 38.5947 37.9916 2.32631e-15
      vertex 34.5018 41.4981 2.54103e-15
      vertex 38.5042 38.4757 2.35595e-15
    endloop
  endfacet
  facet normal 4.42918e-22 6.12316e-17 -1
    outer loop
      vertex 34.5018 -41.4981 -2.54103e-15
      vertex 38.149 -39.3924 -2.41209e-15
      vertex 37.8898 -39.8111 -2.43773e-15
    endloop
  endfacet
  facet normal 1.03053e-22 6.12325e-17 -1
    outer loop
      vertex 38.5042 38.4757 2.35595e-15
      vertex 34.5018 41.4981 2.54103e-15
      vertex 38.3549 38.945 2.38469e-15
    endloop
  endfacet
  facet normal -2.06721e-22 6.12329e-17 -1
    outer loop
      vertex 34.5018 -41.4981 -2.54103e-15
      vertex 37.8898 -39.8111 -2.43773e-15
      vertex 37.581 -40.1948 -2.46122e-15
    endloop
  endfacet
  facet normal 3.10971e-23 6.12324e-17 -1
    outer loop
      vertex 38.3549 38.945 2.38469e-15
      vertex 34.5018 41.4981 2.54103e-15
      vertex 38.149 39.3924 2.41209e-15
    endloop
  endfacet
  facet normal 3.67752e-22 6.12316e-17 -1
    outer loop
      vertex 34.5018 -41.4981 -2.54103e-15
      vertex 37.581 -40.1948 -2.46122e-15
      vertex 37.2275 -40.5376 -2.48221e-15
    endloop
  endfacet
  facet normal -4.42918e-22 6.12316e-17 -1
    outer loop
      vertex 38.149 39.3924 2.41209e-15
      vertex 34.5018 41.4981 2.54103e-15
      vertex 37.8898 39.8111 2.43773e-15
    endloop
  endfacet
  facet normal -7.89057e-23 6.12328e-17 -1
    outer loop
      vertex 34.5018 -41.4981 -2.54103e-15
      vertex 37.2275 -40.5376 -2.48221e-15
      vertex 36.8345 -40.8344 -2.50039e-15
    endloop
  endfacet
  facet normal 2.06721e-22 6.12329e-17 -1
    outer loop
      vertex 37.8898 39.8111 2.43773e-15
      vertex 34.5018 41.4981 2.54103e-15
      vertex 37.581 40.1948 2.46122e-15
    endloop
  endfacet
  facet normal 5.44388e-23 6.12324e-17 -1
    outer loop
      vertex 34.5018 -41.4981 -2.54103e-15
      vertex 36.8345 -40.8344 -2.50039e-15
      vertex 36.408 -41.0807 -2.51546e-15
    endloop
  endfacet
  facet normal -3.67752e-22 6.12316e-17 -1
    outer loop
      vertex 37.581 40.1948 2.46122e-15
      vertex 34.5018 41.4981 2.54103e-15
      vertex 37.2275 40.5376 2.48221e-15
    endloop
  endfacet
  facet normal 3.60309e-22 6.1231e-17 -1
    outer loop
      vertex 34.5018 -41.4981 -2.54103e-15
      vertex 36.408 -41.0807 -2.51546e-15
      vertex 35.9544 -41.2726 -2.52722e-15
    endloop
  endfacet
  facet normal 7.89057e-23 6.12328e-17 -1
    outer loop
      vertex 37.2275 40.5376 2.48221e-15
      vertex 34.5018 41.4981 2.54103e-15
      vertex 36.8345 40.8344 2.50039e-15
    endloop
  endfacet
  facet normal 5.07672e-22 6.123e-17 -1
    outer loop
      vertex 34.5018 -41.4981 -2.54103e-15
      vertex 35.9544 -41.2726 -2.52722e-15
      vertex 35.4807 -41.4074 -2.53547e-15
    endloop
  endfacet
  facet normal -5.44388e-23 6.12324e-17 -1
    outer loop
      vertex 36.8345 40.8344 2.50039e-15
      vertex 34.5018 41.4981 2.54103e-15
      vertex 36.408 41.0807 2.51546e-15
    endloop
  endfacet
  facet normal 7.06204e-22 6.12279e-17 -1
    outer loop
      vertex 34.5018 -41.4981 -2.54103e-15
      vertex 35.4807 -41.4074 -2.53547e-15
      vertex 34.9941 -41.4829 -2.5401e-15
    endloop
  endfacet
  facet normal -3.60309e-22 6.1231e-17 -1
    outer loop
      vertex 36.408 41.0807 2.51546e-15
      vertex 34.5018 41.4981 2.54103e-15
      vertex 35.9544 41.2726 2.52722e-15
    endloop
  endfacet
  facet normal -5.07672e-22 6.123e-17 -1
    outer loop
      vertex 35.9544 41.2726 2.52722e-15
      vertex 34.5018 41.4981 2.54103e-15
      vertex 35.4807 41.4074 2.53547e-15
    endloop
  endfacet
  facet normal -7.06204e-22 6.12279e-17 -1
    outer loop
      vertex 35.4807 41.4074 2.53547e-15
      vertex 34.5018 41.4981 2.54103e-15
      vertex 34.9941 41.4829 2.5401e-15
    endloop
  endfacet
  facet normal 0 6.12324e-17 -1
    outer loop
      vertex -38.6174 -37.7462 -2.31129e-15
      vertex 34.5018 -41.4981 -2.54103e-15
      vertex -34.7482 -41.4981 -2.54103e-15
    endloop
  endfacet
  facet normal -3.57167e-25 6.12323e-17 -1
    outer loop
      vertex -38.6174 37.7462 2.31129e-15
      vertex 38.625 37.5 2.29621e-15
      vertex -38.6174 -37.7462 -2.31129e-15
    endloop
  endfacet
  facet normal -1.39541e-22 6.12323e-17 -1
    outer loop
      vertex -38.6174 -37.7462 -2.31129e-15
      vertex -34.7482 -41.4981 -2.54103e-15
      vertex -35.2386 -41.4527 -2.53824e-15
    endloop
  endfacet
  facet normal -1.67732e-25 6.12324e-17 -1
    outer loop
      vertex 38.625 37.5 2.29621e-15
      vertex -38.6174 37.7462 2.31129e-15
      vertex 34.5018 41.4981 2.54103e-15
    endloop
  endfacet
  facet normal -2.54073e-22 6.12321e-17 -1
    outer loop
      vertex -38.6174 -37.7462 -2.31129e-15
      vertex -35.2386 -41.4527 -2.53824e-15
      vertex -35.7197 -41.3473 -2.53179e-15
    endloop
  endfacet
  facet normal 0 6.12324e-17 -1
    outer loop
      vertex 34.5018 41.4981 2.54103e-15
      vertex -38.6174 37.7462 2.31129e-15
      vertex -34.7482 41.4981 2.54103e-15
    endloop
  endfacet
  facet normal 1.71773e-22 6.12325e-17 -1
    outer loop
      vertex -38.6174 -37.7462 -2.31129e-15
      vertex -35.7197 -41.3473 -2.53179e-15
      vertex -36.1841 -41.1836 -2.52177e-15
    endloop
  endfacet
  facet normal 1.39541e-22 6.12323e-17 -1
    outer loop
      vertex -34.7482 41.4981 2.54103e-15
      vertex -38.6174 37.7462 2.31129e-15
      vertex -35.2386 41.4527 2.53824e-15
    endloop
  endfacet
  facet normal -4.60256e-23 6.12323e-17 -1
    outer loop
      vertex -38.6174 -37.7462 -2.31129e-15
      vertex -36.1841 -41.1836 -2.52177e-15
      vertex -36.625 -40.9641 -2.50833e-15
    endloop
  endfacet
  facet normal 2.54073e-22 6.12321e-17 -1
    outer loop
      vertex -35.2386 41.4527 2.53824e-15
      vertex -38.6174 37.7462 2.31129e-15
      vertex -35.7197 41.3473 2.53179e-15
    endloop
  endfacet
  facet normal -1.21338e-21 6.12316e-17 -1
    outer loop
      vertex -38.6174 -37.7462 -2.31129e-15
      vertex -36.625 -40.9641 -2.50833e-15
      vertex -37.0355 -40.6921 -2.49167e-15
    endloop
  endfacet
  facet normal -1.71773e-22 6.12325e-17 -1
    outer loop
      vertex -35.7197 41.3473 2.53179e-15
      vertex -38.6174 37.7462 2.31129e-15
      vertex -36.1841 41.1836 2.52177e-15
    endloop
  endfacet
  facet normal 9.80036e-22 6.12328e-17 -1
    outer loop
      vertex -38.6174 -37.7462 -2.31129e-15
      vertex -37.0355 -40.6921 -2.49167e-15
      vertex -37.4095 -40.3716 -2.47205e-15
    endloop
  endfacet
  facet normal 4.60256e-23 6.12323e-17 -1
    outer loop
      vertex -36.1841 41.1836 2.52177e-15
      vertex -38.6174 37.7462 2.31129e-15
      vertex -36.625 40.9641 2.50833e-15
    endloop
  endfacet
  facet normal 1.41041e-22 6.12324e-17 -1
    outer loop
      vertex -38.6174 -37.7462 -2.31129e-15
      vertex -37.4095 -40.3716 -2.47205e-15
      vertex -37.7413 -40.0077 -2.44976e-15
    endloop
  endfacet
  facet normal 1.21338e-21 6.12316e-17 -1
    outer loop
      vertex -36.625 40.9641 2.50833e-15
      vertex -38.6174 37.7462 2.31129e-15
      vertex -37.0355 40.6921 2.49167e-15
    endloop
  endfacet
  facet normal 2.62215e-22 6.12325e-17 -1
    outer loop
      vertex -38.6174 -37.7462 -2.31129e-15
      vertex -37.7413 -40.0077 -2.44976e-15
      vertex -38.0259 -39.6057 -2.42515e-15
    endloop
  endfacet
  facet normal -9.80036e-22 6.12328e-17 -1
    outer loop
      vertex -37.0355 40.6921 2.49167e-15
      vertex -38.6174 37.7462 2.31129e-15
      vertex -37.4095 40.3716 2.47205e-15
    endloop
  endfacet
  facet normal -8.11613e-22 6.12321e-17 -1
    outer loop
      vertex -38.6174 -37.7462 -2.31129e-15
      vertex -38.0259 -39.6057 -2.42515e-15
      vertex -38.2589 -39.1718 -2.39858e-15
    endloop
  endfacet
  facet normal -1.41041e-22 6.12324e-17 -1
    outer loop
      vertex -37.4095 40.3716 2.47205e-15
      vertex -38.6174 37.7462 2.31129e-15
      vertex -37.7413 40.0077 2.44976e-15
    endloop
  endfacet
  facet normal 9.43192e-22 6.12326e-17 -1
    outer loop
      vertex -38.6174 -37.7462 -2.31129e-15
      vertex -38.2589 -39.1718 -2.39858e-15
      vertex -38.4368 -38.7126 -2.37046e-15
    endloop
  endfacet
  facet normal -2.62215e-22 6.12325e-17 -1
    outer loop
      vertex -37.7413 40.0077 2.44976e-15
      vertex -38.6174 37.7462 2.31129e-15
      vertex -38.0259 39.6057 2.42515e-15
    endloop
  endfacet
  facet normal -1.75644e-22 6.12323e-17 -1
    outer loop
      vertex -38.6174 -37.7462 -2.31129e-15
      vertex -38.4368 -38.7126 -2.37046e-15
      vertex -38.5569 -38.235 -2.34122e-15
    endloop
  endfacet
  facet normal 8.11613e-22 6.12321e-17 -1
    outer loop
      vertex -38.0259 39.6057 2.42515e-15
      vertex -38.6174 37.7462 2.31129e-15
      vertex -38.2589 39.1718 2.39858e-15
    endloop
  endfacet
  facet normal -9.43192e-22 6.12326e-17 -1
    outer loop
      vertex -38.2589 39.1718 2.39858e-15
      vertex -38.6174 37.7462 2.31129e-15
      vertex -38.4368 38.7126 2.37046e-15
    endloop
  endfacet
  facet normal 1.75644e-22 6.12323e-17 -1
    outer loop
      vertex -38.4368 38.7126 2.37046e-15
      vertex -38.6174 37.7462 2.31129e-15
      vertex -38.5569 38.235 2.34122e-15
    endloop
  endfacet
  facet normal -0.992421 0.122887 0
    outer loop
      vertex -38.6174 37.7462 2.31129e-15
      vertex -38.5569 38.235 6
      vertex -38.5569 38.235 2.34122e-15
    endloop
  endfacet
  facet normal -0.992421 0.122887 0
    outer loop
      vertex -38.5569 38.235 6
      vertex -38.6174 37.7462 2.31129e-15
      vertex -38.6174 37.7462 6
    endloop
  endfacet
  facet normal -0.739008 0.673696 0
    outer loop
      vertex -37.7413 40.0077 2.44976e-15
      vertex -37.4095 40.3716 6
      vertex -37.4095 40.3716 2.47205e-15
    endloop
  endfacet
  facet normal -0.739008 0.673696 0
    outer loop
      vertex -37.4095 40.3716 6
      vertex -37.7413 40.0077 2.44976e-15
      vertex -37.7413 40.0077 6
    endloop
  endfacet
  facet normal 0 1 -0
    outer loop
      vertex 34.5018 41.4981 2.54103e-15
      vertex -34.7482 41.4981 6
      vertex 34.5018 41.4981 6
    endloop
  endfacet
  facet normal 0 1 0
    outer loop
      vertex -34.7482 41.4981 6
      vertex 34.5018 41.4981 2.54103e-15
      vertex -34.7482 41.4981 2.54103e-15
    endloop
  endfacet
  facet normal -0.650621 -0.759403 0
    outer loop
      vertex -37.4095 -40.3716 -2.47205e-15
      vertex -37.0355 -40.6921 6
      vertex -37.4095 -40.3716 6
    endloop
  endfacet
  facet normal -0.650621 -0.759403 -0
    outer loop
      vertex -37.0355 -40.6921 6
      vertex -37.4095 -40.3716 -2.47205e-15
      vertex -37.0355 -40.6921 -2.49167e-15
    endloop
  endfacet
  facet normal 0.389791 -0.920903 0
    outer loop
      vertex 35.9544 -41.2726 6
      vertex 36.408 -41.0807 -2.51546e-15
      vertex 36.408 -41.0807 6
    endloop
  endfacet
  facet normal 0.389791 -0.920903 0
    outer loop
      vertex 36.408 -41.0807 -2.51546e-15
      vertex 35.9544 -41.2726 6
      vertex 35.9544 -41.2726 -2.52722e-15
    endloop
  endfacet
  facet normal 1 0 0
    outer loop
      vertex 38.625 -35 6
      vertex 38.625 -37.5 6
      vertex 38.625 -35 4.5
    endloop
  endfacet
  facet normal 1 0 0
    outer loop
      vertex 38.625 29 6
      vertex 38.625 -29 6
      vertex 38.625 29 4.5
    endloop
  endfacet
  facet normal 1 0 0
    outer loop
      vertex 38.625 35 4.5
      vertex 38.625 37.5 6
      vertex 38.625 35 6
    endloop
  endfacet
  facet normal 1 0 0
    outer loop
      vertex 38.625 37.5 6
      vertex 38.625 35 4.5
      vertex 38.625 37.5 2.29621e-15
    endloop
  endfacet
  facet normal 1 -0 0
    outer loop
      vertex 38.625 29 4.5
      vertex 38.625 37.5 2.29621e-15
      vertex 38.625 35 4.5
    endloop
  endfacet
  facet normal 1 0 0
    outer loop
      vertex 38.625 -29 4.5
      vertex 38.625 29 4.5
      vertex 38.625 -29 6
    endloop
  endfacet
  facet normal 1 0 0
    outer loop
      vertex 38.625 29 4.5
      vertex 38.625 -29 4.5
      vertex 38.625 37.5 2.29621e-15
    endloop
  endfacet
  facet normal 1 0 0
    outer loop
      vertex 38.625 -37.5 -2.29621e-15
      vertex 38.625 -29 4.5
      vertex 38.625 -35 4.5
    endloop
  endfacet
  facet normal 1 0 0
    outer loop
      vertex 38.625 -29 4.5
      vertex 38.625 -37.5 -2.29621e-15
      vertex 38.625 37.5 2.29621e-15
    endloop
  endfacet
  facet normal 1 0 0
    outer loop
      vertex 38.625 -37.5 -2.29621e-15
      vertex 38.625 -35 4.5
      vertex 38.625 -37.5 6
    endloop
  endfacet
  facet normal -0.969797 0.243915 0
    outer loop
      vertex -38.5569 38.235 2.34122e-15
      vertex -38.4368 38.7126 6
      vertex -38.4368 38.7126 2.37046e-15
    endloop
  endfacet
  facet normal -0.969797 0.243915 0
    outer loop
      vertex -38.4368 38.7126 6
      vertex -38.5569 38.235 2.34122e-15
      vertex -38.5569 38.235 6
    endloop
  endfacet
  facet normal -0.816197 0.577774 0
    outer loop
      vertex -38.0259 39.6057 2.42515e-15
      vertex -37.7413 40.0077 6
      vertex -37.7413 40.0077 2.44976e-15
    endloop
  endfacet
  facet normal -0.816197 0.577774 0
    outer loop
      vertex -37.7413 40.0077 6
      vertex -38.0259 39.6057 2.42515e-15
      vertex -38.0259 39.6057 6
    endloop
  endfacet
  facet normal -0.213932 0.976849 0
    outer loop
      vertex -35.2386 41.4527 2.53824e-15
      vertex -35.7197 41.3473 6
      vertex -35.2386 41.4527 6
    endloop
  endfacet
  facet normal -0.213932 0.976849 0
    outer loop
      vertex -35.7197 41.3473 6
      vertex -35.2386 41.4527 2.53824e-15
      vertex -35.7197 41.3473 2.53179e-15
    endloop
  endfacet
  facet normal -0.332355 0.943154 0
    outer loop
      vertex -35.7197 41.3473 2.53179e-15
      vertex -36.1841 41.1836 6
      vertex -35.7197 41.3473 6
    endloop
  endfacet
  facet normal -0.332355 0.943154 0
    outer loop
      vertex -36.1841 41.1836 6
      vertex -35.7197 41.3473 2.53179e-15
      vertex -36.1841 41.1836 2.52177e-15
    endloop
  endfacet
  facet normal 0.696132 0.717913 0
    outer loop
      vertex 37.581 40.1948 6
      vertex 37.2275 40.5376 2.48221e-15
      vertex 37.2275 40.5376 6
    endloop
  endfacet
  facet normal 0.696132 0.717913 0
    outer loop
      vertex 37.2275 40.5376 2.48221e-15
      vertex 37.581 40.1948 6
      vertex 37.581 40.1948 2.46122e-15
    endloop
  endfacet
  facet normal 0.0307896 0.999526 0
    outer loop
      vertex 34.9941 41.4829 6
      vertex 34.5018 41.4981 2.54103e-15
      vertex 34.5018 41.4981 6
    endloop
  endfacet
  facet normal 0.0307896 0.999526 0
    outer loop
      vertex 34.5018 41.4981 2.54103e-15
      vertex 34.9941 41.4829 6
      vertex 34.9941 41.4829 2.5401e-15
    endloop
  endfacet
  facet normal 0.273659 0.961827 6.11513e-07
    outer loop
      vertex 35.9544 41.2726 6
      vertex 35.4807 41.4074 2.53547e-15
      vertex 35.4807 41.4074 6
    endloop
  endfacet
  facet normal 0.273666 0.961825 0
    outer loop
      vertex 35.4807 41.4074 2.53547e-15
      vertex 35.9544 41.2726 6
      vertex 35.9544 41.2726 2.52722e-15
    endloop
  endfacet
  facet normal -0.992421 -0.122887 0
    outer loop
      vertex -38.5569 -38.235 -2.34122e-15
      vertex -38.6174 -37.7462 6
      vertex -38.6174 -37.7462 -2.31129e-15
    endloop
  endfacet
  facet normal -0.992421 -0.122887 0
    outer loop
      vertex -38.6174 -37.7462 6
      vertex -38.5569 -38.235 -2.34122e-15
      vertex -38.5569 -38.235 6
    endloop
  endfacet
  facet normal -0.445738 -0.895163 0
    outer loop
      vertex -36.625 -40.9641 -2.50833e-15
      vertex -36.1841 -41.1836 6
      vertex -36.625 -40.9641 6
    endloop
  endfacet
  facet normal -0.445738 -0.895163 -0
    outer loop
      vertex -36.1841 -41.1836 6
      vertex -36.625 -40.9641 -2.50833e-15
      vertex -36.1841 -41.1836 -2.52177e-15
    endloop
  endfacet
  facet normal -0.332355 -0.943154 0
    outer loop
      vertex -36.1841 -41.1836 -2.52177e-15
      vertex -35.7197 -41.3473 6
      vertex -36.1841 -41.1836 6
    endloop
  endfacet
  facet normal -0.332355 -0.943154 -0
    outer loop
      vertex -35.7197 -41.3473 6
      vertex -36.1841 -41.1836 -2.52177e-15
      vertex -35.7197 -41.3473 -2.53179e-15
    endloop
  endfacet
  facet normal 0.273666 -0.961825 0
    outer loop
      vertex 35.4807 -41.4074 6
      vertex 35.9544 -41.2726 -2.52722e-15
      vertex 35.9544 -41.2726 6
    endloop
  endfacet
  facet normal 0.273666 -0.961825 0
    outer loop
      vertex 35.9544 -41.2726 -2.52722e-15
      vertex 35.4807 -41.4074 6
      vertex 35.4807 -41.4074 -2.53547e-15
    endloop
  endfacet
  facet normal 0.998103 0.0615638 3.91412e-08
    outer loop
      vertex 38.625 37.5 6
      vertex 38.5947 37.9916 2.32631e-15
      vertex 38.5947 37.9916 6
    endloop
  endfacet
  facet normal 0.998103 0.0615633 0
    outer loop
      vertex 38.5947 37.9916 2.32631e-15
      vertex 38.625 37.5 6
      vertex 38.625 37.5 2.29621e-15
    endloop
  endfacet
  facet normal 0.952941 0.303155 0
    outer loop
      vertex 38.5042 38.4757 6
      vertex 38.3549 38.945 2.38469e-15
      vertex 38.3549 38.945 6
    endloop
  endfacet
  facet normal 0.952941 0.303155 0
    outer loop
      vertex 38.3549 38.945 2.38469e-15
      vertex 38.5042 38.4757 6
      vertex 38.5042 38.4757 2.35595e-15
    endloop
  endfacet
  facet normal 0.952941 -0.303155 0
    outer loop
      vertex 38.3549 -38.945 6
      vertex 38.5042 -38.4757 -2.35595e-15
      vertex 38.5042 -38.4757 6
    endloop
  endfacet
  facet normal 0.952941 -0.303155 0
    outer loop
      vertex 38.5042 -38.4757 -2.35595e-15
      vertex 38.3549 -38.945 6
      vertex 38.3549 -38.945 -2.38469e-15
    endloop
  endfacet
  facet normal 0.779081 -0.626923 0
    outer loop
      vertex 37.581 -40.1948 6
      vertex 37.8898 -39.8111 -2.43773e-15
      vertex 37.8898 -39.8111 6
    endloop
  endfacet
  facet normal 0.779081 -0.626923 0
    outer loop
      vertex 37.8898 -39.8111 -2.43773e-15
      vertex 37.581 -40.1948 6
      vertex 37.581 -40.1948 -2.46122e-15
    endloop
  endfacet
  facet normal -0.881011 0.473096 0
    outer loop
      vertex -38.2589 39.1718 2.39858e-15
      vertex -38.0259 39.6057 6
      vertex -38.0259 39.6057 2.42515e-15
    endloop
  endfacet
  facet normal -0.881011 0.473096 0
    outer loop
      vertex -38.0259 39.6057 6
      vertex -38.2589 39.1718 2.39858e-15
      vertex -38.2589 39.1718 6
    endloop
  endfacet
  facet normal -0.932473 0.361239 0
    outer loop
      vertex -38.4368 38.7126 2.37046e-15
      vertex -38.2589 39.1718 6
      vertex -38.2589 39.1718 2.39858e-15
    endloop
  endfacet
  facet normal -0.932473 0.361239 0
    outer loop
      vertex -38.2589 39.1718 6
      vertex -38.4368 38.7126 2.37046e-15
      vertex -38.4368 38.7126 6
    endloop
  endfacet
  facet normal -0.552367 0.833601 0
    outer loop
      vertex -36.625 40.9641 2.50833e-15
      vertex -37.0355 40.6921 6
      vertex -36.625 40.9641 6
    endloop
  endfacet
  facet normal -0.552362 0.833605 5.29991e-07
    outer loop
      vertex -37.0355 40.6921 6
      vertex -36.625 40.9641 2.50833e-15
      vertex -37.0355 40.6921 2.49167e-15
    endloop
  endfacet
  facet normal 0.389791 0.920903 0
    outer loop
      vertex 36.408 41.0807 6
      vertex 35.9544 41.2726 2.52722e-15
      vertex 35.9544 41.2726 6
    endloop
  endfacet
  facet normal 0.389791 0.920903 0
    outer loop
      vertex 35.9544 41.2726 2.52722e-15
      vertex 36.408 41.0807 6
      vertex 36.408 41.0807 2.51546e-15
    endloop
  endfacet
  facet normal 0.602632 0.79802 0
    outer loop
      vertex 37.2275 40.5376 6
      vertex 36.8345 40.8344 2.50039e-15
      vertex 36.8345 40.8344 6
    endloop
  endfacet
  facet normal 0.602632 0.79802 0
    outer loop
      vertex 36.8345 40.8344 2.50039e-15
      vertex 37.2275 40.5376 6
      vertex 37.2275 40.5376 2.48221e-15
    endloop
  endfacet
  facet normal 0.153397 0.988165 0
    outer loop
      vertex 35.4807 41.4074 6
      vertex 34.9941 41.4829 2.5401e-15
      vertex 34.9941 41.4829 6
    endloop
  endfacet
  facet normal 0.153389 0.988166 6.28259e-07
    outer loop
      vertex 34.9941 41.4829 2.5401e-15
      vertex 35.4807 41.4074 6
      vertex 35.4807 41.4074 2.53547e-15
    endloop
  endfacet
  facet normal -0.969797 -0.243915 0
    outer loop
      vertex -38.4368 -38.7126 -2.37046e-15
      vertex -38.5569 -38.235 6
      vertex -38.5569 -38.235 -2.34122e-15
    endloop
  endfacet
  facet normal -0.969797 -0.243915 0
    outer loop
      vertex -38.5569 -38.235 6
      vertex -38.4368 -38.7126 -2.37046e-15
      vertex -38.4368 -38.7126 6
    endloop
  endfacet
  facet normal -0.932473 -0.361239 0
    outer loop
      vertex -38.2589 -39.1718 -2.39858e-15
      vertex -38.4368 -38.7126 6
      vertex -38.4368 -38.7126 -2.37046e-15
    endloop
  endfacet
  facet normal -0.932473 -0.361239 0
    outer loop
      vertex -38.4368 -38.7126 6
      vertex -38.2589 -39.1718 -2.39858e-15
      vertex -38.2589 -39.1718 6
    endloop
  endfacet
  facet normal -0.816197 -0.577774 0
    outer loop
      vertex -37.7413 -40.0077 -2.44976e-15
      vertex -38.0259 -39.6057 6
      vertex -38.0259 -39.6057 -2.42515e-15
    endloop
  endfacet
  facet normal -0.816197 -0.577774 0
    outer loop
      vertex -38.0259 -39.6057 6
      vertex -37.7413 -40.0077 -2.44976e-15
      vertex -37.7413 -40.0077 6
    endloop
  endfacet
  facet normal -0.739008 -0.673696 0
    outer loop
      vertex -37.4095 -40.3716 -2.47205e-15
      vertex -37.7413 -40.0077 6
      vertex -37.7413 -40.0077 -2.44976e-15
    endloop
  endfacet
  facet normal -0.739008 -0.673696 0
    outer loop
      vertex -37.7413 -40.0077 6
      vertex -37.4095 -40.3716 -2.47205e-15
      vertex -37.4095 -40.3716 6
    endloop
  endfacet
  facet normal -0.552362 -0.833605 0
    outer loop
      vertex -37.0355 -40.6921 -2.49167e-15
      vertex -36.625 -40.9641 6
      vertex -37.0355 -40.6921 6
    endloop
  endfacet
  facet normal -0.552362 -0.833605 -0
    outer loop
      vertex -36.625 -40.9641 6
      vertex -37.0355 -40.6921 -2.49167e-15
      vertex -36.625 -40.9641 -2.50833e-15
    endloop
  endfacet
  facet normal -0.213932 -0.976849 0
    outer loop
      vertex -35.7197 -41.3473 -2.53179e-15
      vertex -35.2386 -41.4527 6
      vertex -35.7197 -41.3473 6
    endloop
  endfacet
  facet normal -0.213932 -0.976849 -0
    outer loop
      vertex -35.2386 -41.4527 6
      vertex -35.7197 -41.3473 -2.53179e-15
      vertex -35.2386 -41.4527 -2.53824e-15
    endloop
  endfacet
  facet normal -0.0922676 -0.995734 0
    outer loop
      vertex -35.2386 -41.4527 -2.53824e-15
      vertex -34.7482 -41.4981 6
      vertex -35.2386 -41.4527 6
    endloop
  endfacet
  facet normal -0.0922676 -0.995734 -0
    outer loop
      vertex -34.7482 -41.4981 6
      vertex -35.2386 -41.4527 -2.53824e-15
      vertex -34.7482 -41.4981 -2.54103e-15
    endloop
  endfacet
  facet normal 0.153389 -0.988166 0
    outer loop
      vertex 34.9941 -41.4829 6
      vertex 35.4807 -41.4074 -2.53547e-15
      vertex 35.4807 -41.4074 6
    endloop
  endfacet
  facet normal 0.153389 -0.988166 0
    outer loop
      vertex 35.4807 -41.4074 -2.53547e-15
      vertex 34.9941 -41.4829 6
      vertex 34.9941 -41.4829 -2.5401e-15
    endloop
  endfacet
  facet normal 0.982974 0.183746 0
    outer loop
      vertex 38.5042 38.4757 6
      vertex 38.5947 37.9916 2.32631e-15
      vertex 38.5042 38.4757 2.35595e-15
    endloop
  endfacet
  facet normal 0.982974 0.183745 1.16822e-07
    outer loop
      vertex 38.5947 37.9916 2.32631e-15
      vertex 38.5042 38.4757 6
      vertex 38.5947 37.9916 6
    endloop
  endfacet
  facet normal 0.908464 0.417963 0
    outer loop
      vertex 38.3549 38.945 6
      vertex 38.149 39.3924 2.41209e-15
      vertex 38.149 39.3924 6
    endloop
  endfacet
  facet normal 0.908464 0.417963 0
    outer loop
      vertex 38.149 39.3924 2.41209e-15
      vertex 38.3549 38.945 6
      vertex 38.3549 38.945 2.38469e-15
    endloop
  endfacet
  facet normal 0.850218 0.526431 0
    outer loop
      vertex 38.149 39.3924 6
      vertex 37.8898 39.8111 2.43773e-15
      vertex 37.8898 39.8111 6
    endloop
  endfacet
  facet normal 0.850218 0.526431 0
    outer loop
      vertex 37.8898 39.8111 2.43773e-15
      vertex 38.149 39.3924 6
      vertex 38.149 39.3924 2.41209e-15
    endloop
  endfacet
  facet normal 0.779081 0.626923 0
    outer loop
      vertex 37.8898 39.8111 6
      vertex 37.581 40.1948 2.46122e-15
      vertex 37.581 40.1948 6
    endloop
  endfacet
  facet normal 0.779081 0.626923 0
    outer loop
      vertex 37.581 40.1948 2.46122e-15
      vertex 37.8898 39.8111 6
      vertex 37.8898 39.8111 2.43773e-15
    endloop
  endfacet
  facet normal 0.982974 -0.183746 0
    outer loop
      vertex 38.5042 -38.4757 6
      vertex 38.5947 -37.9916 -2.32631e-15
      vertex 38.5947 -37.9916 6
    endloop
  endfacet
  facet normal 0.982974 -0.183746 0
    outer loop
      vertex 38.5947 -37.9916 -2.32631e-15
      vertex 38.5042 -38.4757 6
      vertex 38.5042 -38.4757 -2.35595e-15
    endloop
  endfacet
  facet normal 0.908464 -0.417963 0
    outer loop
      vertex 38.149 -39.3924 6
      vertex 38.3549 -38.945 -2.38469e-15
      vertex 38.3549 -38.945 6
    endloop
  endfacet
  facet normal 0.908464 -0.417963 0
    outer loop
      vertex 38.3549 -38.945 -2.38469e-15
      vertex 38.149 -39.3924 6
      vertex 38.149 -39.3924 -2.41209e-15
    endloop
  endfacet
  facet normal 0.850218 -0.526431 0
    outer loop
      vertex 37.8898 -39.8111 6
      vertex 38.149 -39.3924 -2.41209e-15
      vertex 38.149 -39.3924 6
    endloop
  endfacet
  facet normal 0.850218 -0.526431 0
    outer loop
      vertex 38.149 -39.3924 -2.41209e-15
      vertex 37.8898 -39.8111 6
      vertex 37.8898 -39.8111 -2.43773e-15
    endloop
  endfacet
  facet normal -0.650617 0.759406 4.82818e-07
    outer loop
      vertex -37.0355 40.6921 2.49167e-15
      vertex -37.4095 40.3716 6
      vertex -37.0355 40.6921 6
    endloop
  endfacet
  facet normal -0.650621 0.759403 0
    outer loop
      vertex -37.4095 40.3716 6
      vertex -37.0355 40.6921 2.49167e-15
      vertex -37.4095 40.3716 2.47205e-15
    endloop
  endfacet
  facet normal 0.499999 0.866026 0
    outer loop
      vertex 36.8345 40.8344 6
      vertex 36.408 41.0807 2.51546e-15
      vertex 36.408 41.0807 6
    endloop
  endfacet
  facet normal 0.499999 0.866026 0
    outer loop
      vertex 36.408 41.0807 2.51546e-15
      vertex 36.8345 40.8344 6
      vertex 36.8345 40.8344 2.50039e-15
    endloop
  endfacet
  facet normal 0.499999 -0.866026 0
    outer loop
      vertex 36.408 -41.0807 6
      vertex 36.8345 -40.8344 -2.50039e-15
      vertex 36.8345 -40.8344 6
    endloop
  endfacet
  facet normal 0.499999 -0.866026 0
    outer loop
      vertex 36.8345 -40.8344 -2.50039e-15
      vertex 36.408 -41.0807 6
      vertex 36.408 -41.0807 -2.51546e-15
    endloop
  endfacet
  facet normal 0.602632 -0.79802 0
    outer loop
      vertex 36.8345 -40.8344 6
      vertex 37.2275 -40.5376 -2.48221e-15
      vertex 37.2275 -40.5376 6
    endloop
  endfacet
  facet normal 0.602632 -0.79802 0
    outer loop
      vertex 37.2275 -40.5376 -2.48221e-15
      vertex 36.8345 -40.8344 6
      vertex 36.8345 -40.8344 -2.50039e-15
    endloop
  endfacet
  facet normal 0.696132 -0.717913 0
    outer loop
      vertex 37.2275 -40.5376 6
      vertex 37.581 -40.1948 -2.46122e-15
      vertex 37.581 -40.1948 6
    endloop
  endfacet
  facet normal 0.696132 -0.717913 0
    outer loop
      vertex 37.581 -40.1948 -2.46122e-15
      vertex 37.2275 -40.5376 6
      vertex 37.2275 -40.5376 -2.48221e-15
    endloop
  endfacet
endsolid OpenSCAD_Model
