solid OpenSCAD_Model
  facet normal 0.994522 0.104529 0
    outer loop
      vertex 11.83 1.61709 -2
      vertex 11.7378 2.49494 -2.5
      vertex 11.7378 2.49494 -2
    endloop
  endfacet
  facet normal 0.994522 0.104528 -0
    outer loop
      vertex 12 0 -2.5
      vertex 11.83 1.61709 -2
      vertex 12 0 -2
    endloop
  endfacet
  facet normal 0.994522 0.104529 -6.85888e-07
    outer loop
      vertex 11.83 1.61709 -2
      vertex 12 0 -2.5
      vertex 11.7378 2.49494 -2.5
    endloop
  endfacet
  facet normal 0.994522 0.104528 0
    outer loop
      vertex 11.7378 2.49494 2.5
      vertex 11.9077 0.877849 2
      vertex 11.7378 2.49494 2
    endloop
  endfacet
  facet normal 0.994522 0.104529 -6.60967e-07
    outer loop
      vertex 12 0 2.5
      vertex 11.9077 0.877849 2
      vertex 11.7378 2.49494 2.5
    endloop
  endfacet
  facet normal 0.994522 0.104529 0
    outer loop
      vertex 11.9077 0.877849 2
      vertex 12 0 2.5
      vertex 12 0 2
    endloop
  endfacet
  facet normal -0.994522 0.104528 0
    outer loop
      vertex -11.7378 2.49494 -2.5
      vertex -11.9077 0.877849 -2
      vertex -11.7378 2.49494 -2
    endloop
  endfacet
  facet normal -0.994522 0.104529 6.60967e-07
    outer loop
      vertex -12 0 -2.5
      vertex -11.9077 0.877849 -2
      vertex -11.7378 2.49494 -2.5
    endloop
  endfacet
  facet normal -0.994522 0.104529 0
    outer loop
      vertex -11.9077 0.877849 -2
      vertex -12 0 -2.5
      vertex -12 0 -2
    endloop
  endfacet
  facet normal -0.994522 0.104529 0
    outer loop
      vertex -11.83 1.61709 2
      vertex -11.7378 2.49494 2.5
      vertex -11.7378 2.49494 2
    endloop
  endfacet
  facet normal -0.994522 0.104528 0
    outer loop
      vertex -12 0 2.5
      vertex -11.83 1.61709 2
      vertex -12 0 2
    endloop
  endfacet
  facet normal -0.994522 0.104529 6.85888e-07
    outer loop
      vertex -11.83 1.61709 2
      vertex -12 0 2.5
      vertex -11.7378 2.49494 2.5
    endloop
  endfacet
  facet normal 0 1 -0
    outer loop
      vertex 1.25434 11.9343 -2.5
      vertex -1.25434 11.9343 -2
      vertex 1.25434 11.9343 -2
    endloop
  endfacet
  facet normal 0 1 0
    outer loop
      vertex -1.25434 11.9343 -2
      vertex 1.25434 11.9343 -2.5
      vertex -1.25434 11.9343 -2.5
    endloop
  endfacet
  facet normal 0 1 -0
    outer loop
      vertex 1.25434 11.9343 2
      vertex -1.25434 11.9343 2.5
      vertex 1.25434 11.9343 2.5
    endloop
  endfacet
  facet normal 0 1 0
    outer loop
      vertex -1.25434 11.9343 2.5
      vertex 1.25434 11.9343 2
      vertex -1.25434 11.9343 2
    endloop
  endfacet
  facet normal 0 -1 0
    outer loop
      vertex -1.25434 -11.9343 2
      vertex 1.25434 -11.9343 2.5
      vertex -1.25434 -11.9343 2.5
    endloop
  endfacet
  facet normal 0 -1 -0
    outer loop
      vertex 1.25434 -11.9343 2.5
      vertex -1.25434 -11.9343 2
      vertex 1.25434 -11.9343 2
    endloop
  endfacet
  facet normal 0 -1 0
    outer loop
      vertex -1.25434 -11.9343 -2.5
      vertex 1.25434 -11.9343 -2
      vertex -1.25434 -11.9343 -2
    endloop
  endfacet
  facet normal 0 -1 -0
    outer loop
      vertex 1.25434 -11.9343 -2
      vertex -1.25434 -11.9343 -2.5
      vertex 1.25434 -11.9343 -2.5
    endloop
  endfacet
  facet normal 0.587786 0.809017 1.12111e-06
    outer loop
      vertex 8.02957 8.91774 -2
      vertex 8.02957 8.91774 -2.5
      vertex 6.71411 9.87348 -2
    endloop
  endfacet
  facet normal 0.587785 0.809017 4.25722e-07
    outer loop
      vertex 6 10.3923 -2.5
      vertex 6.71411 9.87348 -2
      vertex 8.02957 8.91774 -2.5
    endloop
  endfacet
  facet normal 0.587786 0.809017 0
    outer loop
      vertex 6.71411 9.87348 -2
      vertex 6 10.3923 -2.5
      vertex 6 10.3923 -2
    endloop
  endfacet
  facet normal 0.587785 0.809017 -6.9539e-07
    outer loop
      vertex 7.31546 9.43657 2
      vertex 6 10.3923 2.5
      vertex 8.02957 8.91774 2.5
    endloop
  endfacet
  facet normal 0.587786 0.809017 0
    outer loop
      vertex 6 10.3923 2.5
      vertex 7.31546 9.43657 2
      vertex 6 10.3923 2
    endloop
  endfacet
  facet normal 0.587786 0.809017 -1.12111e-06
    outer loop
      vertex 8.02957 8.91774 2.5
      vertex 8.02957 8.91774 2
      vertex 7.31546 9.43657 2
    endloop
  endfacet
  facet normal 0.406737 0.913545 -3.87894e-07
    outer loop
      vertex 3.7082 11.4127 -2.5
      vertex 3.7082 11.4127 -2
      vertex 4.51458 11.0537 -2
    endloop
  endfacet
  facet normal 0.406737 0.913545 3.87895e-07
    outer loop
      vertex 6 10.3923 -2.5
      vertex 4.51458 11.0537 -2
      vertex 6 10.3923 -2
    endloop
  endfacet
  facet normal 0.406737 0.913545 -2.04665e-07
    outer loop
      vertex 3.7082 11.4127 -2.5
      vertex 4.51458 11.0537 -2
      vertex 6 10.3923 -2.5
    endloop
  endfacet
  facet normal 0.406736 0.913546 -3.87894e-07
    outer loop
      vertex 5.19363 10.7513 2
      vertex 6 10.3923 2.5
      vertex 6 10.3923 2
    endloop
  endfacet
  facet normal 0.406737 0.913545 -5.92559e-07
    outer loop
      vertex 6 10.3923 2.5
      vertex 5.19363 10.7513 2
      vertex 3.7082 11.4127 2.5
    endloop
  endfacet
  facet normal 0.406737 0.913545 3.87894e-07
    outer loop
      vertex 3.7082 11.4127 2
      vertex 3.7082 11.4127 2.5
      vertex 5.19363 10.7513 2
    endloop
  endfacet
  facet normal -0.743144 0.669131 0
    outer loop
      vertex -8.6202 8.26178 2
      vertex -8.02957 8.91774 2.5
      vertex -8.02957 8.91774 2
    endloop
  endfacet
  facet normal -0.743145 0.669131 0
    outer loop
      vertex -9.7082 7.05342 2.5
      vertex -8.6202 8.26178 2
      vertex -9.7082 7.05342 2
    endloop
  endfacet
  facet normal -0.743145 0.669131 6.53818e-07
    outer loop
      vertex -8.6202 8.26178 2
      vertex -9.7082 7.05342 2.5
      vertex -8.02957 8.91774 2.5
    endloop
  endfacet
  facet normal -0.743145 0.669131 0
    outer loop
      vertex -8.02957 8.91774 -2.5
      vertex -9.11757 7.70938 -2
      vertex -8.02957 8.91774 -2
    endloop
  endfacet
  facet normal -0.743145 0.669131 6.53818e-07
    outer loop
      vertex -9.7082 7.05342 -2.5
      vertex -9.11757 7.70938 -2
      vertex -8.02957 8.91774 -2.5
    endloop
  endfacet
  facet normal -0.743144 0.669131 0
    outer loop
      vertex -9.11757 7.70938 -2
      vertex -9.7082 7.05342 -2.5
      vertex -9.7082 7.05342 -2
    endloop
  endfacet
  facet normal -0.866025 0.5 -4.76837e-07
    outer loop
      vertex -10.1495 6.289 2
      vertex -9.7082 7.05342 2.5
      vertex -9.7082 7.05342 2
    endloop
  endfacet
  facet normal -0.866025 0.5 0
    outer loop
      vertex -10.9625 4.88084 2.5
      vertex -10.1495 6.289 2
      vertex -10.9625 4.88084 2
    endloop
  endfacet
  facet normal -0.866025 0.5 -5.03622e-07
    outer loop
      vertex -10.1495 6.289 2
      vertex -10.9625 4.88084 2.5
      vertex -9.7082 7.05342 2.5
    endloop
  endfacet
  facet normal -0.866025 0.5 4.76837e-07
    outer loop
      vertex -9.7082 7.05342 -2.5
      vertex -10.5212 5.64527 -2
      vertex -9.7082 7.05342 -2
    endloop
  endfacet
  facet normal -0.866025 0.5 -2.67851e-08
    outer loop
      vertex -10.9625 4.88084 -2.5
      vertex -10.5212 5.64527 -2
      vertex -9.7082 7.05342 -2.5
    endloop
  endfacet
  facet normal -0.866025 0.5 0
    outer loop
      vertex -10.5212 5.64527 -2
      vertex -10.9625 4.88084 -2.5
      vertex -10.9625 4.88084 -2
    endloop
  endfacet
  facet normal -0.406737 0.913545 -3.87894e-07
    outer loop
      vertex -3.7082 11.4127 -2
      vertex -3.7082 11.4127 -2.5
      vertex -5.19363 10.7513 -2
    endloop
  endfacet
  facet normal -0.406737 0.913545 8.97334e-08
    outer loop
      vertex -6 10.3923 -2.5
      vertex -5.19363 10.7513 -2
      vertex -3.7082 11.4127 -2.5
    endloop
  endfacet
  facet normal -0.406737 0.913545 0
    outer loop
      vertex -5.19363 10.7513 -2
      vertex -6 10.3923 -2.5
      vertex -6 10.3923 -2
    endloop
  endfacet
  facet normal -0.406737 0.913545 4.77628e-07
    outer loop
      vertex -3.7082 11.4127 2.5
      vertex -4.51458 11.0537 2
      vertex -6 10.3923 2.5
    endloop
  endfacet
  facet normal -0.406737 0.913545 3.87894e-07
    outer loop
      vertex -3.7082 11.4127 2.5
      vertex -3.7082 11.4127 2
      vertex -4.51458 11.0537 2
    endloop
  endfacet
  facet normal -0.406737 0.913545 0
    outer loop
      vertex -6 10.3923 2.5
      vertex -4.51458 11.0537 2
      vertex -6 10.3923 2
    endloop
  endfacet
  facet normal 0.866025 -0.5 0
    outer loop
      vertex 10.5212 -5.64527 -2
      vertex 10.9625 -4.88084 -2.5
      vertex 10.9625 -4.88084 -2
    endloop
  endfacet
  facet normal 0.866025 -0.5 4.76837e-07
    outer loop
      vertex 9.7082 -7.05342 -2.5
      vertex 10.5212 -5.64527 -2
      vertex 9.7082 -7.05342 -2
    endloop
  endfacet
  facet normal 0.866025 -0.5 -2.67851e-08
    outer loop
      vertex 10.5212 -5.64527 -2
      vertex 9.7082 -7.05342 -2.5
      vertex 10.9625 -4.88084 -2.5
    endloop
  endfacet
  facet normal 0.866025 -0.5 0
    outer loop
      vertex 10.9625 -4.88084 2.5
      vertex 10.1495 -6.289 2
      vertex 10.9625 -4.88084 2
    endloop
  endfacet
  facet normal 0.866025 -0.5 -5.03622e-07
    outer loop
      vertex 9.7082 -7.05342 2.5
      vertex 10.1495 -6.289 2
      vertex 10.9625 -4.88084 2.5
    endloop
  endfacet
  facet normal 0.866025 -0.5 -4.76837e-07
    outer loop
      vertex 10.1495 -6.289 2
      vertex 9.7082 -7.05342 2.5
      vertex 9.7082 -7.05342 2
    endloop
  endfacet
  facet normal 0.866025 0.5 4.76837e-07
    outer loop
      vertex 10.1495 6.289 -2
      vertex 9.7082 7.05342 -2.5
      vertex 9.7082 7.05342 -2
    endloop
  endfacet
  facet normal 0.866025 0.5 -0
    outer loop
      vertex 10.9625 4.88084 -2.5
      vertex 10.1495 6.289 -2
      vertex 10.9625 4.88084 -2
    endloop
  endfacet
  facet normal 0.866025 0.5 5.03622e-07
    outer loop
      vertex 10.1495 6.289 -2
      vertex 10.9625 4.88084 -2.5
      vertex 9.7082 7.05342 -2.5
    endloop
  endfacet
  facet normal 0.866025 0.5 -4.76837e-07
    outer loop
      vertex 9.7082 7.05342 2.5
      vertex 10.5212 5.64527 2
      vertex 9.7082 7.05342 2
    endloop
  endfacet
  facet normal 0.866025 0.5 2.67851e-08
    outer loop
      vertex 10.9625 4.88084 2.5
      vertex 10.5212 5.64527 2
      vertex 9.7082 7.05342 2.5
    endloop
  endfacet
  facet normal 0.866025 0.5 0
    outer loop
      vertex 10.5212 5.64527 2
      vertex 10.9625 4.88084 2.5
      vertex 10.9625 4.88084 2
    endloop
  endfacet
  facet normal 0.951056 0.309017 0
    outer loop
      vertex 11.2353 4.04136 -2
      vertex 10.9625 4.88084 -2.5
      vertex 10.9625 4.88084 -2
    endloop
  endfacet
  facet normal 0.951057 0.309017 -1.47351e-07
    outer loop
      vertex 11.7378 2.49494 -2.5
      vertex 11.2353 4.04136 -2
      vertex 11.7378 2.49494 -2
    endloop
  endfacet
  facet normal 0.951057 0.309017 -7.59278e-07
    outer loop
      vertex 11.2353 4.04136 -2
      vertex 11.7378 2.49494 -2.5
      vertex 10.9625 4.88084 -2.5
    endloop
  endfacet
  facet normal 0.951057 0.309017 0
    outer loop
      vertex 10.9625 4.88084 2.5
      vertex 11.465 3.33442 2
      vertex 10.9625 4.88084 2
    endloop
  endfacet
  facet normal 0.951057 0.309017 -6.11927e-07
    outer loop
      vertex 11.7378 2.49494 2.5
      vertex 11.465 3.33442 2
      vertex 10.9625 4.88084 2.5
    endloop
  endfacet
  facet normal 0.951056 0.309017 1.47351e-07
    outer loop
      vertex 11.465 3.33442 2
      vertex 11.7378 2.49494 2.5
      vertex 11.7378 2.49494 2
    endloop
  endfacet
  facet normal 0.743144 0.669131 0
    outer loop
      vertex 8.6202 8.26178 -2
      vertex 8.02957 8.91774 -2.5
      vertex 8.02957 8.91774 -2
    endloop
  endfacet
  facet normal 0.743145 0.669131 -0
    outer loop
      vertex 9.7082 7.05342 -2.5
      vertex 8.6202 8.26178 -2
      vertex 9.7082 7.05342 -2
    endloop
  endfacet
  facet normal 0.743145 0.669131 -6.53818e-07
    outer loop
      vertex 8.6202 8.26178 -2
      vertex 9.7082 7.05342 -2.5
      vertex 8.02957 8.91774 -2.5
    endloop
  endfacet
  facet normal 0.743145 0.669131 0
    outer loop
      vertex 8.02957 8.91774 2.5
      vertex 9.11757 7.70938 2
      vertex 8.02957 8.91774 2
    endloop
  endfacet
  facet normal 0.743145 0.669131 -6.53818e-07
    outer loop
      vertex 9.7082 7.05342 2.5
      vertex 9.11757 7.70938 2
      vertex 8.02957 8.91774 2.5
    endloop
  endfacet
  facet normal 0.743144 0.669131 0
    outer loop
      vertex 9.11757 7.70938 2
      vertex 9.7082 7.05342 2.5
      vertex 9.7082 7.05342 2
    endloop
  endfacet
  facet normal 0.207912 0.978148 0
    outer loop
      vertex 3.7082 11.4127 -2
      vertex 3.7082 11.4127 -2.5
      vertex 2.11774 11.7507 -2
    endloop
  endfacet
  facet normal 0.207912 0.978148 -4.98209e-07
    outer loop
      vertex 1.25434 11.9343 -2.5
      vertex 2.11774 11.7507 -2
      vertex 3.7082 11.4127 -2.5
    endloop
  endfacet
  facet normal 0.207911 0.978148 0
    outer loop
      vertex 2.11774 11.7507 -2
      vertex 1.25434 11.9343 -2.5
      vertex 1.25434 11.9343 -2
    endloop
  endfacet
  facet normal 0.207912 0.978148 0
    outer loop
      vertex 2.84481 11.5962 2
      vertex 3.7082 11.4127 2.5
      vertex 3.7082 11.4127 2
    endloop
  endfacet
  facet normal 0.207912 0.978148 -1.01649e-07
    outer loop
      vertex 3.7082 11.4127 2.5
      vertex 2.84481 11.5962 2
      vertex 1.25434 11.9343 2.5
    endloop
  endfacet
  facet normal 0.207912 0.978148 0
    outer loop
      vertex 1.25434 11.9343 2.5
      vertex 2.84481 11.5962 2
      vertex 1.25434 11.9343 2
    endloop
  endfacet
  facet normal -0.951057 0.309017 0
    outer loop
      vertex -10.9625 4.88084 -2.5
      vertex -11.465 3.33442 -2
      vertex -10.9625 4.88084 -2
    endloop
  endfacet
  facet normal -0.951057 0.309017 6.11927e-07
    outer loop
      vertex -11.7378 2.49494 -2.5
      vertex -11.465 3.33442 -2
      vertex -10.9625 4.88084 -2.5
    endloop
  endfacet
  facet normal -0.951056 0.309017 -1.47351e-07
    outer loop
      vertex -11.465 3.33442 -2
      vertex -11.7378 2.49494 -2.5
      vertex -11.7378 2.49494 -2
    endloop
  endfacet
  facet normal -0.951056 0.309017 0
    outer loop
      vertex -11.2353 4.04136 2
      vertex -10.9625 4.88084 2.5
      vertex -10.9625 4.88084 2
    endloop
  endfacet
  facet normal -0.951057 0.309017 1.47351e-07
    outer loop
      vertex -11.7378 2.49494 2.5
      vertex -11.2353 4.04136 2
      vertex -11.7378 2.49494 2
    endloop
  endfacet
  facet normal -0.951057 0.309017 7.59278e-07
    outer loop
      vertex -11.2353 4.04136 2
      vertex -11.7378 2.49494 2.5
      vertex -10.9625 4.88084 2.5
    endloop
  endfacet
  facet normal 0 0 1
    outer loop
      vertex 1.5 0 2.5
      vertex 12 0 2.5
      vertex 11.7378 2.49494 2.5
    endloop
  endfacet
  facet normal 0 0 1
    outer loop
      vertex 1.5 0 2.5
      vertex 11.7378 2.49494 2.5
      vertex 10.9625 4.88084 2.5
    endloop
  endfacet
  facet normal 0 0 1
    outer loop
      vertex 12 0 2.5
      vertex 1.5 0 2.5
      vertex 11.7378 -2.49494 2.5
    endloop
  endfacet
  facet normal 0 0 1
    outer loop
      vertex 1.5 0 2.5
      vertex 10.9625 4.88084 2.5
      vertex 9.7082 7.05342 2.5
    endloop
  endfacet
  facet normal 0 0 1
    outer loop
      vertex 11.7378 -2.49494 2.5
      vertex 1.5 0 2.5
      vertex 10.9625 -4.88084 2.5
    endloop
  endfacet
  facet normal 0 0 1
    outer loop
      vertex 0.463525 1.42658 2.5
      vertex 9.7082 7.05342 2.5
      vertex 8.02957 8.91774 2.5
    endloop
  endfacet
  facet normal 0 0 1
    outer loop
      vertex 10.9625 -4.88084 2.5
      vertex 1.5 0 2.5
      vertex 9.7082 -7.05342 2.5
    endloop
  endfacet
  facet normal 0 0 1
    outer loop
      vertex 0.463525 1.42658 2.5
      vertex 8.02957 8.91774 2.5
      vertex 6 10.3923 2.5
    endloop
  endfacet
  facet normal -0 0 1
    outer loop
      vertex 0.463525 -1.42658 2.5
      vertex 9.7082 -7.05342 2.5
      vertex 1.5 0 2.5
    endloop
  endfacet
  facet normal 0 0 1
    outer loop
      vertex 0.463525 1.42658 2.5
      vertex 6 10.3923 2.5
      vertex 3.7082 11.4127 2.5
    endloop
  endfacet
  facet normal 0 0 1
    outer loop
      vertex 9.7082 -7.05342 2.5
      vertex 0.463525 -1.42658 2.5
      vertex 8.02957 -8.91774 2.5
    endloop
  endfacet
  facet normal 0 0 1
    outer loop
      vertex 8.02957 -8.91774 2.5
      vertex 0.463525 -1.42658 2.5
      vertex 6 -10.3923 2.5
    endloop
  endfacet
  facet normal 0 0 1
    outer loop
      vertex 0.463525 1.42658 2.5
      vertex 3.7082 11.4127 2.5
      vertex 1.25434 11.9343 2.5
    endloop
  endfacet
  facet normal 0 0 1
    outer loop
      vertex 9.7082 7.05342 2.5
      vertex 0.463525 1.42658 2.5
      vertex 1.5 0 2.5
    endloop
  endfacet
  facet normal -0 0 1
    outer loop
      vertex -1.25434 11.9343 2.5
      vertex 0.463525 1.42658 2.5
      vertex 1.25434 11.9343 2.5
    endloop
  endfacet
  facet normal 0 0 1
    outer loop
      vertex 0.463525 1.42658 2.5
      vertex -3.7082 11.4127 2.5
      vertex -1.21352 0.881678 2.5
    endloop
  endfacet
  facet normal -0 0 1
    outer loop
      vertex -3.7082 11.4127 2.5
      vertex 0.463525 1.42658 2.5
      vertex -1.25434 11.9343 2.5
    endloop
  endfacet
  facet normal 0 0 1
    outer loop
      vertex 6 -10.3923 2.5
      vertex 0.463525 -1.42658 2.5
      vertex 3.7082 -11.4127 2.5
    endloop
  endfacet
  facet normal 0 0 1
    outer loop
      vertex 3.7082 -11.4127 2.5
      vertex 0.463525 -1.42658 2.5
      vertex 1.25434 -11.9343 2.5
    endloop
  endfacet
  facet normal 0 0 1
    outer loop
      vertex -3.7082 -11.4127 2.5
      vertex 0.463525 -1.42658 2.5
      vertex -1.21352 -0.881678 2.5
    endloop
  endfacet
  facet normal 0 0 1
    outer loop
      vertex 0.463525 -1.42658 2.5
      vertex -1.25434 -11.9343 2.5
      vertex 1.25434 -11.9343 2.5
    endloop
  endfacet
  facet normal -0 0 1
    outer loop
      vertex -6 10.3923 2.5
      vertex -1.21352 0.881678 2.5
      vertex -3.7082 11.4127 2.5
    endloop
  endfacet
  facet normal -0 0 1
    outer loop
      vertex -8.02957 8.91774 2.5
      vertex -1.21352 0.881678 2.5
      vertex -6 10.3923 2.5
    endloop
  endfacet
  facet normal 0 0 1
    outer loop
      vertex 0.463525 -1.42658 2.5
      vertex -3.7082 -11.4127 2.5
      vertex -1.25434 -11.9343 2.5
    endloop
  endfacet
  facet normal -0 0 1
    outer loop
      vertex -9.7082 7.05342 2.5
      vertex -1.21352 0.881678 2.5
      vertex -8.02957 8.91774 2.5
    endloop
  endfacet
  facet normal 0 0 1
    outer loop
      vertex -1.21352 -0.881678 2.5
      vertex -6 -10.3923 2.5
      vertex -3.7082 -11.4127 2.5
    endloop
  endfacet
  facet normal -0 0 1
    outer loop
      vertex -10.9625 4.88084 2.5
      vertex -1.21352 0.881678 2.5
      vertex -9.7082 7.05342 2.5
    endloop
  endfacet
  facet normal 0 0 1
    outer loop
      vertex -1.21352 -0.881678 2.5
      vertex -8.02957 -8.91774 2.5
      vertex -6 -10.3923 2.5
    endloop
  endfacet
  facet normal -0 0 1
    outer loop
      vertex -11.7378 2.49494 2.5
      vertex -1.21352 0.881678 2.5
      vertex -10.9625 4.88084 2.5
    endloop
  endfacet
  facet normal 0 0 1
    outer loop
      vertex -1.21352 -0.881678 2.5
      vertex -9.7082 -7.05342 2.5
      vertex -8.02957 -8.91774 2.5
    endloop
  endfacet
  facet normal 0 0 1
    outer loop
      vertex -12 0 2.5
      vertex -1.21352 0.881678 2.5
      vertex -11.7378 2.49494 2.5
    endloop
  endfacet
  facet normal 0 0 1
    outer loop
      vertex -1.21352 -0.881678 2.5
      vertex -10.9625 -4.88084 2.5
      vertex -9.7082 -7.05342 2.5
    endloop
  endfacet
  facet normal 0 0 1
    outer loop
      vertex -1.21352 0.881678 2.5
      vertex -12 0 2.5
      vertex -1.21352 -0.881678 2.5
    endloop
  endfacet
  facet normal 0 0 1
    outer loop
      vertex -1.21352 -0.881678 2.5
      vertex -11.7378 -2.49494 2.5
      vertex -10.9625 -4.88084 2.5
    endloop
  endfacet
  facet normal 0 0 1
    outer loop
      vertex -1.21352 -0.881678 2.5
      vertex -12 0 2.5
      vertex -11.7378 -2.49494 2.5
    endloop
  endfacet
  facet normal -0.587785 0.809017 0
    outer loop
      vertex -6 10.3923 -2.5
      vertex -7.31546 9.43657 -2
      vertex -6 10.3923 -2
    endloop
  endfacet
  facet normal -0.587785 0.809017 3.00924e-07
    outer loop
      vertex -8.02957 8.91774 -2.5
      vertex -7.31546 9.43657 -2
      vertex -6 10.3923 -2.5
    endloop
  endfacet
  facet normal -0.587786 0.809017 1.12111e-06
    outer loop
      vertex -7.31546 9.43657 -2
      vertex -8.02957 8.91774 -2.5
      vertex -8.02957 8.91774 -2
    endloop
  endfacet
  facet normal -0.587785 0.809017 0
    outer loop
      vertex -6.71411 9.87348 2
      vertex -6 10.3923 2.5
      vertex -6 10.3923 2
    endloop
  endfacet
  facet normal -0.587785 0.809017 -2.59631e-07
    outer loop
      vertex -6 10.3923 2.5
      vertex -6.71411 9.87348 2
      vertex -8.02957 8.91774 2.5
    endloop
  endfacet
  facet normal -0.587786 0.809017 -1.12111e-06
    outer loop
      vertex -8.02957 8.91774 2
      vertex -8.02957 8.91774 2.5
      vertex -6.71411 9.87348 2
    endloop
  endfacet
  facet normal -0.207912 0.978148 0
    outer loop
      vertex -1.25434 11.9343 -2.5
      vertex -2.84481 11.5962 -2
      vertex -1.25434 11.9343 -2
    endloop
  endfacet
  facet normal -0.207912 0.978148 1.01649e-07
    outer loop
      vertex -3.7082 11.4127 -2.5
      vertex -2.84481 11.5962 -2
      vertex -1.25434 11.9343 -2.5
    endloop
  endfacet
  facet normal -0.207912 0.978148 0
    outer loop
      vertex -2.84481 11.5962 -2
      vertex -3.7082 11.4127 -2.5
      vertex -3.7082 11.4127 -2
    endloop
  endfacet
  facet normal -0.207912 0.978148 4.98209e-07
    outer loop
      vertex -1.25434 11.9343 2.5
      vertex -2.11774 11.7507 2
      vertex -3.7082 11.4127 2.5
    endloop
  endfacet
  facet normal -0.207911 0.978148 0
    outer loop
      vertex -2.11774 11.7507 2
      vertex -1.25434 11.9343 2.5
      vertex -1.25434 11.9343 2
    endloop
  endfacet
  facet normal -0.207912 0.978148 0
    outer loop
      vertex -3.7082 11.4127 2.5
      vertex -2.11774 11.7507 2
      vertex -3.7082 11.4127 2
    endloop
  endfacet
  facet normal 0.994522 -0.104528 0
    outer loop
      vertex 12 0 2.5
      vertex 11.83 -1.61709 2
      vertex 12 0 2
    endloop
  endfacet
  facet normal 0.994522 -0.104529 6.85888e-07
    outer loop
      vertex 11.7378 -2.49494 2.5
      vertex 11.83 -1.61709 2
      vertex 12 0 2.5
    endloop
  endfacet
  facet normal 0.994522 -0.104529 0
    outer loop
      vertex 11.83 -1.61709 2
      vertex 11.7378 -2.49494 2.5
      vertex 11.7378 -2.49494 2
    endloop
  endfacet
  facet normal 0.994522 -0.104529 0
    outer loop
      vertex 11.9077 -0.877849 -2
      vertex 12 0 -2.5
      vertex 12 0 -2
    endloop
  endfacet
  facet normal 0.994522 -0.104528 0
    outer loop
      vertex 11.7378 -2.49494 -2.5
      vertex 11.9077 -0.877849 -2
      vertex 11.7378 -2.49494 -2
    endloop
  endfacet
  facet normal 0.994522 -0.104529 6.60967e-07
    outer loop
      vertex 11.9077 -0.877849 -2
      vertex 11.7378 -2.49494 -2.5
      vertex 12 0 -2.5
    endloop
  endfacet
  facet normal 0 0 -1
    outer loop
      vertex 1.5 0 -2.5
      vertex 12 0 -2.5
      vertex 11.7378 -2.49494 -2.5
    endloop
  endfacet
  facet normal 0 0 -1
    outer loop
      vertex 1.5 0 -2.5
      vertex 11.7378 -2.49494 -2.5
      vertex 10.9625 -4.88084 -2.5
    endloop
  endfacet
  facet normal 0 0 -1
    outer loop
      vertex 12 0 -2.5
      vertex 1.5 0 -2.5
      vertex 11.7378 2.49494 -2.5
    endloop
  endfacet
  facet normal 0 0 -1
    outer loop
      vertex 1.5 0 -2.5
      vertex 10.9625 -4.88084 -2.5
      vertex 9.7082 -7.05342 -2.5
    endloop
  endfacet
  facet normal -0 0 -1
    outer loop
      vertex 11.7378 2.49494 -2.5
      vertex 1.5 0 -2.5
      vertex 10.9625 4.88084 -2.5
    endloop
  endfacet
  facet normal 0 0 -1
    outer loop
      vertex 0.463525 -1.42658 -2.5
      vertex 9.7082 -7.05342 -2.5
      vertex 8.02957 -8.91774 -2.5
    endloop
  endfacet
  facet normal -0 0 -1
    outer loop
      vertex 10.9625 4.88084 -2.5
      vertex 1.5 0 -2.5
      vertex 9.7082 7.05342 -2.5
    endloop
  endfacet
  facet normal 0 0 -1
    outer loop
      vertex 0.463525 -1.42658 -2.5
      vertex 8.02957 -8.91774 -2.5
      vertex 6 -10.3923 -2.5
    endloop
  endfacet
  facet normal 0 0 -1
    outer loop
      vertex 0.463525 1.42658 -2.5
      vertex 9.7082 7.05342 -2.5
      vertex 1.5 0 -2.5
    endloop
  endfacet
  facet normal 0 0 -1
    outer loop
      vertex 0.463525 -1.42658 -2.5
      vertex 6 -10.3923 -2.5
      vertex 3.7082 -11.4127 -2.5
    endloop
  endfacet
  facet normal -0 0 -1
    outer loop
      vertex 9.7082 7.05342 -2.5
      vertex 0.463525 1.42658 -2.5
      vertex 8.02957 8.91774 -2.5
    endloop
  endfacet
  facet normal -0 0 -1
    outer loop
      vertex 8.02957 8.91774 -2.5
      vertex 0.463525 1.42658 -2.5
      vertex 6 10.3923 -2.5
    endloop
  endfacet
  facet normal 0 0 -1
    outer loop
      vertex 0.463525 -1.42658 -2.5
      vertex 3.7082 -11.4127 -2.5
      vertex 1.25434 -11.9343 -2.5
    endloop
  endfacet
  facet normal 0 0 -1
    outer loop
      vertex 9.7082 -7.05342 -2.5
      vertex 0.463525 -1.42658 -2.5
      vertex 1.5 0 -2.5
    endloop
  endfacet
  facet normal 0 0 -1
    outer loop
      vertex -1.25434 -11.9343 -2.5
      vertex 0.463525 -1.42658 -2.5
      vertex 1.25434 -11.9343 -2.5
    endloop
  endfacet
  facet normal -0 0 -1
    outer loop
      vertex 0.463525 -1.42658 -2.5
      vertex -3.7082 -11.4127 -2.5
      vertex -1.21352 -0.881678 -2.5
    endloop
  endfacet
  facet normal 0 0 -1
    outer loop
      vertex -3.7082 -11.4127 -2.5
      vertex 0.463525 -1.42658 -2.5
      vertex -1.25434 -11.9343 -2.5
    endloop
  endfacet
  facet normal -0 0 -1
    outer loop
      vertex 6 10.3923 -2.5
      vertex 0.463525 1.42658 -2.5
      vertex 3.7082 11.4127 -2.5
    endloop
  endfacet
  facet normal -0 0 -1
    outer loop
      vertex 3.7082 11.4127 -2.5
      vertex 0.463525 1.42658 -2.5
      vertex 1.25434 11.9343 -2.5
    endloop
  endfacet
  facet normal 0 0 -1
    outer loop
      vertex -3.7082 11.4127 -2.5
      vertex 0.463525 1.42658 -2.5
      vertex -1.21352 0.881678 -2.5
    endloop
  endfacet
  facet normal 0 0 -1
    outer loop
      vertex 0.463525 1.42658 -2.5
      vertex -1.25434 11.9343 -2.5
      vertex 1.25434 11.9343 -2.5
    endloop
  endfacet
  facet normal 0 0 -1
    outer loop
      vertex -6 -10.3923 -2.5
      vertex -1.21352 -0.881678 -2.5
      vertex -3.7082 -11.4127 -2.5
    endloop
  endfacet
  facet normal 0 0 -1
    outer loop
      vertex -8.02957 -8.91774 -2.5
      vertex -1.21352 -0.881678 -2.5
      vertex -6 -10.3923 -2.5
    endloop
  endfacet
  facet normal 0 0 -1
    outer loop
      vertex 0.463525 1.42658 -2.5
      vertex -3.7082 11.4127 -2.5
      vertex -1.25434 11.9343 -2.5
    endloop
  endfacet
  facet normal 0 0 -1
    outer loop
      vertex -1.21352 0.881678 -2.5
      vertex -6 10.3923 -2.5
      vertex -3.7082 11.4127 -2.5
    endloop
  endfacet
  facet normal 0 0 -1
    outer loop
      vertex -9.7082 -7.05342 -2.5
      vertex -1.21352 -0.881678 -2.5
      vertex -8.02957 -8.91774 -2.5
    endloop
  endfacet
  facet normal 0 0 -1
    outer loop
      vertex -10.9625 -4.88084 -2.5
      vertex -1.21352 -0.881678 -2.5
      vertex -9.7082 -7.05342 -2.5
    endloop
  endfacet
  facet normal 0 0 -1
    outer loop
      vertex -1.21352 0.881678 -2.5
      vertex -8.02957 8.91774 -2.5
      vertex -6 10.3923 -2.5
    endloop
  endfacet
  facet normal 0 0 -1
    outer loop
      vertex -11.7378 -2.49494 -2.5
      vertex -1.21352 -0.881678 -2.5
      vertex -10.9625 -4.88084 -2.5
    endloop
  endfacet
  facet normal 0 0 -1
    outer loop
      vertex -1.21352 0.881678 -2.5
      vertex -9.7082 7.05342 -2.5
      vertex -8.02957 8.91774 -2.5
    endloop
  endfacet
  facet normal 0 0 -1
    outer loop
      vertex -12 0 -2.5
      vertex -1.21352 -0.881678 -2.5
      vertex -11.7378 -2.49494 -2.5
    endloop
  endfacet
  facet normal 0 0 -1
    outer loop
      vertex -1.21352 0.881678 -2.5
      vertex -10.9625 4.88084 -2.5
      vertex -9.7082 7.05342 -2.5
    endloop
  endfacet
  facet normal 0 0 -1
    outer loop
      vertex -1.21352 -0.881678 -2.5
      vertex -12 0 -2.5
      vertex -1.21352 0.881678 -2.5
    endloop
  endfacet
  facet normal 0 0 -1
    outer loop
      vertex -1.21352 0.881678 -2.5
      vertex -11.7378 2.49494 -2.5
      vertex -10.9625 4.88084 -2.5
    endloop
  endfacet
  facet normal -0 0 -1
    outer loop
      vertex -1.21352 0.881678 -2.5
      vertex -12 0 -2.5
      vertex -11.7378 2.49494 -2.5
    endloop
  endfacet
  facet normal 0.207912 -0.978148 0
    outer loop
      vertex 1.25434 -11.9343 -2.5
      vertex 2.84481 -11.5962 -2
      vertex 1.25434 -11.9343 -2
    endloop
  endfacet
  facet normal 0.207912 -0.978148 1.01649e-07
    outer loop
      vertex 3.7082 -11.4127 -2.5
      vertex 2.84481 -11.5962 -2
      vertex 1.25434 -11.9343 -2.5
    endloop
  endfacet
  facet normal 0.207912 -0.978148 0
    outer loop
      vertex 2.84481 -11.5962 -2
      vertex 3.7082 -11.4127 -2.5
      vertex 3.7082 -11.4127 -2
    endloop
  endfacet
  facet normal 0.207912 -0.978148 4.98209e-07
    outer loop
      vertex 1.25434 -11.9343 2.5
      vertex 2.11774 -11.7507 2
      vertex 3.7082 -11.4127 2.5
    endloop
  endfacet
  facet normal 0.207911 -0.978148 0
    outer loop
      vertex 2.11774 -11.7507 2
      vertex 1.25434 -11.9343 2.5
      vertex 1.25434 -11.9343 2
    endloop
  endfacet
  facet normal 0.207912 -0.978148 0
    outer loop
      vertex 3.7082 -11.4127 2.5
      vertex 2.11774 -11.7507 2
      vertex 3.7082 -11.4127 2
    endloop
  endfacet
  facet normal 0.951057 -0.309017 1.47351e-07
    outer loop
      vertex 11.7378 -2.49494 2.5
      vertex 11.2353 -4.04136 2
      vertex 11.7378 -2.49494 2
    endloop
  endfacet
  facet normal 0.951057 -0.309017 7.59278e-07
    outer loop
      vertex 10.9625 -4.88084 2.5
      vertex 11.2353 -4.04136 2
      vertex 11.7378 -2.49494 2.5
    endloop
  endfacet
  facet normal 0.951056 -0.309017 0
    outer loop
      vertex 11.2353 -4.04136 2
      vertex 10.9625 -4.88084 2.5
      vertex 10.9625 -4.88084 2
    endloop
  endfacet
  facet normal 0.951056 -0.309017 -1.47351e-07
    outer loop
      vertex 11.465 -3.33442 -2
      vertex 11.7378 -2.49494 -2.5
      vertex 11.7378 -2.49494 -2
    endloop
  endfacet
  facet normal 0.951057 -0.309017 0
    outer loop
      vertex 10.9625 -4.88084 -2.5
      vertex 11.465 -3.33442 -2
      vertex 10.9625 -4.88084 -2
    endloop
  endfacet
  facet normal 0.951057 -0.309017 6.11927e-07
    outer loop
      vertex 11.465 -3.33442 -2
      vertex 10.9625 -4.88084 -2.5
      vertex 11.7378 -2.49494 -2.5
    endloop
  endfacet
  facet normal -0.866025 -0.5 0
    outer loop
      vertex -10.5212 -5.64527 2
      vertex -10.9625 -4.88084 2.5
      vertex -10.9625 -4.88084 2
    endloop
  endfacet
  facet normal -0.866025 -0.5 -4.76837e-07
    outer loop
      vertex -9.7082 -7.05342 2.5
      vertex -10.5212 -5.64527 2
      vertex -9.7082 -7.05342 2
    endloop
  endfacet
  facet normal -0.866025 -0.5 2.67851e-08
    outer loop
      vertex -10.5212 -5.64527 2
      vertex -9.7082 -7.05342 2.5
      vertex -10.9625 -4.88084 2.5
    endloop
  endfacet
  facet normal -0.866025 -0.5 0
    outer loop
      vertex -10.9625 -4.88084 -2.5
      vertex -10.1495 -6.289 -2
      vertex -10.9625 -4.88084 -2
    endloop
  endfacet
  facet normal -0.866025 -0.5 5.03622e-07
    outer loop
      vertex -9.7082 -7.05342 -2.5
      vertex -10.1495 -6.289 -2
      vertex -10.9625 -4.88084 -2.5
    endloop
  endfacet
  facet normal -0.866025 -0.5 4.76837e-07
    outer loop
      vertex -10.1495 -6.289 -2
      vertex -9.7082 -7.05342 -2.5
      vertex -9.7082 -7.05342 -2
    endloop
  endfacet
  facet normal 0.587786 -0.809017 0
    outer loop
      vertex 6.71411 -9.87348 2
      vertex 6 -10.3923 2.5
      vertex 6 -10.3923 2
    endloop
  endfacet
  facet normal 0.587785 -0.809017 -4.25722e-07
    outer loop
      vertex 6 -10.3923 2.5
      vertex 6.71411 -9.87348 2
      vertex 8.02957 -8.91774 2.5
    endloop
  endfacet
  facet normal 0.587786 -0.809017 -1.12111e-06
    outer loop
      vertex 8.02957 -8.91774 2
      vertex 8.02957 -8.91774 2.5
      vertex 6.71411 -9.87348 2
    endloop
  endfacet
  facet normal 0.587786 -0.809017 1.12111e-06
    outer loop
      vertex 8.02957 -8.91774 -2.5
      vertex 8.02957 -8.91774 -2
      vertex 7.31546 -9.43657 -2
    endloop
  endfacet
  facet normal 0.587786 -0.809017 0
    outer loop
      vertex 6 -10.3923 -2.5
      vertex 7.31546 -9.43657 -2
      vertex 6 -10.3923 -2
    endloop
  endfacet
  facet normal 0.587785 -0.809017 6.9539e-07
    outer loop
      vertex 8.02957 -8.91774 -2.5
      vertex 7.31546 -9.43657 -2
      vertex 6 -10.3923 -2.5
    endloop
  endfacet
  facet normal 0.406737 -0.913545 2.04665e-07
    outer loop
      vertex 4.51458 -11.0537 2
      vertex 6 -10.3923 2.5
      vertex 3.7082 -11.4127 2.5
    endloop
  endfacet
  facet normal 0.406737 -0.913545 -3.87895e-07
    outer loop
      vertex 6 -10.3923 2.5
      vertex 4.51458 -11.0537 2
      vertex 6 -10.3923 2
    endloop
  endfacet
  facet normal 0.406737 -0.913545 3.87894e-07
    outer loop
      vertex 3.7082 -11.4127 2.5
      vertex 3.7082 -11.4127 2
      vertex 4.51458 -11.0537 2
    endloop
  endfacet
  facet normal 0.406736 -0.913546 3.87894e-07
    outer loop
      vertex 6 -10.3923 -2.5
      vertex 6 -10.3923 -2
      vertex 5.19363 -10.7513 -2
    endloop
  endfacet
  facet normal 0.406737 -0.913545 -3.87894e-07
    outer loop
      vertex 3.7082 -11.4127 -2
      vertex 3.7082 -11.4127 -2.5
      vertex 5.19363 -10.7513 -2
    endloop
  endfacet
  facet normal 0.406737 -0.913545 5.92559e-07
    outer loop
      vertex 6 -10.3923 -2.5
      vertex 5.19363 -10.7513 -2
      vertex 3.7082 -11.4127 -2.5
    endloop
  endfacet
  facet normal -0.207912 -0.978148 0
    outer loop
      vertex -2.84481 -11.5962 2
      vertex -3.7082 -11.4127 2.5
      vertex -3.7082 -11.4127 2
    endloop
  endfacet
  facet normal -0.207912 -0.978148 -1.01649e-07
    outer loop
      vertex -3.7082 -11.4127 2.5
      vertex -2.84481 -11.5962 2
      vertex -1.25434 -11.9343 2.5
    endloop
  endfacet
  facet normal -0.207912 -0.978148 -0
    outer loop
      vertex -1.25434 -11.9343 2.5
      vertex -2.84481 -11.5962 2
      vertex -1.25434 -11.9343 2
    endloop
  endfacet
  facet normal -0.207912 -0.978148 -0
    outer loop
      vertex -3.7082 -11.4127 -2
      vertex -3.7082 -11.4127 -2.5
      vertex -2.11774 -11.7507 -2
    endloop
  endfacet
  facet normal -0.207912 -0.978148 -4.98209e-07
    outer loop
      vertex -1.25434 -11.9343 -2.5
      vertex -2.11774 -11.7507 -2
      vertex -3.7082 -11.4127 -2.5
    endloop
  endfacet
  facet normal -0.207911 -0.978148 0
    outer loop
      vertex -2.11774 -11.7507 -2
      vertex -1.25434 -11.9343 -2.5
      vertex -1.25434 -11.9343 -2
    endloop
  endfacet
  facet normal -0.743145 -0.669131 0
    outer loop
      vertex -9.7082 -7.05342 -2.5
      vertex -8.6202 -8.26178 -2
      vertex -9.7082 -7.05342 -2
    endloop
  endfacet
  facet normal -0.743145 -0.669131 -6.53818e-07
    outer loop
      vertex -8.02957 -8.91774 -2.5
      vertex -8.6202 -8.26178 -2
      vertex -9.7082 -7.05342 -2.5
    endloop
  endfacet
  facet normal -0.743144 -0.669131 0
    outer loop
      vertex -8.6202 -8.26178 -2
      vertex -8.02957 -8.91774 -2.5
      vertex -8.02957 -8.91774 -2
    endloop
  endfacet
  facet normal -0.743144 -0.669131 0
    outer loop
      vertex -9.11757 -7.70938 2
      vertex -9.7082 -7.05342 2.5
      vertex -9.7082 -7.05342 2
    endloop
  endfacet
  facet normal -0.743145 -0.669131 -0
    outer loop
      vertex -8.02957 -8.91774 2.5
      vertex -9.11757 -7.70938 2
      vertex -8.02957 -8.91774 2
    endloop
  endfacet
  facet normal -0.743145 -0.669131 -6.53818e-07
    outer loop
      vertex -9.11757 -7.70938 2
      vertex -8.02957 -8.91774 2.5
      vertex -9.7082 -7.05342 2.5
    endloop
  endfacet
  facet normal -0.951057 -0.309017 -1.47351e-07
    outer loop
      vertex -11.7378 -2.49494 -2.5
      vertex -11.2353 -4.04136 -2
      vertex -11.7378 -2.49494 -2
    endloop
  endfacet
  facet normal -0.951057 -0.309017 -7.59278e-07
    outer loop
      vertex -10.9625 -4.88084 -2.5
      vertex -11.2353 -4.04136 -2
      vertex -11.7378 -2.49494 -2.5
    endloop
  endfacet
  facet normal -0.951056 -0.309017 0
    outer loop
      vertex -11.2353 -4.04136 -2
      vertex -10.9625 -4.88084 -2.5
      vertex -10.9625 -4.88084 -2
    endloop
  endfacet
  facet normal -0.951056 -0.309017 1.47351e-07
    outer loop
      vertex -11.465 -3.33442 2
      vertex -11.7378 -2.49494 2.5
      vertex -11.7378 -2.49494 2
    endloop
  endfacet
  facet normal -0.951057 -0.309017 -0
    outer loop
      vertex -10.9625 -4.88084 2.5
      vertex -11.465 -3.33442 2
      vertex -10.9625 -4.88084 2
    endloop
  endfacet
  facet normal -0.951057 -0.309017 -6.11927e-07
    outer loop
      vertex -11.465 -3.33442 2
      vertex -10.9625 -4.88084 2.5
      vertex -11.7378 -2.49494 2.5
    endloop
  endfacet
  facet normal -0.994522 -0.104528 0
    outer loop
      vertex -12 0 -2.5
      vertex -11.83 -1.61709 -2
      vertex -12 0 -2
    endloop
  endfacet
  facet normal -0.994522 -0.104529 -6.85888e-07
    outer loop
      vertex -11.7378 -2.49494 -2.5
      vertex -11.83 -1.61709 -2
      vertex -12 0 -2.5
    endloop
  endfacet
  facet normal -0.994522 -0.104529 0
    outer loop
      vertex -11.83 -1.61709 -2
      vertex -11.7378 -2.49494 -2.5
      vertex -11.7378 -2.49494 -2
    endloop
  endfacet
  facet normal -0.994522 -0.104529 0
    outer loop
      vertex -11.9077 -0.877849 2
      vertex -12 0 2.5
      vertex -12 0 2
    endloop
  endfacet
  facet normal -0.994522 -0.104528 -0
    outer loop
      vertex -11.7378 -2.49494 2.5
      vertex -11.9077 -0.877849 2
      vertex -11.7378 -2.49494 2
    endloop
  endfacet
  facet normal -0.994522 -0.104529 -6.60967e-07
    outer loop
      vertex -11.9077 -0.877849 2
      vertex -11.7378 -2.49494 2.5
      vertex -12 0 2.5
    endloop
  endfacet
  facet normal 0.743144 -0.669131 0
    outer loop
      vertex 9.11757 -7.70938 -2
      vertex 9.7082 -7.05342 -2.5
      vertex 9.7082 -7.05342 -2
    endloop
  endfacet
  facet normal 0.743145 -0.669131 0
    outer loop
      vertex 8.02957 -8.91774 -2.5
      vertex 9.11757 -7.70938 -2
      vertex 8.02957 -8.91774 -2
    endloop
  endfacet
  facet normal 0.743145 -0.669131 6.53818e-07
    outer loop
      vertex 9.11757 -7.70938 -2
      vertex 8.02957 -8.91774 -2.5
      vertex 9.7082 -7.05342 -2.5
    endloop
  endfacet
  facet normal 0.743145 -0.669131 0
    outer loop
      vertex 9.7082 -7.05342 2.5
      vertex 8.6202 -8.26178 2
      vertex 9.7082 -7.05342 2
    endloop
  endfacet
  facet normal 0.743145 -0.669131 6.53818e-07
    outer loop
      vertex 8.02957 -8.91774 2.5
      vertex 8.6202 -8.26178 2
      vertex 9.7082 -7.05342 2.5
    endloop
  endfacet
  facet normal 0.743144 -0.669131 0
    outer loop
      vertex 8.6202 -8.26178 2
      vertex 8.02957 -8.91774 2.5
      vertex 8.02957 -8.91774 2
    endloop
  endfacet
  facet normal -0.406736 -0.913546 -3.87894e-07
    outer loop
      vertex -5.19363 -10.7513 2
      vertex -6 -10.3923 2.5
      vertex -6 -10.3923 2
    endloop
  endfacet
  facet normal -0.406737 -0.913545 -5.92559e-07
    outer loop
      vertex -6 -10.3923 2.5
      vertex -5.19363 -10.7513 2
      vertex -3.7082 -11.4127 2.5
    endloop
  endfacet
  facet normal -0.406737 -0.913545 3.87894e-07
    outer loop
      vertex -3.7082 -11.4127 2
      vertex -3.7082 -11.4127 2.5
      vertex -5.19363 -10.7513 2
    endloop
  endfacet
  facet normal -0.406737 -0.913545 -3.87894e-07
    outer loop
      vertex -3.7082 -11.4127 -2.5
      vertex -3.7082 -11.4127 -2
      vertex -4.51458 -11.0537 -2
    endloop
  endfacet
  facet normal -0.406737 -0.913545 3.87895e-07
    outer loop
      vertex -6 -10.3923 -2.5
      vertex -4.51458 -11.0537 -2
      vertex -6 -10.3923 -2
    endloop
  endfacet
  facet normal -0.406737 -0.913545 -2.04665e-07
    outer loop
      vertex -3.7082 -11.4127 -2.5
      vertex -4.51458 -11.0537 -2
      vertex -6 -10.3923 -2.5
    endloop
  endfacet
  facet normal -0.587786 -0.809017 1.12111e-06
    outer loop
      vertex -8.02957 -8.91774 -2
      vertex -8.02957 -8.91774 -2.5
      vertex -6.71411 -9.87348 -2
    endloop
  endfacet
  facet normal -0.587785 -0.809017 4.25722e-07
    outer loop
      vertex -6 -10.3923 -2.5
      vertex -6.71411 -9.87348 -2
      vertex -8.02957 -8.91774 -2.5
    endloop
  endfacet
  facet normal -0.587786 -0.809017 0
    outer loop
      vertex -6.71411 -9.87348 -2
      vertex -6 -10.3923 -2.5
      vertex -6 -10.3923 -2
    endloop
  endfacet
  facet normal -0.587785 -0.809017 -6.9539e-07
    outer loop
      vertex -7.31546 -9.43657 2
      vertex -6 -10.3923 2.5
      vertex -8.02957 -8.91774 2.5
    endloop
  endfacet
  facet normal -0.587786 -0.809017 -0
    outer loop
      vertex -6 -10.3923 2.5
      vertex -7.31546 -9.43657 2
      vertex -6 -10.3923 2
    endloop
  endfacet
  facet normal -0.587786 -0.809017 -1.12111e-06
    outer loop
      vertex -8.02957 -8.91774 2.5
      vertex -8.02957 -8.91774 2
      vertex -7.31546 -9.43657 2
    endloop
  endfacet
  facet normal -0.44672 0.0469524 -0.893441
    outer loop
      vertex -10 0 1
      vertex -11.83 1.61709 2
      vertex -9.78148 2.07912 1
    endloop
  endfacet
  facet normal -0.44672 0.0469523 -0.893441
    outer loop
      vertex -11.83 1.61709 2
      vertex -10 0 1
      vertex -12 0 2
    endloop
  endfacet
  facet normal -0.44672 0.0469527 -0.893441
    outer loop
      vertex -9.78148 2.07912 1
      vertex -11.83 1.61709 2
      vertex -11.7378 2.49494 2
    endloop
  endfacet
  facet normal -0.994522 0.104529 0
    outer loop
      vertex -10 0 -1
      vertex -9.78148 2.07912 1
      vertex -9.78148 2.07912 -1
    endloop
  endfacet
  facet normal -0.994522 0.104529 0
    outer loop
      vertex -9.78148 2.07912 1
      vertex -10 0 -1
      vertex -10 0 1
    endloop
  endfacet
  facet normal -0.44672 0.0469524 0.893441
    outer loop
      vertex -11.9077 0.877849 -2
      vertex -12 0 -2
      vertex -10 0 -1
    endloop
  endfacet
  facet normal -0.44672 0.0469524 0.893441
    outer loop
      vertex -11.9077 0.877849 -2
      vertex -9.78148 2.07912 -1
      vertex -11.7378 2.49494 -2
    endloop
  endfacet
  facet normal -0.44672 0.0469524 0.893441
    outer loop
      vertex -9.78148 2.07912 -1
      vertex -11.9077 0.877849 -2
      vertex -10 0 -1
    endloop
  endfacet
  facet normal -0.427197 0.138804 -0.893441
    outer loop
      vertex -9.78148 2.07912 1
      vertex -11.2353 4.04136 2
      vertex -9.13545 4.06737 1
    endloop
  endfacet
  facet normal -0.427197 0.138804 -0.893441
    outer loop
      vertex -11.2353 4.04136 2
      vertex -9.78148 2.07912 1
      vertex -11.7378 2.49494 2
    endloop
  endfacet
  facet normal -0.427196 0.138805 -0.893441
    outer loop
      vertex -9.13545 4.06737 1
      vertex -11.2353 4.04136 2
      vertex -10.9625 4.88084 2
    endloop
  endfacet
  facet normal -0.951057 0.309017 0
    outer loop
      vertex -9.78148 2.07912 -1
      vertex -9.13545 4.06737 1
      vertex -9.13545 4.06737 -1
    endloop
  endfacet
  facet normal -0.951057 0.309017 0
    outer loop
      vertex -9.13545 4.06737 1
      vertex -9.78148 2.07912 -1
      vertex -9.78148 2.07912 1
    endloop
  endfacet
  facet normal -0.427196 0.138805 0.893441
    outer loop
      vertex -11.465 3.33442 -2
      vertex -11.7378 2.49494 -2
      vertex -9.78148 2.07912 -1
    endloop
  endfacet
  facet normal -0.427197 0.138804 0.893441
    outer loop
      vertex -11.465 3.33442 -2
      vertex -9.13545 4.06737 -1
      vertex -10.9625 4.88084 -2
    endloop
  endfacet
  facet normal -0.427197 0.138805 0.893441
    outer loop
      vertex -9.13545 4.06737 -1
      vertex -11.465 3.33442 -2
      vertex -9.78148 2.07912 -1
    endloop
  endfacet
  facet normal -0.389002 0.22459 -0.893441
    outer loop
      vertex -9.13545 4.06737 1
      vertex -10.1495 6.289 2
      vertex -8.09017 5.87785 1
    endloop
  endfacet
  facet normal -0.389002 0.22459 -0.893441
    outer loop
      vertex -10.1495 6.289 2
      vertex -9.13545 4.06737 1
      vertex -10.9625 4.88084 2
    endloop
  endfacet
  facet normal -0.389002 0.22459 -0.893441
    outer loop
      vertex -8.09017 5.87785 1
      vertex -10.1495 6.289 2
      vertex -9.7082 7.05342 2
    endloop
  endfacet
  facet normal -0.866026 0.5 0
    outer loop
      vertex -9.13545 4.06737 -1
      vertex -8.09017 5.87785 1
      vertex -8.09017 5.87785 -1
    endloop
  endfacet
  facet normal -0.866026 0.5 0
    outer loop
      vertex -8.09017 5.87785 1
      vertex -9.13545 4.06737 -1
      vertex -9.13545 4.06737 1
    endloop
  endfacet
  facet normal -0.389002 0.224591 0.893441
    outer loop
      vertex -10.9625 4.88084 -2
      vertex -9.13545 4.06737 -1
      vertex -10.5212 5.64527 -2
    endloop
  endfacet
  facet normal -0.389002 0.22459 0.893441
    outer loop
      vertex -10.5212 5.64527 -2
      vertex -8.09017 5.87785 -1
      vertex -9.7082 7.05342 -2
    endloop
  endfacet
  facet normal -0.389002 0.22459 0.893441
    outer loop
      vertex -8.09017 5.87785 -1
      vertex -10.5212 5.64527 -2
      vertex -9.13545 4.06737 -1
    endloop
  endfacet
  facet normal -0.333806 0.300561 -0.893441
    outer loop
      vertex -8.09017 5.87785 1
      vertex -8.6202 8.26178 2
      vertex -6.69131 7.43145 1
    endloop
  endfacet
  facet normal -0.333807 0.300561 -0.893441
    outer loop
      vertex -9.7082 7.05342 2
      vertex -8.6202 8.26178 2
      vertex -8.09017 5.87785 1
    endloop
  endfacet
  facet normal -0.333806 0.300561 -0.893441
    outer loop
      vertex -8.6202 8.26178 2
      vertex -8.02957 8.91774 2
      vertex -6.69131 7.43145 1
    endloop
  endfacet
  facet normal -0.743145 0.669131 0
    outer loop
      vertex -8.09017 5.87785 -1
      vertex -6.69131 7.43145 1
      vertex -6.69131 7.43145 -1
    endloop
  endfacet
  facet normal -0.743145 0.669131 0
    outer loop
      vertex -6.69131 7.43145 1
      vertex -8.09017 5.87785 -1
      vertex -8.09017 5.87785 1
    endloop
  endfacet
  facet normal -0.333807 0.300561 0.893441
    outer loop
      vertex -9.11757 7.70938 -2
      vertex -9.7082 7.05342 -2
      vertex -8.09017 5.87785 -1
    endloop
  endfacet
  facet normal -0.333806 0.300561 0.893441
    outer loop
      vertex -8.02957 8.91774 -2
      vertex -9.11757 7.70938 -2
      vertex -6.69131 7.43145 -1
    endloop
  endfacet
  facet normal -0.333806 0.300561 0.893441
    outer loop
      vertex -6.69131 7.43145 -1
      vertex -9.11757 7.70938 -2
      vertex -8.09017 5.87785 -1
    endloop
  endfacet
  facet normal -0.264022 0.363395 -0.893441
    outer loop
      vertex -6.69131 7.43145 1
      vertex -6.71411 9.87348 2
      vertex -5 8.66025 1
    endloop
  endfacet
  facet normal -0.264022 0.363395 -0.893441
    outer loop
      vertex -6.71411 9.87348 2
      vertex -6.69131 7.43145 1
      vertex -8.02957 8.91774 2
    endloop
  endfacet
  facet normal -0.264022 0.363395 -0.893441
    outer loop
      vertex -5 8.66025 1
      vertex -6.71411 9.87348 2
      vertex -6 10.3923 2
    endloop
  endfacet
  facet normal -0.587785 0.809017 0
    outer loop
      vertex -5 8.66025 -1
      vertex -6.69131 7.43145 1
      vertex -5 8.66025 1
    endloop
  endfacet
  facet normal -0.587785 0.809017 0
    outer loop
      vertex -6.69131 7.43145 1
      vertex -5 8.66025 -1
      vertex -6.69131 7.43145 -1
    endloop
  endfacet
  facet normal -0.264022 0.363395 0.893441
    outer loop
      vertex -7.31546 9.43657 -2
      vertex -8.02957 8.91774 -2
      vertex -6.69131 7.43145 -1
    endloop
  endfacet
  facet normal -0.264022 0.363395 0.893441
    outer loop
      vertex -7.31546 9.43657 -2
      vertex -5 8.66025 -1
      vertex -6 10.3923 -2
    endloop
  endfacet
  facet normal -0.264022 0.363395 0.893441
    outer loop
      vertex -5 8.66025 -1
      vertex -7.31546 9.43657 -2
      vertex -6.69131 7.43145 -1
    endloop
  endfacet
  facet normal -0.182698 0.410347 -0.893441
    outer loop
      vertex -5 8.66025 1
      vertex -4.51458 11.0537 2
      vertex -3.09017 9.51056 1
    endloop
  endfacet
  facet normal -0.182699 0.410347 -0.893441
    outer loop
      vertex -4.51458 11.0537 2
      vertex -5 8.66025 1
      vertex -6 10.3923 2
    endloop
  endfacet
  facet normal -0.182698 0.410347 -0.893441
    outer loop
      vertex -3.09017 9.51056 1
      vertex -4.51458 11.0537 2
      vertex -3.7082 11.4127 2
    endloop
  endfacet
  facet normal -0.406737 0.913545 0
    outer loop
      vertex -3.09017 9.51056 -1
      vertex -5 8.66025 1
      vertex -3.09017 9.51056 1
    endloop
  endfacet
  facet normal -0.406737 0.913545 0
    outer loop
      vertex -5 8.66025 1
      vertex -3.09017 9.51056 -1
      vertex -5 8.66025 -1
    endloop
  endfacet
  facet normal -0.182698 0.410347 0.893441
    outer loop
      vertex -6 10.3923 -2
      vertex -5 8.66025 -1
      vertex -5.19363 10.7513 -2
    endloop
  endfacet
  facet normal -0.182699 0.410347 0.893441
    outer loop
      vertex -5.19363 10.7513 -2
      vertex -3.09017 9.51056 -1
      vertex -3.7082 11.4127 -2
    endloop
  endfacet
  facet normal -0.182698 0.410347 0.893441
    outer loop
      vertex -3.09017 9.51056 -1
      vertex -5.19363 10.7513 -2
      vertex -5 8.66025 -1
    endloop
  endfacet
  facet normal -0.0933899 0.439365 -0.893441
    outer loop
      vertex -3.09017 9.51056 1
      vertex -2.11774 11.7507 2
      vertex -1.04528 9.94522 1
    endloop
  endfacet
  facet normal -0.0933899 0.439365 -0.893441
    outer loop
      vertex -3.09017 9.51056 1
      vertex -3.7082 11.4127 2
      vertex -2.11774 11.7507 2
    endloop
  endfacet
  facet normal -0.0933901 0.439365 -0.893441
    outer loop
      vertex -1.04528 9.94522 1
      vertex -2.11774 11.7507 2
      vertex -1.25434 11.9343 2
    endloop
  endfacet
  facet normal -0.207911 0.978148 0
    outer loop
      vertex -1.04528 9.94522 -1
      vertex -3.09017 9.51056 1
      vertex -1.04528 9.94522 1
    endloop
  endfacet
  facet normal -0.207911 0.978148 0
    outer loop
      vertex -3.09017 9.51056 1
      vertex -1.04528 9.94522 -1
      vertex -3.09017 9.51056 -1
    endloop
  endfacet
  facet normal -0.0933901 0.439365 0.893441
    outer loop
      vertex -3.7082 11.4127 -2
      vertex -3.09017 9.51056 -1
      vertex -2.84481 11.5962 -2
    endloop
  endfacet
  facet normal -0.0933899 0.439365 0.893441
    outer loop
      vertex -2.84481 11.5962 -2
      vertex -1.04528 9.94522 -1
      vertex -1.25434 11.9343 -2
    endloop
  endfacet
  facet normal -0.0933899 0.439365 0.893441
    outer loop
      vertex -1.04528 9.94522 -1
      vertex -2.84481 11.5962 -2
      vertex -3.09017 9.51056 -1
    endloop
  endfacet
  facet normal 0 0.449181 -0.893441
    outer loop
      vertex -1.04528 9.94522 1
      vertex 1.25434 11.9343 2
      vertex 1.04528 9.94522 1
    endloop
  endfacet
  facet normal 0 0.449181 -0.893441
    outer loop
      vertex 1.25434 11.9343 2
      vertex -1.04528 9.94522 1
      vertex -1.25434 11.9343 2
    endloop
  endfacet
  facet normal 0 1 -0
    outer loop
      vertex 1.04528 9.94522 -1
      vertex -1.04528 9.94522 1
      vertex 1.04528 9.94522 1
    endloop
  endfacet
  facet normal 0 1 0
    outer loop
      vertex -1.04528 9.94522 1
      vertex 1.04528 9.94522 -1
      vertex -1.04528 9.94522 -1
    endloop
  endfacet
  facet normal 0 0.449181 0.893441
    outer loop
      vertex 1.25434 11.9343 -2
      vertex -1.04528 9.94522 -1
      vertex 1.04528 9.94522 -1
    endloop
  endfacet
  facet normal 0 0.449181 0.893441
    outer loop
      vertex -1.04528 9.94522 -1
      vertex 1.25434 11.9343 -2
      vertex -1.25434 11.9343 -2
    endloop
  endfacet
  facet normal 0.0933899 0.439365 -0.893441
    outer loop
      vertex 1.04528 9.94522 1
      vertex 2.84481 11.5962 2
      vertex 3.09017 9.51056 1
    endloop
  endfacet
  facet normal 0.0933899 0.439365 -0.893441
    outer loop
      vertex 2.84481 11.5962 2
      vertex 1.04528 9.94522 1
      vertex 1.25434 11.9343 2
    endloop
  endfacet
  facet normal 0.0933901 0.439365 -0.893441
    outer loop
      vertex 3.7082 11.4127 2
      vertex 3.09017 9.51056 1
      vertex 2.84481 11.5962 2
    endloop
  endfacet
  facet normal 0.207911 0.978148 -0
    outer loop
      vertex 3.09017 9.51056 -1
      vertex 1.04528 9.94522 1
      vertex 3.09017 9.51056 1
    endloop
  endfacet
  facet normal 0.207911 0.978148 0
    outer loop
      vertex 1.04528 9.94522 1
      vertex 3.09017 9.51056 -1
      vertex 1.04528 9.94522 -1
    endloop
  endfacet
  facet normal 0.0933901 0.439365 0.893441
    outer loop
      vertex 1.25434 11.9343 -2
      vertex 1.04528 9.94522 -1
      vertex 2.11774 11.7507 -2
    endloop
  endfacet
  facet normal 0.0933899 0.439365 0.893441
    outer loop
      vertex 2.11774 11.7507 -2
      vertex 3.09017 9.51056 -1
      vertex 3.7082 11.4127 -2
    endloop
  endfacet
  facet normal 0.0933899 0.439365 0.893441
    outer loop
      vertex 3.09017 9.51056 -1
      vertex 2.11774 11.7507 -2
      vertex 1.04528 9.94522 -1
    endloop
  endfacet
  facet normal 0.182699 0.410347 -0.893441
    outer loop
      vertex 3.09017 9.51056 1
      vertex 5.19363 10.7513 2
      vertex 5 8.66025 1
    endloop
  endfacet
  facet normal 0.182699 0.410347 -0.893441
    outer loop
      vertex 5.19363 10.7513 2
      vertex 3.09017 9.51056 1
      vertex 3.7082 11.4127 2
    endloop
  endfacet
  facet normal 0.182698 0.410347 -0.893441
    outer loop
      vertex 6 10.3923 2
      vertex 5 8.66025 1
      vertex 5.19363 10.7513 2
    endloop
  endfacet
  facet normal 0.406737 0.913545 -0
    outer loop
      vertex 5 8.66025 -1
      vertex 3.09017 9.51056 1
      vertex 5 8.66025 1
    endloop
  endfacet
  facet normal 0.406737 0.913545 0
    outer loop
      vertex 3.09017 9.51056 1
      vertex 5 8.66025 -1
      vertex 3.09017 9.51056 -1
    endloop
  endfacet
  facet normal 0.182698 0.410347 0.893441
    outer loop
      vertex 3.7082 11.4127 -2
      vertex 3.09017 9.51056 -1
      vertex 4.51458 11.0537 -2
    endloop
  endfacet
  facet normal 0.182699 0.410347 0.893441
    outer loop
      vertex 4.51458 11.0537 -2
      vertex 5 8.66025 -1
      vertex 6 10.3923 -2
    endloop
  endfacet
  facet normal 0.182698 0.410347 0.893441
    outer loop
      vertex 5 8.66025 -1
      vertex 4.51458 11.0537 -2
      vertex 3.09017 9.51056 -1
    endloop
  endfacet
  facet normal 0.264022 0.363395 -0.893441
    outer loop
      vertex 5 8.66025 1
      vertex 7.31546 9.43657 2
      vertex 6.69131 7.43145 1
    endloop
  endfacet
  facet normal 0.264022 0.363395 -0.893441
    outer loop
      vertex 7.31546 9.43657 2
      vertex 5 8.66025 1
      vertex 6 10.3923 2
    endloop
  endfacet
  facet normal 0.264022 0.363395 -0.893441
    outer loop
      vertex 8.02957 8.91774 2
      vertex 6.69131 7.43145 1
      vertex 7.31546 9.43657 2
    endloop
  endfacet
  facet normal 0.587785 0.809017 -0
    outer loop
      vertex 6.69131 7.43145 -1
      vertex 5 8.66025 1
      vertex 6.69131 7.43145 1
    endloop
  endfacet
  facet normal 0.587785 0.809017 0
    outer loop
      vertex 5 8.66025 1
      vertex 6.69131 7.43145 -1
      vertex 5 8.66025 -1
    endloop
  endfacet
  facet normal 0.264022 0.363395 0.893441
    outer loop
      vertex 6.71411 9.87348 -2
      vertex 6 10.3923 -2
      vertex 5 8.66025 -1
    endloop
  endfacet
  facet normal 0.264022 0.363395 0.893441
    outer loop
      vertex 6.71411 9.87348 -2
      vertex 6.69131 7.43145 -1
      vertex 8.02957 8.91774 -2
    endloop
  endfacet
  facet normal 0.264022 0.363395 0.893441
    outer loop
      vertex 6.69131 7.43145 -1
      vertex 6.71411 9.87348 -2
      vertex 5 8.66025 -1
    endloop
  endfacet
  facet normal 0.333806 0.300561 -0.893441
    outer loop
      vertex 6.69131 7.43145 1
      vertex 9.11757 7.70938 2
      vertex 8.09017 5.87785 1
    endloop
  endfacet
  facet normal 0.333806 0.300561 -0.893441
    outer loop
      vertex 8.02957 8.91774 2
      vertex 9.11757 7.70938 2
      vertex 6.69131 7.43145 1
    endloop
  endfacet
  facet normal 0.333807 0.300561 -0.893441
    outer loop
      vertex 9.11757 7.70938 2
      vertex 9.7082 7.05342 2
      vertex 8.09017 5.87785 1
    endloop
  endfacet
  facet normal 0.743145 0.669131 0
    outer loop
      vertex 8.09017 5.87785 1
      vertex 6.69131 7.43145 -1
      vertex 6.69131 7.43145 1
    endloop
  endfacet
  facet normal 0.743145 0.669131 0
    outer loop
      vertex 6.69131 7.43145 -1
      vertex 8.09017 5.87785 1
      vertex 8.09017 5.87785 -1
    endloop
  endfacet
  facet normal 0.333806 0.300561 0.893441
    outer loop
      vertex 8.6202 8.26178 -2
      vertex 8.02957 8.91774 -2
      vertex 6.69131 7.43145 -1
    endloop
  endfacet
  facet normal 0.333807 0.300561 0.893441
    outer loop
      vertex 8.6202 8.26178 -2
      vertex 8.09017 5.87785 -1
      vertex 9.7082 7.05342 -2
    endloop
  endfacet
  facet normal 0.333806 0.300561 0.893441
    outer loop
      vertex 8.09017 5.87785 -1
      vertex 8.6202 8.26178 -2
      vertex 6.69131 7.43145 -1
    endloop
  endfacet
  facet normal 0.389002 0.22459 -0.893441
    outer loop
      vertex 8.09017 5.87785 1
      vertex 10.5212 5.64527 2
      vertex 9.13545 4.06737 1
    endloop
  endfacet
  facet normal 0.389002 0.22459 -0.893441
    outer loop
      vertex 10.5212 5.64527 2
      vertex 8.09017 5.87785 1
      vertex 9.7082 7.05342 2
    endloop
  endfacet
  facet normal 0.389002 0.224591 -0.893441
    outer loop
      vertex 10.9625 4.88084 2
      vertex 9.13545 4.06737 1
      vertex 10.5212 5.64527 2
    endloop
  endfacet
  facet normal 0.866026 0.5 0
    outer loop
      vertex 9.13545 4.06737 1
      vertex 8.09017 5.87785 -1
      vertex 8.09017 5.87785 1
    endloop
  endfacet
  facet normal 0.866026 0.5 0
    outer loop
      vertex 8.09017 5.87785 -1
      vertex 9.13545 4.06737 1
      vertex 9.13545 4.06737 -1
    endloop
  endfacet
  facet normal 0.389002 0.22459 0.893441
    outer loop
      vertex 9.7082 7.05342 -2
      vertex 8.09017 5.87785 -1
      vertex 10.1495 6.289 -2
    endloop
  endfacet
  facet normal 0.389002 0.22459 0.893441
    outer loop
      vertex 10.1495 6.289 -2
      vertex 9.13545 4.06737 -1
      vertex 10.9625 4.88084 -2
    endloop
  endfacet
  facet normal 0.389002 0.22459 0.893441
    outer loop
      vertex 9.13545 4.06737 -1
      vertex 10.1495 6.289 -2
      vertex 8.09017 5.87785 -1
    endloop
  endfacet
  facet normal 0.427197 0.138805 -0.893441
    outer loop
      vertex 9.13545 4.06737 1
      vertex 11.465 3.33442 2
      vertex 9.78148 2.07912 1
    endloop
  endfacet
  facet normal 0.427197 0.138804 -0.893441
    outer loop
      vertex 11.465 3.33442 2
      vertex 9.13545 4.06737 1
      vertex 10.9625 4.88084 2
    endloop
  endfacet
  facet normal 0.427196 0.138805 -0.893441
    outer loop
      vertex 11.7378 2.49494 2
      vertex 9.78148 2.07912 1
      vertex 11.465 3.33442 2
    endloop
  endfacet
  facet normal 0.951057 0.309017 0
    outer loop
      vertex 9.78148 2.07912 1
      vertex 9.13545 4.06737 -1
      vertex 9.13545 4.06737 1
    endloop
  endfacet
  facet normal 0.951057 0.309017 0
    outer loop
      vertex 9.13545 4.06737 -1
      vertex 9.78148 2.07912 1
      vertex 9.78148 2.07912 -1
    endloop
  endfacet
  facet normal 0.427196 0.138805 0.893441
    outer loop
      vertex 10.9625 4.88084 -2
      vertex 9.13545 4.06737 -1
      vertex 11.2353 4.04136 -2
    endloop
  endfacet
  facet normal 0.427197 0.138804 0.893441
    outer loop
      vertex 11.2353 4.04136 -2
      vertex 9.78148 2.07912 -1
      vertex 11.7378 2.49494 -2
    endloop
  endfacet
  facet normal 0.427197 0.138804 0.893441
    outer loop
      vertex 9.78148 2.07912 -1
      vertex 11.2353 4.04136 -2
      vertex 9.13545 4.06737 -1
    endloop
  endfacet
  facet normal 0.44672 0.0469524 -0.893441
    outer loop
      vertex 9.78148 2.07912 1
      vertex 11.9077 0.877849 2
      vertex 10 0 1
    endloop
  endfacet
  facet normal 0.44672 0.0469524 -0.893441
    outer loop
      vertex 11.9077 0.877849 2
      vertex 9.78148 2.07912 1
      vertex 11.7378 2.49494 2
    endloop
  endfacet
  facet normal 0.44672 0.0469524 -0.893441
    outer loop
      vertex 12 0 2
      vertex 10 0 1
      vertex 11.9077 0.877849 2
    endloop
  endfacet
  facet normal 0.994522 0.104529 0
    outer loop
      vertex 10 0 1
      vertex 9.78148 2.07912 -1
      vertex 9.78148 2.07912 1
    endloop
  endfacet
  facet normal 0.994522 0.104529 0
    outer loop
      vertex 9.78148 2.07912 -1
      vertex 10 0 1
      vertex 10 0 -1
    endloop
  endfacet
  facet normal 0.44672 0.0469527 0.893441
    outer loop
      vertex 11.83 1.61709 -2
      vertex 11.7378 2.49494 -2
      vertex 9.78148 2.07912 -1
    endloop
  endfacet
  facet normal 0.44672 0.0469523 0.893441
    outer loop
      vertex 11.83 1.61709 -2
      vertex 10 0 -1
      vertex 12 0 -2
    endloop
  endfacet
  facet normal 0.44672 0.0469524 0.893441
    outer loop
      vertex 10 0 -1
      vertex 11.83 1.61709 -2
      vertex 9.78148 2.07912 -1
    endloop
  endfacet
  facet normal 0.44672 -0.0469523 -0.893441
    outer loop
      vertex 11.83 -1.61709 2
      vertex 10 0 1
      vertex 12 0 2
    endloop
  endfacet
  facet normal 0.44672 -0.0469524 -0.893441
    outer loop
      vertex 10 0 1
      vertex 11.83 -1.61709 2
      vertex 9.78148 -2.07912 1
    endloop
  endfacet
  facet normal 0.44672 -0.0469527 -0.893441
    outer loop
      vertex 11.83 -1.61709 2
      vertex 11.7378 -2.49494 2
      vertex 9.78148 -2.07912 1
    endloop
  endfacet
  facet normal 0.994522 -0.104529 0
    outer loop
      vertex 9.78148 -2.07912 1
      vertex 10 0 -1
      vertex 10 0 1
    endloop
  endfacet
  facet normal 0.994522 -0.104529 0
    outer loop
      vertex 10 0 -1
      vertex 9.78148 -2.07912 1
      vertex 9.78148 -2.07912 -1
    endloop
  endfacet
  facet normal 0.44672 -0.0469524 0.893441
    outer loop
      vertex 12 0 -2
      vertex 10 0 -1
      vertex 11.9077 -0.877849 -2
    endloop
  endfacet
  facet normal 0.44672 -0.0469524 0.893441
    outer loop
      vertex 9.78148 -2.07912 -1
      vertex 11.9077 -0.877849 -2
      vertex 10 0 -1
    endloop
  endfacet
  facet normal 0.44672 -0.0469524 0.893441
    outer loop
      vertex 11.9077 -0.877849 -2
      vertex 9.78148 -2.07912 -1
      vertex 11.7378 -2.49494 -2
    endloop
  endfacet
  facet normal 0.427197 -0.138804 -0.893441
    outer loop
      vertex 11.2353 -4.04136 2
      vertex 9.78148 -2.07912 1
      vertex 11.7378 -2.49494 2
    endloop
  endfacet
  facet normal 0.427197 -0.138804 -0.893441
    outer loop
      vertex 9.78148 -2.07912 1
      vertex 11.2353 -4.04136 2
      vertex 9.13545 -4.06737 1
    endloop
  endfacet
  facet normal 0.427196 -0.138805 -0.893441
    outer loop
      vertex 10.9625 -4.88084 2
      vertex 9.13545 -4.06737 1
      vertex 11.2353 -4.04136 2
    endloop
  endfacet
  facet normal 0.951057 -0.309017 0
    outer loop
      vertex 9.13545 -4.06737 1
      vertex 9.78148 -2.07912 -1
      vertex 9.78148 -2.07912 1
    endloop
  endfacet
  facet normal 0.951057 -0.309017 0
    outer loop
      vertex 9.78148 -2.07912 -1
      vertex 9.13545 -4.06737 1
      vertex 9.13545 -4.06737 -1
    endloop
  endfacet
  facet normal 0.427196 -0.138805 0.893441
    outer loop
      vertex 11.7378 -2.49494 -2
      vertex 9.78148 -2.07912 -1
      vertex 11.465 -3.33442 -2
    endloop
  endfacet
  facet normal 0.427197 -0.138805 0.893441
    outer loop
      vertex 9.13545 -4.06737 -1
      vertex 11.465 -3.33442 -2
      vertex 9.78148 -2.07912 -1
    endloop
  endfacet
  facet normal 0.427197 -0.138804 0.893441
    outer loop
      vertex 11.465 -3.33442 -2
      vertex 9.13545 -4.06737 -1
      vertex 10.9625 -4.88084 -2
    endloop
  endfacet
  facet normal 0.389002 -0.22459 -0.893441
    outer loop
      vertex 10.1495 -6.289 2
      vertex 9.13545 -4.06737 1
      vertex 10.9625 -4.88084 2
    endloop
  endfacet
  facet normal 0.389002 -0.22459 -0.893441
    outer loop
      vertex 9.13545 -4.06737 1
      vertex 10.1495 -6.289 2
      vertex 8.09017 -5.87785 1
    endloop
  endfacet
  facet normal 0.389002 -0.22459 -0.893441
    outer loop
      vertex 9.7082 -7.05342 2
      vertex 8.09017 -5.87785 1
      vertex 10.1495 -6.289 2
    endloop
  endfacet
  facet normal 0.866026 -0.5 0
    outer loop
      vertex 8.09017 -5.87785 1
      vertex 9.13545 -4.06737 -1
      vertex 9.13545 -4.06737 1
    endloop
  endfacet
  facet normal 0.866026 -0.5 0
    outer loop
      vertex 9.13545 -4.06737 -1
      vertex 8.09017 -5.87785 1
      vertex 8.09017 -5.87785 -1
    endloop
  endfacet
  facet normal 0.389002 -0.224591 0.893441
    outer loop
      vertex 10.9625 -4.88084 -2
      vertex 9.13545 -4.06737 -1
      vertex 10.5212 -5.64527 -2
    endloop
  endfacet
  facet normal 0.389002 -0.22459 0.893441
    outer loop
      vertex 8.09017 -5.87785 -1
      vertex 10.5212 -5.64527 -2
      vertex 9.13545 -4.06737 -1
    endloop
  endfacet
  facet normal 0.389002 -0.22459 0.893441
    outer loop
      vertex 10.5212 -5.64527 -2
      vertex 8.09017 -5.87785 -1
      vertex 9.7082 -7.05342 -2
    endloop
  endfacet
  facet normal 0.333807 -0.300561 -0.893441
    outer loop
      vertex 8.6202 -8.26178 2
      vertex 8.09017 -5.87785 1
      vertex 9.7082 -7.05342 2
    endloop
  endfacet
  facet normal 0.333806 -0.300561 -0.893441
    outer loop
      vertex 8.09017 -5.87785 1
      vertex 8.6202 -8.26178 2
      vertex 6.69131 -7.43145 1
    endloop
  endfacet
  facet normal 0.333806 -0.300561 -0.893441
    outer loop
      vertex 8.6202 -8.26178 2
      vertex 8.02957 -8.91774 2
      vertex 6.69131 -7.43145 1
    endloop
  endfacet
  facet normal 0.743145 -0.669131 0
    outer loop
      vertex 6.69131 -7.43145 1
      vertex 8.09017 -5.87785 -1
      vertex 8.09017 -5.87785 1
    endloop
  endfacet
  facet normal 0.743145 -0.669131 0
    outer loop
      vertex 8.09017 -5.87785 -1
      vertex 6.69131 -7.43145 1
      vertex 6.69131 -7.43145 -1
    endloop
  endfacet
  facet normal 0.333807 -0.300561 0.893441
    outer loop
      vertex 9.11757 -7.70938 -2
      vertex 9.7082 -7.05342 -2
      vertex 8.09017 -5.87785 -1
    endloop
  endfacet
  facet normal 0.333806 -0.300561 0.893441
    outer loop
      vertex 6.69131 -7.43145 -1
      vertex 9.11757 -7.70938 -2
      vertex 8.09017 -5.87785 -1
    endloop
  endfacet
  facet normal 0.333806 -0.300561 0.893441
    outer loop
      vertex 8.02957 -8.91774 -2
      vertex 9.11757 -7.70938 -2
      vertex 6.69131 -7.43145 -1
    endloop
  endfacet
  facet normal 0.264022 -0.363395 -0.893441
    outer loop
      vertex 6.71411 -9.87348 2
      vertex 6.69131 -7.43145 1
      vertex 8.02957 -8.91774 2
    endloop
  endfacet
  facet normal 0.264022 -0.363395 -0.893441
    outer loop
      vertex 6.69131 -7.43145 1
      vertex 6.71411 -9.87348 2
      vertex 5 -8.66025 1
    endloop
  endfacet
  facet normal 0.264022 -0.363395 -0.893441
    outer loop
      vertex 6.71411 -9.87348 2
      vertex 6 -10.3923 2
      vertex 5 -8.66025 1
    endloop
  endfacet
  facet normal 0.587785 -0.809017 0
    outer loop
      vertex 5 -8.66025 -1
      vertex 6.69131 -7.43145 1
      vertex 5 -8.66025 1
    endloop
  endfacet
  facet normal 0.587785 -0.809017 0
    outer loop
      vertex 6.69131 -7.43145 1
      vertex 5 -8.66025 -1
      vertex 6.69131 -7.43145 -1
    endloop
  endfacet
  facet normal 0.264022 -0.363395 0.893441
    outer loop
      vertex 8.02957 -8.91774 -2
      vertex 6.69131 -7.43145 -1
      vertex 7.31546 -9.43657 -2
    endloop
  endfacet
  facet normal 0.264022 -0.363395 0.893441
    outer loop
      vertex 5 -8.66025 -1
      vertex 7.31546 -9.43657 -2
      vertex 6.69131 -7.43145 -1
    endloop
  endfacet
  facet normal 0.264022 -0.363395 0.893441
    outer loop
      vertex 7.31546 -9.43657 -2
      vertex 5 -8.66025 -1
      vertex 6 -10.3923 -2
    endloop
  endfacet
  facet normal 0.182699 -0.410347 -0.893441
    outer loop
      vertex 4.51458 -11.0537 2
      vertex 5 -8.66025 1
      vertex 6 -10.3923 2
    endloop
  endfacet
  facet normal 0.182698 -0.410347 -0.893441
    outer loop
      vertex 5 -8.66025 1
      vertex 4.51458 -11.0537 2
      vertex 3.09017 -9.51056 1
    endloop
  endfacet
  facet normal 0.182698 -0.410347 -0.893441
    outer loop
      vertex 3.7082 -11.4127 2
      vertex 3.09017 -9.51056 1
      vertex 4.51458 -11.0537 2
    endloop
  endfacet
  facet normal 0.406737 -0.913545 0
    outer loop
      vertex 3.09017 -9.51056 -1
      vertex 5 -8.66025 1
      vertex 3.09017 -9.51056 1
    endloop
  endfacet
  facet normal 0.406737 -0.913545 0
    outer loop
      vertex 5 -8.66025 1
      vertex 3.09017 -9.51056 -1
      vertex 5 -8.66025 -1
    endloop
  endfacet
  facet normal 0.182698 -0.410347 0.893441
    outer loop
      vertex 6 -10.3923 -2
      vertex 5 -8.66025 -1
      vertex 5.19363 -10.7513 -2
    endloop
  endfacet
  facet normal 0.182699 -0.410347 0.893441
    outer loop
      vertex 3.09017 -9.51056 -1
      vertex 5.19363 -10.7513 -2
      vertex 5 -8.66025 -1
    endloop
  endfacet
  facet normal 0.182699 -0.410347 0.893441
    outer loop
      vertex 5.19363 -10.7513 -2
      vertex 3.09017 -9.51056 -1
      vertex 3.7082 -11.4127 -2
    endloop
  endfacet
  facet normal 0.0933899 -0.439365 -0.893441
    outer loop
      vertex 2.11774 -11.7507 2
      vertex 3.09017 -9.51056 1
      vertex 3.7082 -11.4127 2
    endloop
  endfacet
  facet normal 0.0933899 -0.439365 -0.893441
    outer loop
      vertex 3.09017 -9.51056 1
      vertex 2.11774 -11.7507 2
      vertex 1.04528 -9.94522 1
    endloop
  endfacet
  facet normal 0.0933901 -0.439365 -0.893441
    outer loop
      vertex 1.25434 -11.9343 2
      vertex 1.04528 -9.94522 1
      vertex 2.11774 -11.7507 2
    endloop
  endfacet
  facet normal 0.207911 -0.978148 0
    outer loop
      vertex 1.04528 -9.94522 -1
      vertex 3.09017 -9.51056 1
      vertex 1.04528 -9.94522 1
    endloop
  endfacet
  facet normal 0.207911 -0.978148 0
    outer loop
      vertex 3.09017 -9.51056 1
      vertex 1.04528 -9.94522 -1
      vertex 3.09017 -9.51056 -1
    endloop
  endfacet
  facet normal 0.0933901 -0.439365 0.893441
    outer loop
      vertex 3.7082 -11.4127 -2
      vertex 3.09017 -9.51056 -1
      vertex 2.84481 -11.5962 -2
    endloop
  endfacet
  facet normal 0.0933899 -0.439365 0.893441
    outer loop
      vertex 1.04528 -9.94522 -1
      vertex 2.84481 -11.5962 -2
      vertex 3.09017 -9.51056 -1
    endloop
  endfacet
  facet normal 0.0933899 -0.439365 0.893441
    outer loop
      vertex 2.84481 -11.5962 -2
      vertex 1.04528 -9.94522 -1
      vertex 1.25434 -11.9343 -2
    endloop
  endfacet
  facet normal 0 -0.449181 -0.893441
    outer loop
      vertex 1.25434 -11.9343 2
      vertex -1.04528 -9.94522 1
      vertex 1.04528 -9.94522 1
    endloop
  endfacet
  facet normal 0 -0.449181 -0.893441
    outer loop
      vertex -1.04528 -9.94522 1
      vertex 1.25434 -11.9343 2
      vertex -1.25434 -11.9343 2
    endloop
  endfacet
  facet normal 0 -1 0
    outer loop
      vertex -1.04528 -9.94522 -1
      vertex 1.04528 -9.94522 1
      vertex -1.04528 -9.94522 1
    endloop
  endfacet
  facet normal 0 -1 -0
    outer loop
      vertex 1.04528 -9.94522 1
      vertex -1.04528 -9.94522 -1
      vertex 1.04528 -9.94522 -1
    endloop
  endfacet
  facet normal 0 -0.449181 0.893441
    outer loop
      vertex -1.04528 -9.94522 -1
      vertex 1.25434 -11.9343 -2
      vertex 1.04528 -9.94522 -1
    endloop
  endfacet
  facet normal 0 -0.449181 0.893441
    outer loop
      vertex 1.25434 -11.9343 -2
      vertex -1.04528 -9.94522 -1
      vertex -1.25434 -11.9343 -2
    endloop
  endfacet
  facet normal -0.0933899 -0.439365 -0.893441
    outer loop
      vertex -2.84481 -11.5962 2
      vertex -1.04528 -9.94522 1
      vertex -1.25434 -11.9343 2
    endloop
  endfacet
  facet normal -0.0933899 -0.439365 -0.893441
    outer loop
      vertex -1.04528 -9.94522 1
      vertex -2.84481 -11.5962 2
      vertex -3.09017 -9.51056 1
    endloop
  endfacet
  facet normal -0.0933901 -0.439365 -0.893441
    outer loop
      vertex -3.7082 -11.4127 2
      vertex -3.09017 -9.51056 1
      vertex -2.84481 -11.5962 2
    endloop
  endfacet
  facet normal -0.207911 -0.978148 0
    outer loop
      vertex -3.09017 -9.51056 -1
      vertex -1.04528 -9.94522 1
      vertex -3.09017 -9.51056 1
    endloop
  endfacet
  facet normal -0.207911 -0.978148 -0
    outer loop
      vertex -1.04528 -9.94522 1
      vertex -3.09017 -9.51056 -1
      vertex -1.04528 -9.94522 -1
    endloop
  endfacet
  facet normal -0.0933901 -0.439365 0.893441
    outer loop
      vertex -1.04528 -9.94522 -1
      vertex -2.11774 -11.7507 -2
      vertex -1.25434 -11.9343 -2
    endloop
  endfacet
  facet normal -0.0933899 -0.439365 0.893441
    outer loop
      vertex -3.09017 -9.51056 -1
      vertex -2.11774 -11.7507 -2
      vertex -1.04528 -9.94522 -1
    endloop
  endfacet
  facet normal -0.0933899 -0.439365 0.893441
    outer loop
      vertex -3.09017 -9.51056 -1
      vertex -3.7082 -11.4127 -2
      vertex -2.11774 -11.7507 -2
    endloop
  endfacet
  facet normal -0.182699 -0.410347 -0.893441
    outer loop
      vertex -5.19363 -10.7513 2
      vertex -3.09017 -9.51056 1
      vertex -3.7082 -11.4127 2
    endloop
  endfacet
  facet normal -0.182699 -0.410347 -0.893441
    outer loop
      vertex -3.09017 -9.51056 1
      vertex -5.19363 -10.7513 2
      vertex -5 -8.66025 1
    endloop
  endfacet
  facet normal -0.182698 -0.410347 -0.893441
    outer loop
      vertex -5.19363 -10.7513 2
      vertex -6 -10.3923 2
      vertex -5 -8.66025 1
    endloop
  endfacet
  facet normal -0.406737 -0.913545 0
    outer loop
      vertex -5 -8.66025 -1
      vertex -3.09017 -9.51056 1
      vertex -5 -8.66025 1
    endloop
  endfacet
  facet normal -0.406737 -0.913545 -0
    outer loop
      vertex -3.09017 -9.51056 1
      vertex -5 -8.66025 -1
      vertex -3.09017 -9.51056 -1
    endloop
  endfacet
  facet normal -0.182698 -0.410347 0.893441
    outer loop
      vertex -3.09017 -9.51056 -1
      vertex -4.51458 -11.0537 -2
      vertex -3.7082 -11.4127 -2
    endloop
  endfacet
  facet normal -0.182698 -0.410347 0.893441
    outer loop
      vertex -5 -8.66025 -1
      vertex -4.51458 -11.0537 -2
      vertex -3.09017 -9.51056 -1
    endloop
  endfacet
  facet normal -0.182699 -0.410347 0.893441
    outer loop
      vertex -4.51458 -11.0537 -2
      vertex -5 -8.66025 -1
      vertex -6 -10.3923 -2
    endloop
  endfacet
  facet normal -0.264022 -0.363395 -0.893441
    outer loop
      vertex -7.31546 -9.43657 2
      vertex -5 -8.66025 1
      vertex -6 -10.3923 2
    endloop
  endfacet
  facet normal -0.264022 -0.363395 -0.893441
    outer loop
      vertex -5 -8.66025 1
      vertex -7.31546 -9.43657 2
      vertex -6.69131 -7.43145 1
    endloop
  endfacet
  facet normal -0.264022 -0.363395 -0.893441
    outer loop
      vertex -7.31546 -9.43657 2
      vertex -8.02957 -8.91774 2
      vertex -6.69131 -7.43145 1
    endloop
  endfacet
  facet normal -0.587785 -0.809017 0
    outer loop
      vertex -6.69131 -7.43145 -1
      vertex -5 -8.66025 1
      vertex -6.69131 -7.43145 1
    endloop
  endfacet
  facet normal -0.587785 -0.809017 -0
    outer loop
      vertex -5 -8.66025 1
      vertex -6.69131 -7.43145 -1
      vertex -5 -8.66025 -1
    endloop
  endfacet
  facet normal -0.264022 -0.363395 0.893441
    outer loop
      vertex -6.71411 -9.87348 -2
      vertex -6 -10.3923 -2
      vertex -5 -8.66025 -1
    endloop
  endfacet
  facet normal -0.264022 -0.363395 0.893441
    outer loop
      vertex -6.69131 -7.43145 -1
      vertex -6.71411 -9.87348 -2
      vertex -5 -8.66025 -1
    endloop
  endfacet
  facet normal -0.264022 -0.363395 0.893441
    outer loop
      vertex -6.71411 -9.87348 -2
      vertex -6.69131 -7.43145 -1
      vertex -8.02957 -8.91774 -2
    endloop
  endfacet
  facet normal -0.333806 -0.300561 -0.893441
    outer loop
      vertex -8.02957 -8.91774 2
      vertex -9.11757 -7.70938 2
      vertex -6.69131 -7.43145 1
    endloop
  endfacet
  facet normal -0.333806 -0.300561 -0.893441
    outer loop
      vertex -6.69131 -7.43145 1
      vertex -9.11757 -7.70938 2
      vertex -8.09017 -5.87785 1
    endloop
  endfacet
  facet normal -0.333807 -0.300561 -0.893441
    outer loop
      vertex -9.11757 -7.70938 2
      vertex -9.7082 -7.05342 2
      vertex -8.09017 -5.87785 1
    endloop
  endfacet
  facet normal -0.743145 -0.669131 0
    outer loop
      vertex -6.69131 -7.43145 -1
      vertex -8.09017 -5.87785 1
      vertex -8.09017 -5.87785 -1
    endloop
  endfacet
  facet normal -0.743145 -0.669131 0
    outer loop
      vertex -8.09017 -5.87785 1
      vertex -6.69131 -7.43145 -1
      vertex -6.69131 -7.43145 1
    endloop
  endfacet
  facet normal -0.333806 -0.300561 0.893441
    outer loop
      vertex -8.6202 -8.26178 -2
      vertex -8.02957 -8.91774 -2
      vertex -6.69131 -7.43145 -1
    endloop
  endfacet
  facet normal -0.333806 -0.300561 0.893441
    outer loop
      vertex -8.09017 -5.87785 -1
      vertex -8.6202 -8.26178 -2
      vertex -6.69131 -7.43145 -1
    endloop
  endfacet
  facet normal -0.333807 -0.300561 0.893441
    outer loop
      vertex -9.7082 -7.05342 -2
      vertex -8.6202 -8.26178 -2
      vertex -8.09017 -5.87785 -1
    endloop
  endfacet
  facet normal -0.389002 -0.22459 -0.893441
    outer loop
      vertex -10.5212 -5.64527 2
      vertex -8.09017 -5.87785 1
      vertex -9.7082 -7.05342 2
    endloop
  endfacet
  facet normal -0.389002 -0.22459 -0.893441
    outer loop
      vertex -8.09017 -5.87785 1
      vertex -10.5212 -5.64527 2
      vertex -9.13545 -4.06737 1
    endloop
  endfacet
  facet normal -0.389002 -0.224591 -0.893441
    outer loop
      vertex -10.9625 -4.88084 2
      vertex -9.13545 -4.06737 1
      vertex -10.5212 -5.64527 2
    endloop
  endfacet
  facet normal -0.866026 -0.5 0
    outer loop
      vertex -8.09017 -5.87785 -1
      vertex -9.13545 -4.06737 1
      vertex -9.13545 -4.06737 -1
    endloop
  endfacet
  facet normal -0.866026 -0.5 0
    outer loop
      vertex -9.13545 -4.06737 1
      vertex -8.09017 -5.87785 -1
      vertex -8.09017 -5.87785 1
    endloop
  endfacet
  facet normal -0.389002 -0.22459 0.893441
    outer loop
      vertex -8.09017 -5.87785 -1
      vertex -10.1495 -6.289 -2
      vertex -9.7082 -7.05342 -2
    endloop
  endfacet
  facet normal -0.389002 -0.22459 0.893441
    outer loop
      vertex -9.13545 -4.06737 -1
      vertex -10.1495 -6.289 -2
      vertex -8.09017 -5.87785 -1
    endloop
  endfacet
  facet normal -0.389002 -0.22459 0.893441
    outer loop
      vertex -10.1495 -6.289 -2
      vertex -9.13545 -4.06737 -1
      vertex -10.9625 -4.88084 -2
    endloop
  endfacet
  facet normal -0.427197 -0.138804 -0.893441
    outer loop
      vertex -11.465 -3.33442 2
      vertex -9.13545 -4.06737 1
      vertex -10.9625 -4.88084 2
    endloop
  endfacet
  facet normal -0.427197 -0.138805 -0.893441
    outer loop
      vertex -9.13545 -4.06737 1
      vertex -11.465 -3.33442 2
      vertex -9.78148 -2.07912 1
    endloop
  endfacet
  facet normal -0.427196 -0.138805 -0.893441
    outer loop
      vertex -11.465 -3.33442 2
      vertex -11.7378 -2.49494 2
      vertex -9.78148 -2.07912 1
    endloop
  endfacet
  facet normal -0.951057 -0.309017 0
    outer loop
      vertex -9.13545 -4.06737 -1
      vertex -9.78148 -2.07912 1
      vertex -9.78148 -2.07912 -1
    endloop
  endfacet
  facet normal -0.951057 -0.309017 0
    outer loop
      vertex -9.78148 -2.07912 1
      vertex -9.13545 -4.06737 -1
      vertex -9.13545 -4.06737 1
    endloop
  endfacet
  facet normal -0.427196 -0.138805 0.893441
    outer loop
      vertex -9.13545 -4.06737 -1
      vertex -11.2353 -4.04136 -2
      vertex -10.9625 -4.88084 -2
    endloop
  endfacet
  facet normal -0.427197 -0.138804 0.893441
    outer loop
      vertex -9.78148 -2.07912 -1
      vertex -11.2353 -4.04136 -2
      vertex -9.13545 -4.06737 -1
    endloop
  endfacet
  facet normal -0.427197 -0.138804 0.893441
    outer loop
      vertex -11.2353 -4.04136 -2
      vertex -9.78148 -2.07912 -1
      vertex -11.7378 -2.49494 -2
    endloop
  endfacet
  facet normal -0.44672 -0.0469524 -0.893441
    outer loop
      vertex -11.9077 -0.877849 2
      vertex -9.78148 -2.07912 1
      vertex -11.7378 -2.49494 2
    endloop
  endfacet
  facet normal -0.44672 -0.0469524 -0.893441
    outer loop
      vertex -9.78148 -2.07912 1
      vertex -11.9077 -0.877849 2
      vertex -10 0 1
    endloop
  endfacet
  facet normal -0.44672 -0.0469524 -0.893441
    outer loop
      vertex -11.9077 -0.877849 2
      vertex -12 0 2
      vertex -10 0 1
    endloop
  endfacet
  facet normal -0.994522 -0.104529 0
    outer loop
      vertex -9.78148 -2.07912 -1
      vertex -10 0 1
      vertex -10 0 -1
    endloop
  endfacet
  facet normal -0.994522 -0.104529 0
    outer loop
      vertex -10 0 1
      vertex -9.78148 -2.07912 -1
      vertex -9.78148 -2.07912 1
    endloop
  endfacet
  facet normal -0.44672 -0.0469527 0.893441
    outer loop
      vertex -9.78148 -2.07912 -1
      vertex -11.83 -1.61709 -2
      vertex -11.7378 -2.49494 -2
    endloop
  endfacet
  facet normal -0.44672 -0.0469524 0.893441
    outer loop
      vertex -10 0 -1
      vertex -11.83 -1.61709 -2
      vertex -9.78148 -2.07912 -1
    endloop
  endfacet
  facet normal -0.44672 -0.0469523 0.893441
    outer loop
      vertex -11.83 -1.61709 -2
      vertex -10 0 -1
      vertex -12 0 -2
    endloop
  endfacet
  facet normal -0.809017 -0.587786 0
    outer loop
      vertex 1.5 0 -2.5
      vertex 0.463525 1.42658 2.5
      vertex 0.463525 1.42658 -2.5
    endloop
  endfacet
  facet normal -0.809017 -0.587786 0
    outer loop
      vertex 0.463525 1.42658 2.5
      vertex 1.5 0 -2.5
      vertex 1.5 0 2.5
    endloop
  endfacet
  facet normal 1 -0 0
    outer loop
      vertex -1.21352 -0.881678 2.5
      vertex -1.21352 0.881678 -2.5
      vertex -1.21352 0.881678 2.5
    endloop
  endfacet
  facet normal 1 0 0
    outer loop
      vertex -1.21352 0.881678 -2.5
      vertex -1.21352 -0.881678 2.5
      vertex -1.21352 -0.881678 -2.5
    endloop
  endfacet
  facet normal 0.309017 -0.951056 0
    outer loop
      vertex -1.21352 0.881678 -2.5
      vertex 0.463525 1.42658 2.5
      vertex -1.21352 0.881678 2.5
    endloop
  endfacet
  facet normal 0.309017 -0.951056 0
    outer loop
      vertex 0.463525 1.42658 2.5
      vertex -1.21352 0.881678 -2.5
      vertex 0.463525 1.42658 -2.5
    endloop
  endfacet
  facet normal -0.809017 0.587786 0
    outer loop
      vertex 0.463525 -1.42658 -2.5
      vertex 1.5 0 2.5
      vertex 1.5 0 -2.5
    endloop
  endfacet
  facet normal -0.809017 0.587786 0
    outer loop
      vertex 1.5 0 2.5
      vertex 0.463525 -1.42658 -2.5
      vertex 0.463525 -1.42658 2.5
    endloop
  endfacet
  facet normal 0.309017 0.951056 -0
    outer loop
      vertex 0.463525 -1.42658 -2.5
      vertex -1.21352 -0.881678 2.5
      vertex 0.463525 -1.42658 2.5
    endloop
  endfacet
  facet normal 0.309017 0.951056 0
    outer loop
      vertex -1.21352 -0.881678 2.5
      vertex 0.463525 -1.42658 -2.5
      vertex -1.21352 -0.881678 -2.5
    endloop
  endfacet
endsolid OpenSCAD_Model
