solid OpenSCAD_Model
  facet normal -0.991445 0.130526 0
    outer loop
      vertex -7.29584 1.55078 8.36531
      vertex -7.24444 1.94114 26.7676
      vertex -7.24444 1.94114 8.23241
    endloop
  endfacet
  facet normal -0.991445 0.130526 0
    outer loop
      vertex -7.29584 1.55078 8.36531
      vertex -7.29584 1.55078 26.6347
      vertex -7.24444 1.94114 26.7676
    endloop
  endfacet
  facet normal -0.991445 0.130527 0
    outer loop
      vertex -7.32832 1.30403 8.35325
      vertex -7.29584 1.55078 26.6347
      vertex -7.29584 1.55078 8.36531
    endloop
  endfacet
  facet normal -0.991445 0.130527 7.06933e-10
    outer loop
      vertex -7.32832 1.30403 8.35325
      vertex -7.46754 0.246569 26.6985
      vertex -7.29584 1.55078 26.6347
    endloop
  endfacet
  facet normal -0.991445 0.130527 2.75731e-09
    outer loop
      vertex -7.5 0 8.28947
      vertex -7.46754 0.246569 26.6985
      vertex -7.32832 1.30403 8.35325
    endloop
  endfacet
  facet normal -0.991445 0.130527 0
    outer loop
      vertex -7.46754 0.246569 26.6985
      vertex -7.5 0 8.28947
      vertex -7.5 0 26.7105
    endloop
  endfacet
  facet normal 0.608761 0.793353 0
    outer loop
      vertex 5.3033 5.3033 26.7676
      vertex 4.99093 5.54299 8.36531
      vertex 4.99093 5.54299 26.6347
    endloop
  endfacet
  facet normal 0.608761 0.793353 0
    outer loop
      vertex 4.99093 5.54299 8.36531
      vertex 5.3033 5.3033 26.7676
      vertex 5.3033 5.3033 8.23241
    endloop
  endfacet
  facet normal 0.608761 0.793354 -0
    outer loop
      vertex 4.99093 5.54299 8.36531
      vertex 4.79349 5.69449 26.6468
      vertex 4.99093 5.54299 26.6347
    endloop
  endfacet
  facet normal 0.608761 0.793354 -0
    outer loop
      vertex 4.79349 5.69449 8.35325
      vertex 4.79349 5.69449 26.6468
      vertex 4.99093 5.54299 8.36531
    endloop
  endfacet
  facet normal 0.608761 0.793354 0
    outer loop
      vertex 4.79349 5.69449 26.6468
      vertex 4.79349 5.69449 8.35325
      vertex 3.75 6.49519 26.7105
    endloop
  endfacet
  facet normal 0.608761 0.793354 0
    outer loop
      vertex 3.75 6.49519 26.7105
      vertex 4.79349 5.69449 8.35325
      vertex 3.75 6.49519 8.28947
    endloop
  endfacet
  facet normal 0.991445 -0.130527 0
    outer loop
      vertex 7.32832 -1.30403 26.6468
      vertex 7.5 0 8.28947
      vertex 7.5 0 26.7105
    endloop
  endfacet
  facet normal 0.991445 -0.130527 0
    outer loop
      vertex 7.32832 -1.30403 26.6468
      vertex 7.32832 -1.30403 8.35325
      vertex 7.5 0 8.28947
    endloop
  endfacet
  facet normal 0.991445 -0.130527 0
    outer loop
      vertex 7.29584 -1.55078 26.6347
      vertex 7.32832 -1.30403 8.35325
      vertex 7.32832 -1.30403 26.6468
    endloop
  endfacet
  facet normal 0.991445 -0.130527 0
    outer loop
      vertex 7.29584 -1.55078 26.6347
      vertex 7.29584 -1.55078 8.36531
      vertex 7.32832 -1.30403 8.35325
    endloop
  endfacet
  facet normal 0.991445 -0.130526 0
    outer loop
      vertex 7.24444 -1.94114 26.7676
      vertex 7.29584 -1.55078 8.36531
      vertex 7.29584 -1.55078 26.6347
    endloop
  endfacet
  facet normal 0.991445 -0.130526 0
    outer loop
      vertex 7.29584 -1.55078 8.36531
      vertex 7.24444 -1.94114 26.7676
      vertex 7.24444 -1.94114 8.23241
    endloop
  endfacet
  facet normal -0.382684 -0.923879 0
    outer loop
      vertex -3.75 -6.49519 8.28947
      vertex -3.52023 -6.59036 26.6985
      vertex -3.75 -6.49519 26.7105
    endloop
  endfacet
  facet normal -0.382683 -0.92388 -9.4424e-09
    outer loop
      vertex -3.52023 -6.59036 26.6985
      vertex -2.53483 -6.99853 8.35325
      vertex -2.3049 -7.09377 26.6347
    endloop
  endfacet
  facet normal -0.382684 -0.923879 -0
    outer loop
      vertex -2.3049 -7.09377 26.6347
      vertex -2.53483 -6.99853 8.35325
      vertex -2.3049 -7.09377 8.36531
    endloop
  endfacet
  facet normal -0.382683 -0.92388 -1.01592e-08
    outer loop
      vertex -3.52023 -6.59036 26.6985
      vertex -3.75 -6.49519 8.28947
      vertex -2.53483 -6.99853 8.35325
    endloop
  endfacet
  facet normal -0.382683 -0.92388 0
    outer loop
      vertex -2.3049 -7.09377 8.36531
      vertex -2.07694 -7.18819 26.718
      vertex -2.3049 -7.09377 26.6347
    endloop
  endfacet
  facet normal -0.382683 -0.92388 0
    outer loop
      vertex -2.07694 -7.18819 8.28203
      vertex -2.07694 -7.18819 26.718
      vertex -2.3049 -7.09377 8.36531
    endloop
  endfacet
  facet normal -0.382685 -0.923879 -0
    outer loop
      vertex -2.07694 -7.18819 26.718
      vertex -2.07694 -7.18819 8.28203
      vertex -1.94114 -7.24444 26.7676
    endloop
  endfacet
  facet normal -0.382685 -0.923879 -0
    outer loop
      vertex -1.94114 -7.24444 26.7676
      vertex -2.07694 -7.18819 8.28203
      vertex -1.94114 -7.24444 8.23241
    endloop
  endfacet
  facet normal 0.793354 0.608761 0
    outer loop
      vertex 5.86645 4.5694 26.6332
      vertex 5.3033 5.3033 8.23241
      vertex 5.3033 5.3033 26.7676
    endloop
  endfacet
  facet normal 0.793354 0.608761 0
    outer loop
      vertex 5.86645 4.5694 26.6332
      vertex 5.86645 4.5694 8.36685
      vertex 5.3033 5.3033 8.23241
    endloop
  endfacet
  facet normal 0.793354 0.608761 0
    outer loop
      vertex 6.01778 4.37217 26.597
      vertex 5.86645 4.5694 8.36685
      vertex 5.86645 4.5694 26.6332
    endloop
  endfacet
  facet normal 0.793354 0.608761 0
    outer loop
      vertex 6.01778 4.37217 26.597
      vertex 6.01778 4.37217 8.40297
      vertex 5.86645 4.5694 8.36685
    endloop
  endfacet
  facet normal 0.793354 0.608761 0
    outer loop
      vertex 6.49519 3.75 26.7866
      vertex 6.01778 4.37217 8.40297
      vertex 6.01778 4.37217 26.597
    endloop
  endfacet
  facet normal 0.793354 0.608761 0
    outer loop
      vertex 6.01778 4.37217 8.40297
      vertex 6.49519 3.75 26.7866
      vertex 6.49519 3.75 8.21337
    endloop
  endfacet
  facet normal 0.92388 0.382683 0
    outer loop
      vertex 6.70044 3.25448 26.657
      vertex 6.49519 3.75 8.21337
      vertex 6.49519 3.75 26.7866
    endloop
  endfacet
  facet normal 0.92388 0.382683 0
    outer loop
      vertex 6.70044 3.25448 26.657
      vertex 6.70044 3.25448 8.34304
      vertex 6.49519 3.75 8.21337
    endloop
  endfacet
  facet normal 0.923879 0.382684 0
    outer loop
      vertex 6.7953 3.02546 26.597
      vertex 6.70044 3.25448 8.34304
      vertex 6.70044 3.25448 26.657
    endloop
  endfacet
  facet normal 0.923879 0.382684 0
    outer loop
      vertex 6.7953 3.02546 26.597
      vertex 6.7953 3.02546 8.40298
      vertex 6.70044 3.25448 8.34304
    endloop
  endfacet
  facet normal 0.92388 0.382683 0
    outer loop
      vertex 6.89044 2.79579 26.6332
      vertex 6.7953 3.02546 8.40298
      vertex 6.7953 3.02546 26.597
    endloop
  endfacet
  facet normal 0.92388 0.382683 0
    outer loop
      vertex 6.89044 2.79579 26.6332
      vertex 6.89044 2.79579 8.36685
      vertex 6.7953 3.02546 8.40298
    endloop
  endfacet
  facet normal 0.923879 0.382684 0
    outer loop
      vertex 7.24444 1.94114 26.7676
      vertex 6.89044 2.79579 8.36685
      vertex 6.89044 2.79579 26.6332
    endloop
  endfacet
  facet normal 0.923879 0.382684 0
    outer loop
      vertex 6.89044 2.79579 8.36685
      vertex 7.24444 1.94114 26.7676
      vertex 7.24444 1.94114 8.23241
    endloop
  endfacet
  facet normal -0.130527 0.991445 0
    outer loop
      vertex 0 7.5 26.7866
      vertex -0.777523 7.39764 8.40297
      vertex -0.777523 7.39764 26.597
    endloop
  endfacet
  facet normal -0.130527 0.991445 0
    outer loop
      vertex -0.777523 7.39764 8.40297
      vertex 0 7.5 26.7866
      vertex 0 7.5 8.21337
    endloop
  endfacet
  facet normal -0.130527 0.991445 0
    outer loop
      vertex -0.777523 7.39764 8.40297
      vertex -1.94114 7.24444 26.7676
      vertex -0.777523 7.39764 26.597
    endloop
  endfacet
  facet normal -0.130527 0.991445 0
    outer loop
      vertex -1.94114 7.24444 26.7676
      vertex -0.777523 7.39764 8.40297
      vertex -1.94114 7.24444 8.23241
    endloop
  endfacet
  facet normal -0.92388 0.382683 0
    outer loop
      vertex -6.70044 3.25448 8.34304
      vertex -6.49519 3.75 26.7866
      vertex -6.49519 3.75 8.21337
    endloop
  endfacet
  facet normal -0.92388 0.382683 0
    outer loop
      vertex -6.70044 3.25448 8.34304
      vertex -6.70044 3.25448 26.657
      vertex -6.49519 3.75 26.7866
    endloop
  endfacet
  facet normal -0.923879 0.382684 0
    outer loop
      vertex -6.7953 3.02546 8.40298
      vertex -6.70044 3.25448 26.657
      vertex -6.70044 3.25448 8.34304
    endloop
  endfacet
  facet normal -0.923879 0.382684 0
    outer loop
      vertex -6.7953 3.02546 8.40298
      vertex -6.7953 3.02546 26.597
      vertex -6.70044 3.25448 26.657
    endloop
  endfacet
  facet normal -0.92388 0.382683 0
    outer loop
      vertex -6.89044 2.79579 8.36685
      vertex -6.7953 3.02546 26.597
      vertex -6.7953 3.02546 8.40298
    endloop
  endfacet
  facet normal -0.92388 0.382683 0
    outer loop
      vertex -6.89044 2.79579 8.36685
      vertex -6.89044 2.79579 26.6332
      vertex -6.7953 3.02546 26.597
    endloop
  endfacet
  facet normal -0.923879 0.382684 0
    outer loop
      vertex -7.24444 1.94114 8.23241
      vertex -6.89044 2.79579 26.6332
      vertex -6.89044 2.79579 8.36685
    endloop
  endfacet
  facet normal -0.923879 0.382684 0
    outer loop
      vertex -6.89044 2.79579 26.6332
      vertex -7.24444 1.94114 8.23241
      vertex -7.24444 1.94114 26.7676
    endloop
  endfacet
  facet normal 0.608761 -0.793354 0
    outer loop
      vertex 4.79349 -5.69449 26.6468
      vertex 4.99093 -5.54299 8.36531
      vertex 4.99093 -5.54299 26.6347
    endloop
  endfacet
  facet normal 0.608761 -0.793354 0
    outer loop
      vertex 4.79349 -5.69449 8.35325
      vertex 4.79349 -5.69449 26.6468
      vertex 3.75 -6.49519 26.7105
    endloop
  endfacet
  facet normal 0.608761 -0.793354 0
    outer loop
      vertex 4.79349 -5.69449 26.6468
      vertex 4.79349 -5.69449 8.35325
      vertex 4.99093 -5.54299 8.36531
    endloop
  endfacet
  facet normal 0.608761 -0.793354 0
    outer loop
      vertex 4.79349 -5.69449 8.35325
      vertex 3.75 -6.49519 26.7105
      vertex 3.75 -6.49519 8.28947
    endloop
  endfacet
  facet normal 0.608761 -0.793353 0
    outer loop
      vertex 4.99093 -5.54299 8.36531
      vertex 5.3033 -5.3033 26.7676
      vertex 4.99093 -5.54299 26.6347
    endloop
  endfacet
  facet normal 0.608761 -0.793353 0
    outer loop
      vertex 5.3033 -5.3033 26.7676
      vertex 4.99093 -5.54299 8.36531
      vertex 5.3033 -5.3033 8.23241
    endloop
  endfacet
  facet normal -0.991445 -0.130527 0
    outer loop
      vertex -7.5 0 8.28947
      vertex -7.46754 -0.246569 26.6985
      vertex -7.5 0 26.7105
    endloop
  endfacet
  facet normal -0.991445 -0.130527 2.75731e-09
    outer loop
      vertex -7.32832 -1.30403 8.35325
      vertex -7.46754 -0.246569 26.6985
      vertex -7.5 0 8.28947
    endloop
  endfacet
  facet normal -0.991445 -0.130527 -0
    outer loop
      vertex -7.29584 -1.55078 26.6347
      vertex -7.32832 -1.30403 8.35325
      vertex -7.29584 -1.55078 8.36531
    endloop
  endfacet
  facet normal -0.991445 -0.130527 7.06933e-10
    outer loop
      vertex -7.32832 -1.30403 8.35325
      vertex -7.29584 -1.55078 26.6347
      vertex -7.46754 -0.246569 26.6985
    endloop
  endfacet
  facet normal -0.991445 -0.130526 0
    outer loop
      vertex -7.24444 -1.94114 8.23241
      vertex -7.29584 -1.55078 26.6347
      vertex -7.29584 -1.55078 8.36531
    endloop
  endfacet
  facet normal -0.991445 -0.130526 0
    outer loop
      vertex -7.29584 -1.55078 26.6347
      vertex -7.24444 -1.94114 8.23241
      vertex -7.24444 -1.94114 26.7676
    endloop
  endfacet
  facet normal -0.608761 -0.793353 0
    outer loop
      vertex -5.3033 -5.3033 26.7676
      vertex -4.99093 -5.54299 8.36531
      vertex -4.99093 -5.54299 26.6347
    endloop
  endfacet
  facet normal -0.608761 -0.793353 0
    outer loop
      vertex -4.99093 -5.54299 8.36531
      vertex -5.3033 -5.3033 26.7676
      vertex -5.3033 -5.3033 8.23241
    endloop
  endfacet
  facet normal -0.608761 -0.793354 0
    outer loop
      vertex -4.79349 -5.69449 8.35325
      vertex -4.99093 -5.54299 26.6347
      vertex -4.99093 -5.54299 8.36531
    endloop
  endfacet
  facet normal -0.608761 -0.793354 -2.96042e-10
    outer loop
      vertex -4.99093 -5.54299 26.6347
      vertex -4.79349 -5.69449 8.35325
      vertex -3.9473 -6.34379 26.6985
    endloop
  endfacet
  facet normal -0.608761 -0.793354 6.93888e-10
    outer loop
      vertex -3.75 -6.49519 8.28947
      vertex -3.9473 -6.34379 26.6985
      vertex -4.79349 -5.69449 8.35325
    endloop
  endfacet
  facet normal -0.608761 -0.793354 0
    outer loop
      vertex -3.9473 -6.34379 26.6985
      vertex -3.75 -6.49519 8.28947
      vertex -3.75 -6.49519 26.7105
    endloop
  endfacet
  facet normal 0 0 -1
    outer loop
      vertex 5.5 0 0
      vertex 12 0 0
      vertex 11.7378 -2.49494 0
    endloop
  endfacet
  facet normal 0 0 -1
    outer loop
      vertex 5.16831 -1.88111 0
      vertex 11.7378 -2.49494 0
      vertex 10.9625 -4.88084 0
    endloop
  endfacet
  facet normal 0 0 -1
    outer loop
      vertex 12 0 0
      vertex 5.5 0 0
      vertex 11.7378 2.49494 0
    endloop
  endfacet
  facet normal 0 0 -1
    outer loop
      vertex 5.16831 -1.88111 0
      vertex 10.9625 -4.88084 0
      vertex 9.7082 -7.05342 0
    endloop
  endfacet
  facet normal 0 0 -1
    outer loop
      vertex 5.16831 1.88111 0
      vertex 11.7378 2.49494 0
      vertex 5.5 0 0
    endloop
  endfacet
  facet normal 0 0 -1
    outer loop
      vertex 4.21324 -3.53533 0
      vertex 9.7082 -7.05342 0
      vertex 8.02957 -8.91774 0
    endloop
  endfacet
  facet normal -0 0 -1
    outer loop
      vertex 11.7378 2.49494 0
      vertex 5.16831 1.88111 0
      vertex 10.9625 4.88084 0
    endloop
  endfacet
  facet normal 0 0 -1
    outer loop
      vertex 2.75 -4.76314 0
      vertex 8.02957 -8.91774 0
      vertex 6 -10.3923 0
    endloop
  endfacet
  facet normal -0 0 -1
    outer loop
      vertex 10.9625 4.88084 0
      vertex 5.16831 1.88111 0
      vertex 9.7082 7.05342 0
    endloop
  endfacet
  facet normal 0 0 -1
    outer loop
      vertex 4.21324 3.53533 0
      vertex 9.7082 7.05342 0
      vertex 5.16831 1.88111 0
    endloop
  endfacet
  facet normal 0 0 -1
    outer loop
      vertex 11.7378 -2.49494 0
      vertex 5.16831 -1.88111 0
      vertex 5.5 0 0
    endloop
  endfacet
  facet normal 0 0 -1
    outer loop
      vertex 9.7082 -7.05342 0
      vertex 4.21324 -3.53533 0
      vertex 5.16831 -1.88111 0
    endloop
  endfacet
  facet normal 0 0 -1
    outer loop
      vertex 2.75 -4.76314 0
      vertex 6 -10.3923 0
      vertex 3.7082 -11.4127 0
    endloop
  endfacet
  facet normal 0 0 -1
    outer loop
      vertex 8.02957 -8.91774 0
      vertex 2.75 -4.76314 0
      vertex 4.21324 -3.53533 0
    endloop
  endfacet
  facet normal 0 0 -1
    outer loop
      vertex 0.955065 -5.41644 0
      vertex 3.7082 -11.4127 0
      vertex 1.25434 -11.9343 0
    endloop
  endfacet
  facet normal 0 0 -1
    outer loop
      vertex 3.7082 -11.4127 0
      vertex 0.955065 -5.41644 0
      vertex 2.75 -4.76314 0
    endloop
  endfacet
  facet normal 0 0 -1
    outer loop
      vertex 1.25434 -11.9343 0
      vertex -0.955065 -5.41644 0
      vertex 0.955065 -5.41644 0
    endloop
  endfacet
  facet normal 0 0 -1
    outer loop
      vertex -1.25434 -11.9343 0
      vertex -0.955065 -5.41644 0
      vertex 1.25434 -11.9343 0
    endloop
  endfacet
  facet normal 0 0 -1
    outer loop
      vertex -3.7082 -11.4127 0
      vertex -0.955065 -5.41644 0
      vertex -1.25434 -11.9343 0
    endloop
  endfacet
  facet normal -0 0 -1
    outer loop
      vertex -0.955065 -5.41644 0
      vertex -3.7082 -11.4127 0
      vertex -2.75 -4.76314 0
    endloop
  endfacet
  facet normal 0 0 -1
    outer loop
      vertex -6 -10.3923 0
      vertex -2.75 -4.76314 0
      vertex -3.7082 -11.4127 0
    endloop
  endfacet
  facet normal 0 0 -1
    outer loop
      vertex -8.02957 -8.91774 0
      vertex -2.75 -4.76314 0
      vertex -6 -10.3923 0
    endloop
  endfacet
  facet normal -0 0 -1
    outer loop
      vertex -2.75 -4.76314 0
      vertex -8.02957 -8.91774 0
      vertex -4.21324 -3.53533 0
    endloop
  endfacet
  facet normal 0 0 -1
    outer loop
      vertex -9.7082 -7.05342 0
      vertex -4.21324 -3.53533 0
      vertex -8.02957 -8.91774 0
    endloop
  endfacet
  facet normal -0 0 -1
    outer loop
      vertex -4.21324 -3.53533 0
      vertex -9.7082 -7.05342 0
      vertex -5.16831 -1.88111 0
    endloop
  endfacet
  facet normal 0 0 -1
    outer loop
      vertex -10.9625 -4.88084 0
      vertex -5.16831 -1.88111 0
      vertex -9.7082 -7.05342 0
    endloop
  endfacet
  facet normal 0 0 -1
    outer loop
      vertex -5.5 0 0
      vertex -8.02957 8.91774 0
      vertex -6 10.3923 0
    endloop
  endfacet
  facet normal 0 0 -1
    outer loop
      vertex -11.7378 -2.49494 0
      vertex -5.16831 -1.88111 0
      vertex -10.9625 -4.88084 0
    endloop
  endfacet
  facet normal 0 0 -1
    outer loop
      vertex -5.5 0 0
      vertex -9.7082 7.05342 0
      vertex -8.02957 8.91774 0
    endloop
  endfacet
  facet normal -0 0 -1
    outer loop
      vertex -5.16831 -1.88111 0
      vertex -11.7378 -2.49494 0
      vertex -5.5 0 0
    endloop
  endfacet
  facet normal 0 0 -1
    outer loop
      vertex -5.5 0 0
      vertex -10.9625 4.88084 0
      vertex -9.7082 7.05342 0
    endloop
  endfacet
  facet normal 0 0 -1
    outer loop
      vertex -12 0 0
      vertex -5.5 0 0
      vertex -11.7378 -2.49494 0
    endloop
  endfacet
  facet normal 0 0 -1
    outer loop
      vertex -5.5 0 0
      vertex -11.7378 2.49494 0
      vertex -10.9625 4.88084 0
    endloop
  endfacet
  facet normal 0 0 -1
    outer loop
      vertex -5.5 0 0
      vertex -12 0 0
      vertex -11.7378 2.49494 0
    endloop
  endfacet
  facet normal -0 0 -1
    outer loop
      vertex 9.7082 7.05342 0
      vertex 4.21324 3.53533 0
      vertex 8.02957 8.91774 0
    endloop
  endfacet
  facet normal 0 0 -1
    outer loop
      vertex 2.75 4.76314 0
      vertex 8.02957 8.91774 0
      vertex 4.21324 3.53533 0
    endloop
  endfacet
  facet normal -0 0 -1
    outer loop
      vertex 8.02957 8.91774 0
      vertex 2.75 4.76314 0
      vertex 6 10.3923 0
    endloop
  endfacet
  facet normal -0 0 -1
    outer loop
      vertex 6 10.3923 0
      vertex 2.75 4.76314 0
      vertex 3.7082 11.4127 0
    endloop
  endfacet
  facet normal 0 0 -1
    outer loop
      vertex 0.955065 5.41644 0
      vertex 3.7082 11.4127 0
      vertex 2.75 4.76314 0
    endloop
  endfacet
  facet normal -0 0 -1
    outer loop
      vertex 3.7082 11.4127 0
      vertex 0.955065 5.41644 0
      vertex 1.25434 11.9343 0
    endloop
  endfacet
  facet normal 0 0 -1
    outer loop
      vertex -0.955065 5.41644 0
      vertex 1.25434 11.9343 0
      vertex 0.955065 5.41644 0
    endloop
  endfacet
  facet normal 0 0 -1
    outer loop
      vertex -0.955065 5.41644 0
      vertex -1.25434 11.9343 0
      vertex 1.25434 11.9343 0
    endloop
  endfacet
  facet normal 0 0 -1
    outer loop
      vertex -3.7082 11.4127 0
      vertex -0.955065 5.41644 0
      vertex -2.75 4.76314 0
    endloop
  endfacet
  facet normal 0 0 -1
    outer loop
      vertex -0.955065 5.41644 0
      vertex -3.7082 11.4127 0
      vertex -1.25434 11.9343 0
    endloop
  endfacet
  facet normal 0 0 -1
    outer loop
      vertex -6 10.3923 0
      vertex -2.75 4.76314 0
      vertex -4.21324 3.53533 0
    endloop
  endfacet
  facet normal 0 0 -1
    outer loop
      vertex -6 10.3923 0
      vertex -4.21324 3.53533 0
      vertex -5.16831 1.88111 0
    endloop
  endfacet
  facet normal 0 0 -1
    outer loop
      vertex -6 10.3923 0
      vertex -5.16831 1.88111 0
      vertex -5.5 0 0
    endloop
  endfacet
  facet normal 0 0 -1
    outer loop
      vertex -2.75 4.76314 0
      vertex -6 10.3923 0
      vertex -3.7082 11.4127 0
    endloop
  endfacet
  facet normal 0.130527 0.991445 0
    outer loop
      vertex 1.94114 7.24444 26.7676
      vertex 0.777523 7.39764 8.40297
      vertex 0.777523 7.39764 26.597
    endloop
  endfacet
  facet normal 0.130527 0.991445 0
    outer loop
      vertex 0.777523 7.39764 8.40297
      vertex 1.94114 7.24444 26.7676
      vertex 1.94114 7.24444 8.23241
    endloop
  endfacet
  facet normal 0.130527 0.991445 -0
    outer loop
      vertex 0.777523 7.39764 8.40297
      vertex 0 7.5 26.7866
      vertex 0.777523 7.39764 26.597
    endloop
  endfacet
  facet normal 0.130527 0.991445 0
    outer loop
      vertex 0 7.5 26.7866
      vertex 0.777523 7.39764 8.40297
      vertex 0 7.5 8.21337
    endloop
  endfacet
  facet normal 0 0 1
    outer loop
      vertex 11.7378 2.49494 35
      vertex 5.16831 1.88111 35
      vertex 5.5 0 35
    endloop
  endfacet
  facet normal 0 0 1
    outer loop
      vertex 8.02957 8.91774 35
      vertex 4.21324 3.53533 35
      vertex 5.16831 1.88111 35
    endloop
  endfacet
  facet normal 0 0 1
    outer loop
      vertex 2.75 4.76314 35
      vertex 6 10.3923 35
      vertex 3.7082 11.4127 35
    endloop
  endfacet
  facet normal 0 0 1
    outer loop
      vertex 8.02957 8.91774 35
      vertex 2.75 4.76314 35
      vertex 4.21324 3.53533 35
    endloop
  endfacet
  facet normal 0 0 1
    outer loop
      vertex 0.955065 5.41644 35
      vertex 3.7082 11.4127 35
      vertex 1.25434 11.9343 35
    endloop
  endfacet
  facet normal 0 0 1
    outer loop
      vertex 3.7082 11.4127 35
      vertex 0.955065 5.41644 35
      vertex 2.75 4.76314 35
    endloop
  endfacet
  facet normal 0 0 1
    outer loop
      vertex 1.25434 11.9343 35
      vertex -0.955065 5.41644 35
      vertex 0.955065 5.41644 35
    endloop
  endfacet
  facet normal -0 0 1
    outer loop
      vertex -1.25434 11.9343 35
      vertex -0.955065 5.41644 35
      vertex 1.25434 11.9343 35
    endloop
  endfacet
  facet normal -0 0 1
    outer loop
      vertex -3.7082 11.4127 35
      vertex -0.955065 5.41644 35
      vertex -1.25434 11.9343 35
    endloop
  endfacet
  facet normal 0 0 1
    outer loop
      vertex -0.955065 5.41644 35
      vertex -3.7082 11.4127 35
      vertex -2.75 4.76314 35
    endloop
  endfacet
  facet normal -0 0 1
    outer loop
      vertex -6 10.3923 35
      vertex -2.75 4.76314 35
      vertex -3.7082 11.4127 35
    endloop
  endfacet
  facet normal -0 0 1
    outer loop
      vertex -8.02957 8.91774 35
      vertex -2.75 4.76314 35
      vertex -6 10.3923 35
    endloop
  endfacet
  facet normal 0 0 1
    outer loop
      vertex -2.75 4.76314 35
      vertex -8.02957 8.91774 35
      vertex -4.21324 3.53533 35
    endloop
  endfacet
  facet normal -0 0 1
    outer loop
      vertex -9.7082 7.05342 35
      vertex -4.21324 3.53533 35
      vertex -8.02957 8.91774 35
    endloop
  endfacet
  facet normal 0 0 1
    outer loop
      vertex 5.5 0 35
      vertex 12 0 35
      vertex 11.7378 2.49494 35
    endloop
  endfacet
  facet normal 0 0 1
    outer loop
      vertex 5.16831 1.88111 35
      vertex 11.7378 2.49494 35
      vertex 10.9625 4.88084 35
    endloop
  endfacet
  facet normal 0 0 1
    outer loop
      vertex 12 0 35
      vertex 5.5 0 35
      vertex 11.7378 -2.49494 35
    endloop
  endfacet
  facet normal 0 0 1
    outer loop
      vertex 5.16831 1.88111 35
      vertex 10.9625 4.88084 35
      vertex 9.7082 7.05342 35
    endloop
  endfacet
  facet normal -0 0 1
    outer loop
      vertex 5.16831 -1.88111 35
      vertex 11.7378 -2.49494 35
      vertex 5.5 0 35
    endloop
  endfacet
  facet normal 0 0 1
    outer loop
      vertex 5.16831 1.88111 35
      vertex 9.7082 7.05342 35
      vertex 8.02957 8.91774 35
    endloop
  endfacet
  facet normal 0 0 1
    outer loop
      vertex 11.7378 -2.49494 35
      vertex 5.16831 -1.88111 35
      vertex 10.9625 -4.88084 35
    endloop
  endfacet
  facet normal 0 0 1
    outer loop
      vertex 10.9625 -4.88084 35
      vertex 5.16831 -1.88111 35
      vertex 9.7082 -7.05342 35
    endloop
  endfacet
  facet normal 0 0 1
    outer loop
      vertex 2.75 4.76314 35
      vertex 8.02957 8.91774 35
      vertex 6 10.3923 35
    endloop
  endfacet
  facet normal -0 0 1
    outer loop
      vertex 4.21324 -3.53533 35
      vertex 9.7082 -7.05342 35
      vertex 5.16831 -1.88111 35
    endloop
  endfacet
  facet normal 0 0 1
    outer loop
      vertex 9.7082 -7.05342 35
      vertex 4.21324 -3.53533 35
      vertex 8.02957 -8.91774 35
    endloop
  endfacet
  facet normal -0 0 1
    outer loop
      vertex 2.75 -4.76314 35
      vertex 8.02957 -8.91774 35
      vertex 4.21324 -3.53533 35
    endloop
  endfacet
  facet normal 0 0 1
    outer loop
      vertex 8.02957 -8.91774 35
      vertex 2.75 -4.76314 35
      vertex 6 -10.3923 35
    endloop
  endfacet
  facet normal 0 0 1
    outer loop
      vertex 6 -10.3923 35
      vertex 2.75 -4.76314 35
      vertex 3.7082 -11.4127 35
    endloop
  endfacet
  facet normal -0 0 1
    outer loop
      vertex 0.955065 -5.41644 35
      vertex 3.7082 -11.4127 35
      vertex 2.75 -4.76314 35
    endloop
  endfacet
  facet normal 0 0 1
    outer loop
      vertex 3.7082 -11.4127 35
      vertex 0.955065 -5.41644 35
      vertex 1.25434 -11.9343 35
    endloop
  endfacet
  facet normal -0 0 1
    outer loop
      vertex -0.955065 -5.41644 35
      vertex 1.25434 -11.9343 35
      vertex 0.955065 -5.41644 35
    endloop
  endfacet
  facet normal 0 0 1
    outer loop
      vertex -0.955065 -5.41644 35
      vertex -1.25434 -11.9343 35
      vertex 1.25434 -11.9343 35
    endloop
  endfacet
  facet normal 0 0 1
    outer loop
      vertex -3.7082 -11.4127 35
      vertex -0.955065 -5.41644 35
      vertex -2.75 -4.76314 35
    endloop
  endfacet
  facet normal 0 0 1
    outer loop
      vertex -0.955065 -5.41644 35
      vertex -3.7082 -11.4127 35
      vertex -1.25434 -11.9343 35
    endloop
  endfacet
  facet normal 0 0 1
    outer loop
      vertex -8.02957 -8.91774 35
      vertex -2.75 -4.76314 35
      vertex -4.21324 -3.53533 35
    endloop
  endfacet
  facet normal 0 0 1
    outer loop
      vertex -9.7082 -7.05342 35
      vertex -4.21324 -3.53533 35
      vertex -5.16831 -1.88111 35
    endloop
  endfacet
  facet normal 0 0 1
    outer loop
      vertex -11.7378 -2.49494 35
      vertex -5.16831 -1.88111 35
      vertex -5.5 0 35
    endloop
  endfacet
  facet normal 0 0 1
    outer loop
      vertex -2.75 -4.76314 35
      vertex -6 -10.3923 35
      vertex -3.7082 -11.4127 35
    endloop
  endfacet
  facet normal 0 0 1
    outer loop
      vertex -4.21324 3.53533 35
      vertex -9.7082 7.05342 35
      vertex -5.16831 1.88111 35
    endloop
  endfacet
  facet normal -0 0 1
    outer loop
      vertex -10.9625 4.88084 35
      vertex -5.16831 1.88111 35
      vertex -9.7082 7.05342 35
    endloop
  endfacet
  facet normal 0 0 1
    outer loop
      vertex -2.75 -4.76314 35
      vertex -8.02957 -8.91774 35
      vertex -6 -10.3923 35
    endloop
  endfacet
  facet normal -0 0 1
    outer loop
      vertex -11.7378 2.49494 35
      vertex -5.16831 1.88111 35
      vertex -10.9625 4.88084 35
    endloop
  endfacet
  facet normal 0 0 1
    outer loop
      vertex -4.21324 -3.53533 35
      vertex -9.7082 -7.05342 35
      vertex -8.02957 -8.91774 35
    endloop
  endfacet
  facet normal 0 0 1
    outer loop
      vertex -5.16831 1.88111 35
      vertex -11.7378 2.49494 35
      vertex -5.5 0 35
    endloop
  endfacet
  facet normal 0 0 1
    outer loop
      vertex -5.16831 -1.88111 35
      vertex -10.9625 -4.88084 35
      vertex -9.7082 -7.05342 35
    endloop
  endfacet
  facet normal 0 0 1
    outer loop
      vertex -12 0 35
      vertex -5.5 0 35
      vertex -11.7378 2.49494 35
    endloop
  endfacet
  facet normal 0 0 1
    outer loop
      vertex -5.16831 -1.88111 35
      vertex -11.7378 -2.49494 35
      vertex -10.9625 -4.88084 35
    endloop
  endfacet
  facet normal 0 0 1
    outer loop
      vertex -5.5 0 35
      vertex -12 0 35
      vertex -11.7378 -2.49494 35
    endloop
  endfacet
  facet normal -0.793354 0.608761 0
    outer loop
      vertex -5.86645 4.5694 8.36685
      vertex -5.3033 5.3033 26.7676
      vertex -5.3033 5.3033 8.23241
    endloop
  endfacet
  facet normal -0.793354 0.608761 0
    outer loop
      vertex -5.86645 4.5694 8.36685
      vertex -5.86645 4.5694 26.6332
      vertex -5.3033 5.3033 26.7676
    endloop
  endfacet
  facet normal -0.793354 0.608761 0
    outer loop
      vertex -6.01778 4.37217 8.40297
      vertex -5.86645 4.5694 26.6332
      vertex -5.86645 4.5694 8.36685
    endloop
  endfacet
  facet normal -0.793354 0.608761 0
    outer loop
      vertex -6.01778 4.37217 8.40297
      vertex -6.01778 4.37217 26.597
      vertex -5.86645 4.5694 26.6332
    endloop
  endfacet
  facet normal -0.793354 0.608761 0
    outer loop
      vertex -6.49519 3.75 8.21337
      vertex -6.01778 4.37217 26.597
      vertex -6.01778 4.37217 8.40297
    endloop
  endfacet
  facet normal -0.793354 0.608761 0
    outer loop
      vertex -6.01778 4.37217 26.597
      vertex -6.49519 3.75 8.21337
      vertex -6.49519 3.75 26.7866
    endloop
  endfacet
  facet normal -0.382685 0.923879 0
    outer loop
      vertex -2.07694 7.18819 8.28203
      vertex -2.07694 7.18819 26.718
      vertex -1.94114 7.24444 26.7676
    endloop
  endfacet
  facet normal -0.382683 0.92388 0
    outer loop
      vertex -2.07694 7.18819 26.718
      vertex -2.3049 7.09377 8.36531
      vertex -2.3049 7.09377 26.6347
    endloop
  endfacet
  facet normal -0.382683 0.92388 0
    outer loop
      vertex -2.07694 7.18819 26.718
      vertex -2.07694 7.18819 8.28203
      vertex -2.3049 7.09377 8.36531
    endloop
  endfacet
  facet normal -0.382685 0.923879 0
    outer loop
      vertex -2.07694 7.18819 8.28203
      vertex -1.94114 7.24444 26.7676
      vertex -1.94114 7.24444 8.23241
    endloop
  endfacet
  facet normal -0.382684 0.923879 1.40275e-08
    outer loop
      vertex -3.52023 6.59036 8.30153
      vertex -3.52023 6.59036 26.6985
      vertex -2.3049 7.09377 26.6347
    endloop
  endfacet
  facet normal -0.382683 0.92388 0
    outer loop
      vertex -3.52023 6.59036 8.30153
      vertex -2.3049 7.09377 26.6347
      vertex -2.3049 7.09377 8.36531
    endloop
  endfacet
  facet normal -0.382683 0.92388 1.40275e-08
    outer loop
      vertex -3.52023 6.59036 26.6985
      vertex -3.52023 6.59036 8.30153
      vertex -3.75 6.49519 26.7105
    endloop
  endfacet
  facet normal -0.382684 0.923879 0
    outer loop
      vertex -3.52023 6.59036 8.30153
      vertex -3.75 6.49519 8.28947
      vertex -3.75 6.49519 26.7105
    endloop
  endfacet
  facet normal -0.608761 0.793354 0
    outer loop
      vertex -3.9473 6.34379 26.6985
      vertex -4.99093 5.54299 8.36531
      vertex -4.99093 5.54299 26.6347
    endloop
  endfacet
  facet normal -0.608761 0.793354 1.26739e-08
    outer loop
      vertex -3.9473 6.34379 8.30153
      vertex -3.9473 6.34379 26.6985
      vertex -3.75 6.49519 26.7105
    endloop
  endfacet
  facet normal -0.608761 0.793354 1.26739e-08
    outer loop
      vertex -3.9473 6.34379 26.6985
      vertex -3.9473 6.34379 8.30153
      vertex -4.99093 5.54299 8.36531
    endloop
  endfacet
  facet normal -0.60876 0.793354 0
    outer loop
      vertex -3.9473 6.34379 8.30153
      vertex -3.75 6.49519 26.7105
      vertex -3.75 6.49519 8.28947
    endloop
  endfacet
  facet normal -0.608761 0.793354 0
    outer loop
      vertex -4.99093 5.54299 8.36531
      vertex -5.3033 5.3033 26.7676
      vertex -4.99093 5.54299 26.6347
    endloop
  endfacet
  facet normal -0.608761 0.793354 0
    outer loop
      vertex -5.3033 5.3033 26.7676
      vertex -4.99093 5.54299 8.36531
      vertex -5.3033 5.3033 8.23241
    endloop
  endfacet
  facet normal 0.991445 0.130526 0
    outer loop
      vertex 7.29584 1.55078 26.6347
      vertex 7.24444 1.94114 8.23241
      vertex 7.24444 1.94114 26.7676
    endloop
  endfacet
  facet normal 0.991445 0.130526 0
    outer loop
      vertex 7.29584 1.55078 26.6347
      vertex 7.29584 1.55078 8.36531
      vertex 7.24444 1.94114 8.23241
    endloop
  endfacet
  facet normal 0.991445 0.130527 0
    outer loop
      vertex 7.32832 1.30403 26.6468
      vertex 7.29584 1.55078 8.36531
      vertex 7.29584 1.55078 26.6347
    endloop
  endfacet
  facet normal 0.991445 0.130527 0
    outer loop
      vertex 7.32832 1.30403 26.6468
      vertex 7.32832 1.30403 8.35325
      vertex 7.29584 1.55078 8.36531
    endloop
  endfacet
  facet normal 0.991445 0.130527 0
    outer loop
      vertex 7.5 0 26.7105
      vertex 7.32832 1.30403 8.35325
      vertex 7.32832 1.30403 26.6468
    endloop
  endfacet
  facet normal 0.991445 0.130527 0
    outer loop
      vertex 7.32832 1.30403 8.35325
      vertex 7.5 0 26.7105
      vertex 7.5 0 8.28947
    endloop
  endfacet
  facet normal 0.130527 -0.991445 0
    outer loop
      vertex 0 -7.5 26.7866
      vertex 0.777523 -7.39764 8.40297
      vertex 0.777523 -7.39764 26.597
    endloop
  endfacet
  facet normal 0.130527 -0.991445 0
    outer loop
      vertex 0.777523 -7.39764 8.40297
      vertex 0 -7.5 26.7866
      vertex 0 -7.5 8.21337
    endloop
  endfacet
  facet normal 0.130527 -0.991445 0
    outer loop
      vertex 0.777523 -7.39764 8.40297
      vertex 1.94114 -7.24444 26.7676
      vertex 0.777523 -7.39764 26.597
    endloop
  endfacet
  facet normal 0.130527 -0.991445 0
    outer loop
      vertex 1.94114 -7.24444 26.7676
      vertex 0.777523 -7.39764 8.40297
      vertex 1.94114 -7.24444 8.23241
    endloop
  endfacet
  facet normal 0.793353 -0.608761 0
    outer loop
      vertex 6.01778 -4.37217 26.597
      vertex 6.49519 -3.75 8.21337
      vertex 6.49519 -3.75 26.7866
    endloop
  endfacet
  facet normal 0.793353 -0.608761 0
    outer loop
      vertex 6.01778 -4.37217 26.597
      vertex 6.01778 -4.37217 8.40297
      vertex 6.49519 -3.75 8.21337
    endloop
  endfacet
  facet normal 0.793354 -0.608761 0
    outer loop
      vertex 5.86645 -4.5694 26.6332
      vertex 6.01778 -4.37217 8.40297
      vertex 6.01778 -4.37217 26.597
    endloop
  endfacet
  facet normal 0.793354 -0.608761 0
    outer loop
      vertex 5.86645 -4.5694 26.6332
      vertex 5.86645 -4.5694 8.36685
      vertex 6.01778 -4.37217 8.40297
    endloop
  endfacet
  facet normal 0.793354 -0.608761 0
    outer loop
      vertex 5.3033 -5.3033 26.7676
      vertex 5.86645 -4.5694 8.36685
      vertex 5.86645 -4.5694 26.6332
    endloop
  endfacet
  facet normal 0.793354 -0.608761 0
    outer loop
      vertex 5.86645 -4.5694 8.36685
      vertex 5.3033 -5.3033 26.7676
      vertex 5.3033 -5.3033 8.23241
    endloop
  endfacet
  facet normal 0.923879 -0.382684 0
    outer loop
      vertex 6.89044 -2.79579 26.6332
      vertex 7.24444 -1.94114 8.23241
      vertex 7.24444 -1.94114 26.7676
    endloop
  endfacet
  facet normal 0.923879 -0.382684 0
    outer loop
      vertex 6.89044 -2.79579 26.6332
      vertex 6.89044 -2.79579 8.36685
      vertex 7.24444 -1.94114 8.23241
    endloop
  endfacet
  facet normal 0.92388 -0.382683 0
    outer loop
      vertex 6.7953 -3.02546 26.597
      vertex 6.89044 -2.79579 8.36685
      vertex 6.89044 -2.79579 26.6332
    endloop
  endfacet
  facet normal 0.92388 -0.382683 0
    outer loop
      vertex 6.7953 -3.02546 26.597
      vertex 6.7953 -3.02546 8.40298
      vertex 6.89044 -2.79579 8.36685
    endloop
  endfacet
  facet normal 0.92388 -0.382682 0
    outer loop
      vertex 6.70044 -3.25448 26.657
      vertex 6.7953 -3.02546 8.40298
      vertex 6.7953 -3.02546 26.597
    endloop
  endfacet
  facet normal 0.92388 -0.382682 0
    outer loop
      vertex 6.70044 -3.25448 26.657
      vertex 6.70044 -3.25448 8.34304
      vertex 6.7953 -3.02546 8.40298
    endloop
  endfacet
  facet normal 0.923879 -0.382684 0
    outer loop
      vertex 6.49519 -3.75 26.7866
      vertex 6.70044 -3.25448 8.34304
      vertex 6.70044 -3.25448 26.657
    endloop
  endfacet
  facet normal 0.923879 -0.382684 0
    outer loop
      vertex 6.70044 -3.25448 8.34304
      vertex 6.49519 -3.75 26.7866
      vertex 6.49519 -3.75 8.21337
    endloop
  endfacet
  facet normal 0.382685 -0.923879 0
    outer loop
      vertex 2.07694 -7.18819 8.28203
      vertex 2.07694 -7.18819 26.718
      vertex 1.94114 -7.24444 26.7676
    endloop
  endfacet
  facet normal 0.382683 -0.92388 0
    outer loop
      vertex 2.07694 -7.18819 26.718
      vertex 2.3049 -7.09377 8.36531
      vertex 2.3049 -7.09377 26.6347
    endloop
  endfacet
  facet normal 0.382683 -0.92388 0
    outer loop
      vertex 2.07694 -7.18819 26.718
      vertex 2.07694 -7.18819 8.28203
      vertex 2.3049 -7.09377 8.36531
    endloop
  endfacet
  facet normal 0.382685 -0.923879 0
    outer loop
      vertex 2.07694 -7.18819 8.28203
      vertex 1.94114 -7.24444 26.7676
      vertex 1.94114 -7.24444 8.23241
    endloop
  endfacet
  facet normal 0.382683 -0.92388 0
    outer loop
      vertex 2.53483 -6.99853 8.35325
      vertex 3.75 -6.49519 26.7105
      vertex 2.53483 -6.99853 26.6468
    endloop
  endfacet
  facet normal 0.382684 -0.923879 0
    outer loop
      vertex 2.3049 -7.09377 8.36531
      vertex 2.53483 -6.99853 26.6468
      vertex 2.3049 -7.09377 26.6347
    endloop
  endfacet
  facet normal 0.382684 -0.923879 0
    outer loop
      vertex 2.53483 -6.99853 8.35325
      vertex 2.53483 -6.99853 26.6468
      vertex 2.3049 -7.09377 8.36531
    endloop
  endfacet
  facet normal 0.382683 -0.92388 0
    outer loop
      vertex 3.75 -6.49519 8.28947
      vertex 3.75 -6.49519 26.7105
      vertex 2.53483 -6.99853 8.35325
    endloop
  endfacet
  facet normal -0.130527 -0.991445 0
    outer loop
      vertex -1.94114 -7.24444 26.7676
      vertex -0.777523 -7.39764 8.40297
      vertex -0.777523 -7.39764 26.597
    endloop
  endfacet
  facet normal -0.130527 -0.991445 0
    outer loop
      vertex -0.777523 -7.39764 8.40297
      vertex -1.94114 -7.24444 26.7676
      vertex -1.94114 -7.24444 8.23241
    endloop
  endfacet
  facet normal -0.130527 -0.991445 0
    outer loop
      vertex -0.777523 -7.39764 8.40297
      vertex 0 -7.5 26.7866
      vertex -0.777523 -7.39764 26.597
    endloop
  endfacet
  facet normal -0.130527 -0.991445 -0
    outer loop
      vertex 0 -7.5 26.7866
      vertex -0.777523 -7.39764 8.40297
      vertex 0 -7.5 8.21337
    endloop
  endfacet
  facet normal -0.923879 -0.382684 0
    outer loop
      vertex -6.89044 -2.79579 8.36685
      vertex -7.24444 -1.94114 26.7676
      vertex -7.24444 -1.94114 8.23241
    endloop
  endfacet
  facet normal -0.923879 -0.382684 0
    outer loop
      vertex -6.89044 -2.79579 8.36685
      vertex -6.89044 -2.79579 26.6332
      vertex -7.24444 -1.94114 26.7676
    endloop
  endfacet
  facet normal -0.92388 -0.382683 0
    outer loop
      vertex -6.7953 -3.02546 8.40298
      vertex -6.89044 -2.79579 26.6332
      vertex -6.89044 -2.79579 8.36685
    endloop
  endfacet
  facet normal -0.92388 -0.382683 0
    outer loop
      vertex -6.7953 -3.02546 8.40298
      vertex -6.7953 -3.02546 26.597
      vertex -6.89044 -2.79579 26.6332
    endloop
  endfacet
  facet normal -0.923879 -0.382684 0
    outer loop
      vertex -6.70044 -3.25448 8.34304
      vertex -6.7953 -3.02546 26.597
      vertex -6.7953 -3.02546 8.40298
    endloop
  endfacet
  facet normal -0.923879 -0.382684 0
    outer loop
      vertex -6.70044 -3.25448 8.34304
      vertex -6.70044 -3.25448 26.657
      vertex -6.7953 -3.02546 26.597
    endloop
  endfacet
  facet normal -0.92388 -0.382683 0
    outer loop
      vertex -6.49519 -3.75 8.21337
      vertex -6.70044 -3.25448 26.657
      vertex -6.70044 -3.25448 8.34304
    endloop
  endfacet
  facet normal -0.92388 -0.382683 0
    outer loop
      vertex -6.70044 -3.25448 26.657
      vertex -6.49519 -3.75 8.21337
      vertex -6.49519 -3.75 26.7866
    endloop
  endfacet
  facet normal -0.793354 -0.608761 0
    outer loop
      vertex -6.01778 -4.37217 8.40297
      vertex -6.49519 -3.75 26.7866
      vertex -6.49519 -3.75 8.21337
    endloop
  endfacet
  facet normal -0.793354 -0.608761 0
    outer loop
      vertex -6.01778 -4.37217 8.40297
      vertex -6.01778 -4.37217 26.597
      vertex -6.49519 -3.75 26.7866
    endloop
  endfacet
  facet normal -0.793354 -0.608761 0
    outer loop
      vertex -5.86645 -4.5694 8.36685
      vertex -6.01778 -4.37217 26.597
      vertex -6.01778 -4.37217 8.40297
    endloop
  endfacet
  facet normal -0.793354 -0.608761 0
    outer loop
      vertex -5.86645 -4.5694 8.36685
      vertex -5.86645 -4.5694 26.6332
      vertex -6.01778 -4.37217 26.597
    endloop
  endfacet
  facet normal -0.793354 -0.608761 0
    outer loop
      vertex -5.3033 -5.3033 8.23241
      vertex -5.86645 -4.5694 26.6332
      vertex -5.86645 -4.5694 8.36685
    endloop
  endfacet
  facet normal -0.793354 -0.608761 0
    outer loop
      vertex -5.86645 -4.5694 26.6332
      vertex -5.3033 -5.3033 8.23241
      vertex -5.3033 -5.3033 26.7676
    endloop
  endfacet
  facet normal 0.382684 0.923879 0
    outer loop
      vertex 2.53483 6.99853 26.6468
      vertex 2.3049 7.09377 8.36531
      vertex 2.3049 7.09377 26.6347
    endloop
  endfacet
  facet normal 0.382683 0.92388 0
    outer loop
      vertex 3.75 6.49519 26.7105
      vertex 2.53483 6.99853 8.35325
      vertex 2.53483 6.99853 26.6468
    endloop
  endfacet
  facet normal 0.382684 0.923879 0
    outer loop
      vertex 2.53483 6.99853 26.6468
      vertex 2.53483 6.99853 8.35325
      vertex 2.3049 7.09377 8.36531
    endloop
  endfacet
  facet normal 0.382683 0.92388 4.95296e-09
    outer loop
      vertex 3.75 6.49519 26.7105
      vertex 3.75 6.49519 8.28947
      vertex 2.53483 6.99853 8.35325
    endloop
  endfacet
  facet normal 0.382683 0.92388 -0
    outer loop
      vertex 2.3049 7.09377 8.36531
      vertex 2.07694 7.18819 26.718
      vertex 2.3049 7.09377 26.6347
    endloop
  endfacet
  facet normal 0.382683 0.92388 -0
    outer loop
      vertex 2.07694 7.18819 8.28203
      vertex 2.07694 7.18819 26.718
      vertex 2.3049 7.09377 8.36531
    endloop
  endfacet
  facet normal 0.382685 0.923879 0
    outer loop
      vertex 2.07694 7.18819 26.718
      vertex 2.07694 7.18819 8.28203
      vertex 1.94114 7.24444 26.7676
    endloop
  endfacet
  facet normal 0.382685 0.923879 0
    outer loop
      vertex 1.94114 7.24444 26.7676
      vertex 2.07694 7.18819 8.28203
      vertex 1.94114 7.24444 8.23241
    endloop
  endfacet
  facet normal 0.875128 0.0919798 0.475069
    outer loop
      vertex 12 0 0
      vertex 7.32832 1.30403 8.35325
      vertex 7.5 0 8.28947
    endloop
  endfacet
  facet normal 0.875128 0.0919797 0.475069
    outer loop
      vertex 7.32832 1.30403 8.35325
      vertex 12 0 0
      vertex 11.7378 2.49494 0
    endloop
  endfacet
  facet normal 0.836881 0.271919 0.475069
    outer loop
      vertex 6.89044 2.79579 8.36685
      vertex 11.7378 2.49494 0
      vertex 10.9625 4.88084 0
    endloop
  endfacet
  facet normal 0.836881 0.271919 0.475069
    outer loop
      vertex 7.24444 1.94114 8.23241
      vertex 11.7378 2.49494 0
      vertex 6.89044 2.79579 8.36685
    endloop
  endfacet
  facet normal 0.836881 0.271918 0.475069
    outer loop
      vertex 11.7378 2.49494 0
      vertex 7.24444 1.94114 8.23241
      vertex 7.29584 1.55078 8.36531
    endloop
  endfacet
  facet normal -0.65393 -0.588799 0.475069
    outer loop
      vertex -6.01778 -4.37217 8.40297
      vertex -9.7082 -7.05342 0
      vertex -5.86645 -4.5694 8.36685
    endloop
  endfacet
  facet normal -3.38659e-07 0.879948 0.475069
    outer loop
      vertex 0.777523 7.39764 8.40297
      vertex 1.25434 11.9343 0
      vertex 0 7.5 8.21337
    endloop
  endfacet
  facet normal -0 0.879948 0.475069
    outer loop
      vertex -1.25434 11.9343 0
      vertex 0 7.5 8.21337
      vertex 1.25434 11.9343 0
    endloop
  endfacet
  facet normal 3.38659e-07 0.879948 0.475069
    outer loop
      vertex 0 7.5 8.21337
      vertex -1.25434 11.9343 0
      vertex -0.777523 7.39764 8.40297
    endloop
  endfacet
  facet normal 0.762057 -0.439975 0.475069
    outer loop
      vertex 6.49519 -3.75 8.21337
      vertex 10.9625 -4.88084 0
      vertex 6.70044 -3.25448 8.34304
    endloop
  endfacet
  facet normal 0.762057 -0.439974 0.475069
    outer loop
      vertex 6.01778 -4.37217 8.40297
      vertex 10.9625 -4.88084 0
      vertex 6.49519 -3.75 8.21337
    endloop
  endfacet
  facet normal 0.762058 -0.439974 0.475069
    outer loop
      vertex 10.9625 -4.88084 0
      vertex 6.01778 -4.37217 8.40297
      vertex 9.7082 -7.05342 0
    endloop
  endfacet
  facet normal -0.51722 0.711894 0.475069
    outer loop
      vertex -3.9473 6.34379 8.30153
      vertex -3.75 6.49519 8.28947
      vertex -6 10.3923 0
    endloop
  endfacet
  facet normal 0.836881 -0.271919 0.475069
    outer loop
      vertex 6.89044 -2.79579 8.36685
      vertex 6.7953 -3.02546 8.40298
      vertex 10.9625 -4.88084 0
    endloop
  endfacet
  facet normal -0.762058 0.439974 0.475069
    outer loop
      vertex -10.9625 4.88084 0
      vertex -6.01778 4.37217 8.40297
      vertex -9.7082 7.05342 0
    endloop
  endfacet
  facet normal -0.762058 0.439974 0.475069
    outer loop
      vertex -10.9625 4.88084 0
      vertex -6.49519 3.75 8.21337
      vertex -6.01778 4.37217 8.40297
    endloop
  endfacet
  facet normal -0.762057 0.439974 0.475069
    outer loop
      vertex -6.49519 3.75 8.21337
      vertex -10.9625 4.88084 0
      vertex -6.70044 3.25448 8.34304
    endloop
  endfacet
  facet normal 0.517221 -0.711893 0.475069
    outer loop
      vertex 6 -10.3923 0
      vertex 4.79349 -5.69449 8.35325
      vertex 3.75 -6.49519 8.28947
    endloop
  endfacet
  facet normal 0.517221 -0.711893 0.475069
    outer loop
      vertex 4.79349 -5.69449 8.35325
      vertex 6 -10.3923 0
      vertex 8.02957 -8.91774 0
    endloop
  endfacet
  facet normal 0.357907 0.803873 0.475069
    outer loop
      vertex 3.7082 11.4127 0
      vertex 3.75 6.49519 8.28947
      vertex 6 10.3923 0
    endloop
  endfacet
  facet normal 0.357907 0.803873 0.475069
    outer loop
      vertex 3.75 6.49519 8.28947
      vertex 3.7082 11.4127 0
      vertex 2.53483 6.99853 8.35325
    endloop
  endfacet
  facet normal 0.762058 0.439974 0.475069
    outer loop
      vertex 6.01778 4.37217 8.40297
      vertex 10.9625 4.88084 0
      vertex 9.7082 7.05342 0
    endloop
  endfacet
  facet normal 0.762058 0.439974 0.475069
    outer loop
      vertex 6.49519 3.75 8.21337
      vertex 10.9625 4.88084 0
      vertex 6.01778 4.37217 8.40297
    endloop
  endfacet
  facet normal 0.762057 0.439974 0.475069
    outer loop
      vertex 10.9625 4.88084 0
      vertex 6.49519 3.75 8.21337
      vertex 6.70044 3.25448 8.34304
    endloop
  endfacet
  facet normal 0.83688 0.271921 0.47507
    outer loop
      vertex 10.9625 4.88084 0
      vertex 6.7953 3.02546 8.40298
      vertex 6.89044 2.79579 8.36685
    endloop
  endfacet
  facet normal 0.875128 -0.0919798 0.475069
    outer loop
      vertex 7.32832 -1.30403 8.35325
      vertex 12 0 0
      vertex 7.5 0 8.28947
    endloop
  endfacet
  facet normal 0.875128 -0.0919797 0.475069
    outer loop
      vertex 12 0 0
      vertex 7.32832 -1.30403 8.35325
      vertex 11.7378 -2.49494 0
    endloop
  endfacet
  facet normal -0.762058 0.439974 0.475069
    outer loop
      vertex -6.70044 3.25448 8.34304
      vertex -10.9625 4.88084 0
      vertex -6.7953 3.02546 8.40298
    endloop
  endfacet
  facet normal -0.517221 0.711893 0.475069
    outer loop
      vertex -6 10.3923 0
      vertex -4.99093 5.54299 8.36531
      vertex -3.9473 6.34379 8.30153
    endloop
  endfacet
  facet normal -0.517221 0.711893 0.475069
    outer loop
      vertex -4.99093 5.54299 8.36531
      vertex -6 10.3923 0
      vertex -8.02957 8.91774 0
    endloop
  endfacet
  facet normal -0.182952 0.860719 0.475069
    outer loop
      vertex -0.777523 7.39764 8.40297
      vertex -1.25434 11.9343 0
      vertex -1.94114 7.24444 8.23241
    endloop
  endfacet
  facet normal -0.182952 0.860719 0.475069
    outer loop
      vertex -3.7082 11.4127 0
      vertex -1.94114 7.24444 8.23241
      vertex -1.25434 11.9343 0
    endloop
  endfacet
  facet normal -0.182951 0.860719 0.475069
    outer loop
      vertex -1.94114 7.24444 8.23241
      vertex -3.7082 11.4127 0
      vertex -2.07694 7.18819 8.28203
    endloop
  endfacet
  facet normal -0.875128 -0.0919798 0.475069
    outer loop
      vertex -12 0 0
      vertex -7.32832 -1.30403 8.35325
      vertex -7.5 0 8.28947
    endloop
  endfacet
  facet normal -0.875128 -0.0919797 0.475069
    outer loop
      vertex -7.32832 -1.30403 8.35325
      vertex -12 0 0
      vertex -11.7378 -2.49494 0
    endloop
  endfacet
  facet normal -0.517221 -0.711893 0.475069
    outer loop
      vertex -6 -10.3923 0
      vertex -4.79349 -5.69449 8.35325
      vertex -8.02957 -8.91774 0
    endloop
  endfacet
  facet normal -0.517221 -0.711893 0.475069
    outer loop
      vertex -4.79349 -5.69449 8.35325
      vertex -6 -10.3923 0
      vertex -3.75 -6.49519 8.28947
    endloop
  endfacet
  facet normal -0.182951 -0.860719 0.475069
    outer loop
      vertex -2.07694 -7.18819 8.28203
      vertex -3.7082 -11.4127 0
      vertex -1.94114 -7.24444 8.23241
    endloop
  endfacet
  facet normal -0.182952 -0.860719 0.475069
    outer loop
      vertex -1.25434 -11.9343 0
      vertex -1.94114 -7.24444 8.23241
      vertex -3.7082 -11.4127 0
    endloop
  endfacet
  facet normal -0.182952 -0.860719 0.475069
    outer loop
      vertex -1.94114 -7.24444 8.23241
      vertex -1.25434 -11.9343 0
      vertex -0.777523 -7.39764 8.40297
    endloop
  endfacet
  facet normal 0.357907 -0.803873 0.475069
    outer loop
      vertex 3.7082 -11.4127 0
      vertex 3.75 -6.49519 8.28947
      vertex 2.53483 -6.99853 8.35325
    endloop
  endfacet
  facet normal 0.357907 -0.803873 0.475069
    outer loop
      vertex 3.75 -6.49519 8.28947
      vertex 3.7082 -11.4127 0
      vertex 6 -10.3923 0
    endloop
  endfacet
  facet normal 0.182951 0.860719 0.475069
    outer loop
      vertex 2.07694 7.18819 8.28203
      vertex 3.7082 11.4127 0
      vertex 1.94114 7.24444 8.23241
    endloop
  endfacet
  facet normal 0.182952 0.860719 0.475069
    outer loop
      vertex 1.25434 11.9343 0
      vertex 1.94114 7.24444 8.23241
      vertex 3.7082 11.4127 0
    endloop
  endfacet
  facet normal 0.182952 0.860719 0.475069
    outer loop
      vertex 1.94114 7.24444 8.23241
      vertex 1.25434 11.9343 0
      vertex 0.777523 7.39764 8.40297
    endloop
  endfacet
  facet normal 0.653929 0.5888 0.475069
    outer loop
      vertex 4.99093 5.54299 8.36531
      vertex 9.7082 7.05342 0
      vertex 8.02957 8.91774 0
    endloop
  endfacet
  facet normal 0.653929 0.5888 0.475069
    outer loop
      vertex 5.3033 5.3033 8.23241
      vertex 9.7082 7.05342 0
      vertex 4.99093 5.54299 8.36531
    endloop
  endfacet
  facet normal 0.653929 0.588801 0.475069
    outer loop
      vertex 9.7082 7.05342 0
      vertex 5.3033 5.3033 8.23241
      vertex 5.86645 4.5694 8.36685
    endloop
  endfacet
  facet normal 0.51722 0.711893 0.475069
    outer loop
      vertex 8.02957 8.91774 0
      vertex 4.79349 5.69449 8.35325
      vertex 4.99093 5.54299 8.36531
    endloop
  endfacet
  facet normal 0.517221 0.711893 0.475069
    outer loop
      vertex 6 10.3923 0
      vertex 4.79349 5.69449 8.35325
      vertex 8.02957 8.91774 0
    endloop
  endfacet
  facet normal 0.517221 0.711893 0.475069
    outer loop
      vertex 4.79349 5.69449 8.35325
      vertex 6 10.3923 0
      vertex 3.75 6.49519 8.28947
    endloop
  endfacet
  facet normal 0.65393 0.588799 0.475069
    outer loop
      vertex 9.7082 7.05342 0
      vertex 5.86645 4.5694 8.36685
      vertex 6.01778 4.37217 8.40297
    endloop
  endfacet
  facet normal 0.51722 -0.711893 0.475069
    outer loop
      vertex 4.99093 -5.54299 8.36531
      vertex 4.79349 -5.69449 8.35325
      vertex 8.02957 -8.91774 0
    endloop
  endfacet
  facet normal 0.653929 -0.588801 0.475069
    outer loop
      vertex 6.01778 -4.37217 8.40297
      vertex 5.86645 -4.5694 8.36685
      vertex 9.7082 -7.05342 0
    endloop
  endfacet
  facet normal 0.653929 -0.5888 0.475069
    outer loop
      vertex 5.3033 -5.3033 8.23241
      vertex 9.7082 -7.05342 0
      vertex 5.86645 -4.5694 8.36685
    endloop
  endfacet
  facet normal 0.653929 -0.5888 0.475069
    outer loop
      vertex 4.99093 -5.54299 8.36531
      vertex 9.7082 -7.05342 0
      vertex 5.3033 -5.3033 8.23241
    endloop
  endfacet
  facet normal 0.653929 -0.5888 0.475069
    outer loop
      vertex 9.7082 -7.05342 0
      vertex 4.99093 -5.54299 8.36531
      vertex 8.02957 -8.91774 0
    endloop
  endfacet
  facet normal 0.836881 -0.271918 0.475069
    outer loop
      vertex 7.24444 -1.94114 8.23241
      vertex 11.7378 -2.49494 0
      vertex 7.29584 -1.55078 8.36531
    endloop
  endfacet
  facet normal 0.83688 -0.271919 0.475069
    outer loop
      vertex 6.89044 -2.79579 8.36685
      vertex 11.7378 -2.49494 0
      vertex 7.24444 -1.94114 8.23241
    endloop
  endfacet
  facet normal 0.836881 -0.271919 0.475069
    outer loop
      vertex 11.7378 -2.49494 0
      vertex 6.89044 -2.79579 8.36685
      vertex 10.9625 -4.88084 0
    endloop
  endfacet
  facet normal 0.875128 -0.0919802 0.475069
    outer loop
      vertex 7.32832 -1.30403 8.35325
      vertex 7.29584 -1.55078 8.36531
      vertex 11.7378 -2.49494 0
    endloop
  endfacet
  facet normal -0.357907 0.803873 0.475069
    outer loop
      vertex -3.7082 11.4127 0
      vertex -3.52023 6.59036 8.30153
      vertex -2.3049 7.09377 8.36531
    endloop
  endfacet
  facet normal -0.357907 0.803873 0.475069
    outer loop
      vertex -3.52023 6.59036 8.30153
      vertex -3.7082 11.4127 0
      vertex -6 10.3923 0
    endloop
  endfacet
  facet normal -0.182952 0.860719 0.475069
    outer loop
      vertex -2.07694 7.18819 8.28203
      vertex -3.7082 11.4127 0
      vertex -2.3049 7.09377 8.36531
    endloop
  endfacet
  facet normal -0.653929 0.5888 0.475069
    outer loop
      vertex -9.7082 7.05342 0
      vertex -4.99093 5.54299 8.36531
      vertex -8.02957 8.91774 0
    endloop
  endfacet
  facet normal -0.653928 0.588801 0.475069
    outer loop
      vertex -9.7082 7.05342 0
      vertex -5.3033 5.3033 8.23241
      vertex -4.99093 5.54299 8.36531
    endloop
  endfacet
  facet normal -0.653929 0.588801 0.475069
    outer loop
      vertex -5.3033 5.3033 8.23241
      vertex -9.7082 7.05342 0
      vertex -5.86645 4.5694 8.36685
    endloop
  endfacet
  facet normal -0.65393 0.588799 0.475069
    outer loop
      vertex -5.86645 4.5694 8.36685
      vertex -9.7082 7.05342 0
      vertex -6.01778 4.37217 8.40297
    endloop
  endfacet
  facet normal -0.836881 -0.271918 0.475069
    outer loop
      vertex -11.7378 -2.49494 0
      vertex -7.24444 -1.94114 8.23241
      vertex -7.29584 -1.55078 8.36531
    endloop
  endfacet
  facet normal -0.836881 -0.271919 0.475069
    outer loop
      vertex -11.7378 -2.49494 0
      vertex -6.89044 -2.79579 8.36685
      vertex -7.24444 -1.94114 8.23241
    endloop
  endfacet
  facet normal -0.836881 -0.271919 0.475069
    outer loop
      vertex -6.89044 -2.79579 8.36685
      vertex -11.7378 -2.49494 0
      vertex -10.9625 -4.88084 0
    endloop
  endfacet
  facet normal -0.762058 -0.439974 0.475069
    outer loop
      vertex -6.7953 -3.02546 8.40298
      vertex -10.9625 -4.88084 0
      vertex -6.70044 -3.25448 8.34304
    endloop
  endfacet
  facet normal -0.762057 -0.439974 0.475069
    outer loop
      vertex -10.9625 -4.88084 0
      vertex -6.49519 -3.75 8.21337
      vertex -6.70044 -3.25448 8.34304
    endloop
  endfacet
  facet normal -0.762058 -0.439974 0.475069
    outer loop
      vertex -10.9625 -4.88084 0
      vertex -6.01778 -4.37217 8.40297
      vertex -6.49519 -3.75 8.21337
    endloop
  endfacet
  facet normal -0.762058 -0.439974 0.475069
    outer loop
      vertex -6.01778 -4.37217 8.40297
      vertex -10.9625 -4.88084 0
      vertex -9.7082 -7.05342 0
    endloop
  endfacet
  facet normal -0.836881 0.271919 0.475069
    outer loop
      vertex -11.7378 2.49494 0
      vertex -6.89044 2.79579 8.36685
      vertex -10.9625 4.88084 0
    endloop
  endfacet
  facet normal -0.836881 0.271919 0.475069
    outer loop
      vertex -11.7378 2.49494 0
      vertex -7.24444 1.94114 8.23241
      vertex -6.89044 2.79579 8.36685
    endloop
  endfacet
  facet normal -0.836881 0.271918 0.475069
    outer loop
      vertex -7.24444 1.94114 8.23241
      vertex -11.7378 2.49494 0
      vertex -7.29584 1.55078 8.36531
    endloop
  endfacet
  facet normal -0.875128 -0.0919802 0.475069
    outer loop
      vertex -7.32832 -1.30403 8.35325
      vertex -11.7378 -2.49494 0
      vertex -7.29584 -1.55078 8.36531
    endloop
  endfacet
  facet normal -0.357907 -0.803873 0.475069
    outer loop
      vertex -2.53483 -6.99853 8.35325
      vertex -3.7082 -11.4127 0
      vertex -2.3049 -7.09377 8.36531
    endloop
  endfacet
  facet normal -0.653929 -0.588801 0.475069
    outer loop
      vertex -9.7082 -7.05342 0
      vertex -5.3033 -5.3033 8.23241
      vertex -5.86645 -4.5694 8.36685
    endloop
  endfacet
  facet normal -0.653929 -0.5888 0.475069
    outer loop
      vertex -9.7082 -7.05342 0
      vertex -4.99093 -5.54299 8.36531
      vertex -5.3033 -5.3033 8.23241
    endloop
  endfacet
  facet normal -0.653929 -0.5888 0.475069
    outer loop
      vertex -4.99093 -5.54299 8.36531
      vertex -9.7082 -7.05342 0
      vertex -8.02957 -8.91774 0
    endloop
  endfacet
  facet normal 0.182952 -0.860719 0.475069
    outer loop
      vertex 3.7082 -11.4127 0
      vertex 1.94114 -7.24444 8.23241
      vertex 1.25434 -11.9343 0
    endloop
  endfacet
  facet normal 0.182951 -0.860719 0.475069
    outer loop
      vertex 1.94114 -7.24444 8.23241
      vertex 3.7082 -11.4127 0
      vertex 2.07694 -7.18819 8.28203
    endloop
  endfacet
  facet normal 0.182952 -0.860719 0.475069
    outer loop
      vertex 0.777523 -7.39764 8.40297
      vertex 1.25434 -11.9343 0
      vertex 1.94114 -7.24444 8.23241
    endloop
  endfacet
  facet normal 3.38659e-07 -0.879948 0.475069
    outer loop
      vertex -0.777523 -7.39764 8.40297
      vertex -1.25434 -11.9343 0
      vertex 0 -7.5 8.21337
    endloop
  endfacet
  facet normal 0 -0.879948 0.475069
    outer loop
      vertex 1.25434 -11.9343 0
      vertex 0 -7.5 8.21337
      vertex -1.25434 -11.9343 0
    endloop
  endfacet
  facet normal -3.38659e-07 -0.879948 0.475069
    outer loop
      vertex 0 -7.5 8.21337
      vertex 1.25434 -11.9343 0
      vertex 0.777523 -7.39764 8.40297
    endloop
  endfacet
  facet normal 0.182952 -0.860719 0.475069
    outer loop
      vertex 2.3049 -7.09377 8.36531
      vertex 2.07694 -7.18819 8.28203
      vertex 3.7082 -11.4127 0
    endloop
  endfacet
  facet normal 0.357907 -0.803873 0.475069
    outer loop
      vertex 2.53483 -6.99853 8.35325
      vertex 2.3049 -7.09377 8.36531
      vertex 3.7082 -11.4127 0
    endloop
  endfacet
  facet normal -0.51722 -0.711893 0.475069
    outer loop
      vertex -4.99093 -5.54299 8.36531
      vertex -8.02957 -8.91774 0
      vertex -4.79349 -5.69449 8.35325
    endloop
  endfacet
  facet normal -0.357907 -0.803873 0.475069
    outer loop
      vertex -3.7082 -11.4127 0
      vertex -3.75 -6.49519 8.28947
      vertex -6 -10.3923 0
    endloop
  endfacet
  facet normal -0.357907 -0.803873 0.475069
    outer loop
      vertex -3.75 -6.49519 8.28947
      vertex -3.7082 -11.4127 0
      vertex -2.53483 -6.99853 8.35325
    endloop
  endfacet
  facet normal 0.357907 0.803873 0.475069
    outer loop
      vertex 3.7082 11.4127 0
      vertex 2.3049 7.09377 8.36531
      vertex 2.53483 6.99853 8.35325
    endloop
  endfacet
  facet normal 0.182952 0.860719 0.475069
    outer loop
      vertex 3.7082 11.4127 0
      vertex 2.07694 7.18819 8.28203
      vertex 2.3049 7.09377 8.36531
    endloop
  endfacet
  facet normal 0.875128 0.0919802 0.475069
    outer loop
      vertex 11.7378 2.49494 0
      vertex 7.29584 1.55078 8.36531
      vertex 7.32832 1.30403 8.35325
    endloop
  endfacet
  facet normal 0.762058 -0.439973 0.47507
    outer loop
      vertex 6.7953 -3.02546 8.40298
      vertex 6.70044 -3.25448 8.34304
      vertex 10.9625 -4.88084 0
    endloop
  endfacet
  facet normal -0.357908 0.803873 0.475069
    outer loop
      vertex -3.52023 6.59036 8.30153
      vertex -6 10.3923 0
      vertex -3.75 6.49519 8.28947
    endloop
  endfacet
  facet normal -0.83688 -0.271921 0.47507
    outer loop
      vertex -6.89044 -2.79579 8.36685
      vertex -10.9625 -4.88084 0
      vertex -6.7953 -3.02546 8.40298
    endloop
  endfacet
  facet normal -0.875128 0.0919802 0.475069
    outer loop
      vertex -7.29584 1.55078 8.36531
      vertex -11.7378 2.49494 0
      vertex -7.32832 1.30403 8.35325
    endloop
  endfacet
  facet normal -0.875128 0.0919797 0.475069
    outer loop
      vertex -12 0 0
      vertex -7.32832 1.30403 8.35325
      vertex -11.7378 2.49494 0
    endloop
  endfacet
  facet normal -0.875128 0.0919798 0.475069
    outer loop
      vertex -7.32832 1.30403 8.35325
      vertex -12 0 0
      vertex -7.5 0 8.28947
    endloop
  endfacet
  facet normal -0.83688 0.271921 0.47507
    outer loop
      vertex -6.7953 3.02546 8.40298
      vertex -10.9625 4.88084 0
      vertex -6.89044 2.79579 8.36685
    endloop
  endfacet
  facet normal -0.182952 -0.860719 0.475069
    outer loop
      vertex -2.3049 -7.09377 8.36531
      vertex -3.7082 -11.4127 0
      vertex -2.07694 -7.18819 8.28203
    endloop
  endfacet
  facet normal 0.762058 0.439974 0.475069
    outer loop
      vertex 10.9625 4.88084 0
      vertex 6.70044 3.25448 8.34304
      vertex 6.7953 3.02546 8.40298
    endloop
  endfacet
  facet normal 0.875128 -0.091982 -0.47507
    outer loop
      vertex 11.7378 -2.49494 35
      vertex 7.29584 -1.55078 26.6347
      vertex 7.32832 -1.30403 26.6468
    endloop
  endfacet
  facet normal -0.875128 0.0919769 -0.47507
    outer loop
      vertex -7.5 0 26.7105
      vertex -12 0 35
      vertex -7.46754 0.246569 26.6985
    endloop
  endfacet
  facet normal -0.875128 0.0919801 -0.475069
    outer loop
      vertex -12 0 35
      vertex -7.29584 1.55078 26.6347
      vertex -7.46754 0.246569 26.6985
    endloop
  endfacet
  facet normal -0.875128 0.0919797 -0.475069
    outer loop
      vertex -7.29584 1.55078 26.6347
      vertex -12 0 35
      vertex -11.7378 2.49494 35
    endloop
  endfacet
  facet normal 0 -0.879948 -0.475069
    outer loop
      vertex -1.25434 -11.9343 35
      vertex 0 -7.5 26.7866
      vertex 1.25434 -11.9343 35
    endloop
  endfacet
  facet normal -2.23118e-07 -0.879948 -0.475069
    outer loop
      vertex 0 -7.5 26.7866
      vertex -1.25434 -11.9343 35
      vertex -0.777523 -7.39764 26.597
    endloop
  endfacet
  facet normal 2.23118e-07 -0.879948 -0.475069
    outer loop
      vertex 1.25434 -11.9343 35
      vertex 0 -7.5 26.7866
      vertex 0.777523 -7.39764 26.597
    endloop
  endfacet
  facet normal -0.836881 0.271919 -0.475069
    outer loop
      vertex -6.89044 2.79579 26.6332
      vertex -10.9625 4.88084 35
      vertex -6.7953 3.02546 26.597
    endloop
  endfacet
  facet normal -0.653927 -0.588802 -0.475069
    outer loop
      vertex -5.86645 -4.5694 26.6332
      vertex -9.7082 -7.05342 35
      vertex -6.01778 -4.37217 26.597
    endloop
  endfacet
  facet normal 0.836881 -0.271919 -0.475069
    outer loop
      vertex 10.9625 -4.88084 35
      vertex 6.7953 -3.02546 26.597
      vertex 6.89044 -2.79579 26.6332
    endloop
  endfacet
  facet normal -0.517221 0.711893 -0.475069
    outer loop
      vertex -4.99093 5.54299 26.6347
      vertex -6 10.3923 35
      vertex -3.9473 6.34379 26.6985
    endloop
  endfacet
  facet normal -0.517221 0.711893 -0.475069
    outer loop
      vertex -6 10.3923 35
      vertex -4.99093 5.54299 26.6347
      vertex -8.02957 8.91774 35
    endloop
  endfacet
  facet normal -0.357907 0.803873 -0.475069
    outer loop
      vertex -3.7082 11.4127 35
      vertex -3.52023 6.59036 26.6985
      vertex -6 10.3923 35
    endloop
  endfacet
  facet normal -0.357907 0.803873 -0.475069
    outer loop
      vertex -3.52023 6.59036 26.6985
      vertex -3.7082 11.4127 35
      vertex -2.3049 7.09377 26.6347
    endloop
  endfacet
  facet normal 0.653927 0.588802 -0.475069
    outer loop
      vertex 6.01778 4.37217 26.597
      vertex 5.86645 4.5694 26.6332
      vertex 9.7082 7.05342 35
    endloop
  endfacet
  facet normal 0.517221 -0.711893 -0.475069
    outer loop
      vertex 4.79349 -5.69449 26.6468
      vertex 6 -10.3923 35
      vertex 3.75 -6.49519 26.7105
    endloop
  endfacet
  facet normal 0.517221 -0.711893 -0.475069
    outer loop
      vertex 6 -10.3923 35
      vertex 4.79349 -5.69449 26.6468
      vertex 8.02957 -8.91774 35
    endloop
  endfacet
  facet normal 0.357907 -0.803873 -0.475069
    outer loop
      vertex 3.7082 -11.4127 35
      vertex 3.75 -6.49519 26.7105
      vertex 6 -10.3923 35
    endloop
  endfacet
  facet normal 0.357907 -0.803873 -0.475069
    outer loop
      vertex 3.75 -6.49519 26.7105
      vertex 3.7082 -11.4127 35
      vertex 2.53483 -6.99853 26.6468
    endloop
  endfacet
  facet normal -0.18295 -0.86072 -0.475069
    outer loop
      vertex -2.07694 -7.18819 26.718
      vertex -3.7082 -11.4127 35
      vertex -2.3049 -7.09377 26.6347
    endloop
  endfacet
  facet normal -0.762057 -0.439974 -0.475069
    outer loop
      vertex -6.49519 -3.75 26.7866
      vertex -10.9625 -4.88084 35
      vertex -6.70044 -3.25448 26.657
    endloop
  endfacet
  facet normal -0.762058 -0.439973 -0.47507
    outer loop
      vertex -6.01778 -4.37217 26.597
      vertex -10.9625 -4.88084 35
      vertex -6.49519 -3.75 26.7866
    endloop
  endfacet
  facet normal -0.762058 -0.439974 -0.475069
    outer loop
      vertex -10.9625 -4.88084 35
      vertex -6.01778 -4.37217 26.597
      vertex -9.7082 -7.05342 35
    endloop
  endfacet
  facet normal -0.836881 -0.271918 -0.475069
    outer loop
      vertex -7.24444 -1.94114 26.7676
      vertex -11.7378 -2.49494 35
      vertex -7.29584 -1.55078 26.6347
    endloop
  endfacet
  facet normal -0.83688 -0.271919 -0.475069
    outer loop
      vertex -6.89044 -2.79579 26.6332
      vertex -11.7378 -2.49494 35
      vertex -7.24444 -1.94114 26.7676
    endloop
  endfacet
  facet normal -0.836881 -0.271919 -0.475069
    outer loop
      vertex -11.7378 -2.49494 35
      vertex -6.89044 -2.79579 26.6332
      vertex -10.9625 -4.88084 35
    endloop
  endfacet
  facet normal -0.762058 0.439974 -0.475069
    outer loop
      vertex -6.01778 4.37217 26.597
      vertex -10.9625 4.88084 35
      vertex -9.7082 7.05342 35
    endloop
  endfacet
  facet normal -0.762058 0.439973 -0.47507
    outer loop
      vertex -6.49519 3.75 26.7866
      vertex -10.9625 4.88084 35
      vertex -6.01778 4.37217 26.597
    endloop
  endfacet
  facet normal -0.762057 0.439974 -0.475069
    outer loop
      vertex -10.9625 4.88084 35
      vertex -6.49519 3.75 26.7866
      vertex -6.70044 3.25448 26.657
    endloop
  endfacet
  facet normal -0.836881 0.271919 -0.475069
    outer loop
      vertex -6.89044 2.79579 26.6332
      vertex -11.7378 2.49494 35
      vertex -10.9625 4.88084 35
    endloop
  endfacet
  facet normal -0.83688 0.271919 -0.475069
    outer loop
      vertex -7.24444 1.94114 26.7676
      vertex -11.7378 2.49494 35
      vertex -6.89044 2.79579 26.6332
    endloop
  endfacet
  facet normal -0.836881 0.271918 -0.475069
    outer loop
      vertex -11.7378 2.49494 35
      vertex -7.24444 1.94114 26.7676
      vertex -7.29584 1.55078 26.6347
    endloop
  endfacet
  facet normal -0.653927 0.588802 -0.475069
    outer loop
      vertex -6.01778 4.37217 26.597
      vertex -9.7082 7.05342 35
      vertex -5.86645 4.5694 26.6332
    endloop
  endfacet
  facet normal -0.653929 0.5888 -0.475069
    outer loop
      vertex -4.99093 5.54299 26.6347
      vertex -9.7082 7.05342 35
      vertex -8.02957 8.91774 35
    endloop
  endfacet
  facet normal -0.653929 0.5888 -0.47507
    outer loop
      vertex -5.3033 5.3033 26.7676
      vertex -9.7082 7.05342 35
      vertex -4.99093 5.54299 26.6347
    endloop
  endfacet
  facet normal -0.653929 0.588801 -0.475069
    outer loop
      vertex -9.7082 7.05342 35
      vertex -5.3033 5.3033 26.7676
      vertex -5.86645 4.5694 26.6332
    endloop
  endfacet
  facet normal -0.18295 0.86072 -0.475069
    outer loop
      vertex -2.3049 7.09377 26.6347
      vertex -3.7082 11.4127 35
      vertex -2.07694 7.18819 26.718
    endloop
  endfacet
  facet normal -0.357907 0.803873 -0.475069
    outer loop
      vertex -6 10.3923 35
      vertex -3.52023 6.59036 26.6985
      vertex -3.75 6.49519 26.7105
    endloop
  endfacet
  facet normal 0.762058 0.439974 -0.475069
    outer loop
      vertex 10.9625 4.88084 35
      vertex 6.01778 4.37217 26.597
      vertex 9.7082 7.05342 35
    endloop
  endfacet
  facet normal 0.762058 0.439973 -0.47507
    outer loop
      vertex 10.9625 4.88084 35
      vertex 6.49519 3.75 26.7866
      vertex 6.01778 4.37217 26.597
    endloop
  endfacet
  facet normal 0.762057 0.439974 -0.475069
    outer loop
      vertex 6.49519 3.75 26.7866
      vertex 10.9625 4.88084 35
      vertex 6.70044 3.25448 26.657
    endloop
  endfacet
  facet normal 0.357907 0.803873 -0.475069
    outer loop
      vertex 3.75 6.49519 26.7105
      vertex 3.7082 11.4127 35
      vertex 6 10.3923 35
    endloop
  endfacet
  facet normal 0.357907 0.803873 -0.475069
    outer loop
      vertex 3.7082 11.4127 35
      vertex 3.75 6.49519 26.7105
      vertex 2.53483 6.99853 26.6468
    endloop
  endfacet
  facet normal 0.762057 -0.439975 -0.475069
    outer loop
      vertex 10.9625 -4.88084 35
      vertex 6.49519 -3.75 26.7866
      vertex 6.70044 -3.25448 26.657
    endloop
  endfacet
  facet normal 0.762057 -0.439975 -0.475069
    outer loop
      vertex 10.9625 -4.88084 35
      vertex 6.01778 -4.37217 26.597
      vertex 6.49519 -3.75 26.7866
    endloop
  endfacet
  facet normal 0.762058 -0.439974 -0.475069
    outer loop
      vertex 6.01778 -4.37217 26.597
      vertex 10.9625 -4.88084 35
      vertex 9.7082 -7.05342 35
    endloop
  endfacet
  facet normal 0.836881 -0.271918 -0.475069
    outer loop
      vertex 11.7378 -2.49494 35
      vertex 7.24444 -1.94114 26.7676
      vertex 7.29584 -1.55078 26.6347
    endloop
  endfacet
  facet normal 0.83688 -0.271919 -0.475069
    outer loop
      vertex 11.7378 -2.49494 35
      vertex 6.89044 -2.79579 26.6332
      vertex 7.24444 -1.94114 26.7676
    endloop
  endfacet
  facet normal 0.836881 -0.271919 -0.475069
    outer loop
      vertex 6.89044 -2.79579 26.6332
      vertex 11.7378 -2.49494 35
      vertex 10.9625 -4.88084 35
    endloop
  endfacet
  facet normal 0.653929 -0.588801 -0.475069
    outer loop
      vertex 9.7082 -7.05342 35
      vertex 5.3033 -5.3033 26.7676
      vertex 5.86645 -4.5694 26.6332
    endloop
  endfacet
  facet normal 0.65393 -0.588799 -0.47507
    outer loop
      vertex 9.7082 -7.05342 35
      vertex 4.99093 -5.54299 26.6347
      vertex 5.3033 -5.3033 26.7676
    endloop
  endfacet
  facet normal 0.653929 -0.5888 -0.475069
    outer loop
      vertex 4.99093 -5.54299 26.6347
      vertex 9.7082 -7.05342 35
      vertex 8.02957 -8.91774 35
    endloop
  endfacet
  facet normal 0.517222 -0.711892 -0.475069
    outer loop
      vertex 8.02957 -8.91774 35
      vertex 4.79349 -5.69449 26.6468
      vertex 4.99093 -5.54299 26.6347
    endloop
  endfacet
  facet normal 0.357906 -0.803873 -0.475069
    outer loop
      vertex 3.7082 -11.4127 35
      vertex 2.3049 -7.09377 26.6347
      vertex 2.53483 -6.99853 26.6468
    endloop
  endfacet
  facet normal 0.18295 -0.86072 -0.475069
    outer loop
      vertex 3.7082 -11.4127 35
      vertex 2.07694 -7.18819 26.718
      vertex 2.3049 -7.09377 26.6347
    endloop
  endfacet
  facet normal -0.357907 -0.803873 -0.475069
    outer loop
      vertex -3.52023 -6.59036 26.6985
      vertex -3.7082 -11.4127 35
      vertex -6 -10.3923 35
    endloop
  endfacet
  facet normal -0.357907 -0.803873 -0.475069
    outer loop
      vertex -3.7082 -11.4127 35
      vertex -3.52023 -6.59036 26.6985
      vertex -2.3049 -7.09377 26.6347
    endloop
  endfacet
  facet normal -0.182952 -0.860719 -0.475069
    outer loop
      vertex -3.7082 -11.4127 35
      vertex -1.94114 -7.24444 26.7676
      vertex -1.25434 -11.9343 35
    endloop
  endfacet
  facet normal -0.182957 -0.860718 -0.47507
    outer loop
      vertex -1.94114 -7.24444 26.7676
      vertex -3.7082 -11.4127 35
      vertex -2.07694 -7.18819 26.718
    endloop
  endfacet
  facet normal -0.182951 -0.860719 -0.475069
    outer loop
      vertex -1.25434 -11.9343 35
      vertex -1.94114 -7.24444 26.7676
      vertex -0.777523 -7.39764 26.597
    endloop
  endfacet
  facet normal -0.517221 -0.711893 -0.475069
    outer loop
      vertex -6 -10.3923 35
      vertex -3.9473 -6.34379 26.6985
      vertex -3.75 -6.49519 26.7105
    endloop
  endfacet
  facet normal -0.875128 -0.0919801 -0.475069
    outer loop
      vertex -7.29584 -1.55078 26.6347
      vertex -12 0 35
      vertex -7.46754 -0.246569 26.6985
    endloop
  endfacet
  facet normal -0.875128 -0.0919797 -0.475069
    outer loop
      vertex -12 0 35
      vertex -7.29584 -1.55078 26.6347
      vertex -11.7378 -2.49494 35
    endloop
  endfacet
  facet normal -0.875128 -0.0919769 -0.47507
    outer loop
      vertex -7.46754 -0.246569 26.6985
      vertex -12 0 35
      vertex -7.5 0 26.7105
    endloop
  endfacet
  facet normal -0.762058 0.439974 -0.475069
    outer loop
      vertex -6.7953 3.02546 26.597
      vertex -10.9625 4.88084 35
      vertex -6.70044 3.25448 26.657
    endloop
  endfacet
  facet normal -0.182952 0.860719 -0.475069
    outer loop
      vertex -1.25434 11.9343 35
      vertex -1.94114 7.24444 26.7676
      vertex -3.7082 11.4127 35
    endloop
  endfacet
  facet normal -0.182951 0.860719 -0.475069
    outer loop
      vertex -1.94114 7.24444 26.7676
      vertex -1.25434 11.9343 35
      vertex -0.777523 7.39764 26.597
    endloop
  endfacet
  facet normal -0.182957 0.860718 -0.47507
    outer loop
      vertex -3.7082 11.4127 35
      vertex -1.94114 7.24444 26.7676
      vertex -2.07694 7.18819 26.718
    endloop
  endfacet
  facet normal 0 0.879948 -0.475069
    outer loop
      vertex 1.25434 11.9343 35
      vertex 0 7.5 26.7866
      vertex -1.25434 11.9343 35
    endloop
  endfacet
  facet normal 2.23118e-07 0.879948 -0.475069
    outer loop
      vertex 0 7.5 26.7866
      vertex 1.25434 11.9343 35
      vertex 0.777523 7.39764 26.597
    endloop
  endfacet
  facet normal -2.23118e-07 0.879948 -0.475069
    outer loop
      vertex -1.25434 11.9343 35
      vertex 0 7.5 26.7866
      vertex -0.777523 7.39764 26.597
    endloop
  endfacet
  facet normal -0.517221 0.711893 -0.475069
    outer loop
      vertex -3.9473 6.34379 26.6985
      vertex -6 10.3923 35
      vertex -3.75 6.49519 26.7105
    endloop
  endfacet
  facet normal 0.875128 0.0919794 -0.475069
    outer loop
      vertex 12 0 35
      vertex 7.32832 1.30403 26.6468
      vertex 11.7378 2.49494 35
    endloop
  endfacet
  facet normal 0.875128 0.0919791 -0.475069
    outer loop
      vertex 7.32832 1.30403 26.6468
      vertex 12 0 35
      vertex 7.5 0 26.7105
    endloop
  endfacet
  facet normal 0.875128 -0.0919791 -0.475069
    outer loop
      vertex 12 0 35
      vertex 7.32832 -1.30403 26.6468
      vertex 7.5 0 26.7105
    endloop
  endfacet
  facet normal 0.875128 -0.0919794 -0.475069
    outer loop
      vertex 7.32832 -1.30403 26.6468
      vertex 12 0 35
      vertex 11.7378 -2.49494 35
    endloop
  endfacet
  facet normal 0.357906 0.803873 -0.475069
    outer loop
      vertex 2.53483 6.99853 26.6468
      vertex 2.3049 7.09377 26.6347
      vertex 3.7082 11.4127 35
    endloop
  endfacet
  facet normal 0.653929 0.5888 -0.475069
    outer loop
      vertex 9.7082 7.05342 35
      vertex 4.99093 5.54299 26.6347
      vertex 8.02957 8.91774 35
    endloop
  endfacet
  facet normal 0.65393 0.588799 -0.47507
    outer loop
      vertex 9.7082 7.05342 35
      vertex 5.3033 5.3033 26.7676
      vertex 4.99093 5.54299 26.6347
    endloop
  endfacet
  facet normal 0.653929 0.588801 -0.475069
    outer loop
      vertex 5.3033 5.3033 26.7676
      vertex 9.7082 7.05342 35
      vertex 5.86645 4.5694 26.6332
    endloop
  endfacet
  facet normal 0.18295 0.86072 -0.475069
    outer loop
      vertex 2.3049 7.09377 26.6347
      vertex 2.07694 7.18819 26.718
      vertex 3.7082 11.4127 35
    endloop
  endfacet
  facet normal 0.182952 0.860719 -0.475069
    outer loop
      vertex 3.7082 11.4127 35
      vertex 1.94114 7.24444 26.7676
      vertex 1.25434 11.9343 35
    endloop
  endfacet
  facet normal 0.182957 0.860718 -0.47507
    outer loop
      vertex 1.94114 7.24444 26.7676
      vertex 3.7082 11.4127 35
      vertex 2.07694 7.18819 26.718
    endloop
  endfacet
  facet normal 0.182951 0.860719 -0.475069
    outer loop
      vertex 1.25434 11.9343 35
      vertex 1.94114 7.24444 26.7676
      vertex 0.777523 7.39764 26.597
    endloop
  endfacet
  facet normal 0.762058 -0.439973 -0.47507
    outer loop
      vertex 10.9625 -4.88084 35
      vertex 6.70044 -3.25448 26.657
      vertex 6.7953 -3.02546 26.597
    endloop
  endfacet
  facet normal 0.65393 -0.588799 -0.47507
    outer loop
      vertex 9.7082 -7.05342 35
      vertex 5.86645 -4.5694 26.6332
      vertex 6.01778 -4.37217 26.597
    endloop
  endfacet
  facet normal 0.182952 -0.860719 -0.475069
    outer loop
      vertex 1.25434 -11.9343 35
      vertex 1.94114 -7.24444 26.7676
      vertex 3.7082 -11.4127 35
    endloop
  endfacet
  facet normal 0.182951 -0.860719 -0.475069
    outer loop
      vertex 1.94114 -7.24444 26.7676
      vertex 1.25434 -11.9343 35
      vertex 0.777523 -7.39764 26.597
    endloop
  endfacet
  facet normal 0.182957 -0.860718 -0.47507
    outer loop
      vertex 3.7082 -11.4127 35
      vertex 1.94114 -7.24444 26.7676
      vertex 2.07694 -7.18819 26.718
    endloop
  endfacet
  facet normal -0.357908 -0.803873 -0.475069
    outer loop
      vertex -3.52023 -6.59036 26.6985
      vertex -6 -10.3923 35
      vertex -3.75 -6.49519 26.7105
    endloop
  endfacet
  facet normal -0.517221 -0.711893 -0.475069
    outer loop
      vertex -4.99093 -5.54299 26.6347
      vertex -6 -10.3923 35
      vertex -8.02957 -8.91774 35
    endloop
  endfacet
  facet normal -0.517221 -0.711893 -0.475069
    outer loop
      vertex -6 -10.3923 35
      vertex -4.99093 -5.54299 26.6347
      vertex -3.9473 -6.34379 26.6985
    endloop
  endfacet
  facet normal -0.653929 -0.588801 -0.475069
    outer loop
      vertex -5.3033 -5.3033 26.7676
      vertex -9.7082 -7.05342 35
      vertex -5.86645 -4.5694 26.6332
    endloop
  endfacet
  facet normal -0.65393 -0.588799 -0.47507
    outer loop
      vertex -4.99093 -5.54299 26.6347
      vertex -9.7082 -7.05342 35
      vertex -5.3033 -5.3033 26.7676
    endloop
  endfacet
  facet normal -0.653929 -0.5888 -0.475069
    outer loop
      vertex -9.7082 -7.05342 35
      vertex -4.99093 -5.54299 26.6347
      vertex -8.02957 -8.91774 35
    endloop
  endfacet
  facet normal -0.762058 -0.439974 -0.475069
    outer loop
      vertex -6.70044 -3.25448 26.657
      vertex -10.9625 -4.88084 35
      vertex -6.7953 -3.02546 26.597
    endloop
  endfacet
  facet normal -0.836881 -0.271919 -0.475069
    outer loop
      vertex -6.7953 -3.02546 26.597
      vertex -10.9625 -4.88084 35
      vertex -6.89044 -2.79579 26.6332
    endloop
  endfacet
  facet normal 0.836881 0.271919 -0.475069
    outer loop
      vertex 11.7378 2.49494 35
      vertex 6.89044 2.79579 26.6332
      vertex 10.9625 4.88084 35
    endloop
  endfacet
  facet normal 0.83688 0.271919 -0.475069
    outer loop
      vertex 11.7378 2.49494 35
      vertex 7.24444 1.94114 26.7676
      vertex 6.89044 2.79579 26.6332
    endloop
  endfacet
  facet normal 0.836881 0.271918 -0.475069
    outer loop
      vertex 7.24444 1.94114 26.7676
      vertex 11.7378 2.49494 35
      vertex 7.29584 1.55078 26.6347
    endloop
  endfacet
  facet normal 0.875128 0.091982 -0.47507
    outer loop
      vertex 7.32832 1.30403 26.6468
      vertex 7.29584 1.55078 26.6347
      vertex 11.7378 2.49494 35
    endloop
  endfacet
  facet normal 0.517221 0.711893 -0.475069
    outer loop
      vertex 4.79349 5.69449 26.6468
      vertex 6 10.3923 35
      vertex 8.02957 8.91774 35
    endloop
  endfacet
  facet normal 0.517221 0.711893 -0.475069
    outer loop
      vertex 6 10.3923 35
      vertex 4.79349 5.69449 26.6468
      vertex 3.75 6.49519 26.7105
    endloop
  endfacet
  facet normal 0.517222 0.711892 -0.475069
    outer loop
      vertex 4.99093 5.54299 26.6347
      vertex 4.79349 5.69449 26.6468
      vertex 8.02957 8.91774 35
    endloop
  endfacet
  facet normal 0.762058 0.439974 -0.475069
    outer loop
      vertex 6.7953 3.02546 26.597
      vertex 6.70044 3.25448 26.657
      vertex 10.9625 4.88084 35
    endloop
  endfacet
  facet normal 0.836881 0.271919 -0.475069
    outer loop
      vertex 6.89044 2.79579 26.6332
      vertex 6.7953 3.02546 26.597
      vertex 10.9625 4.88084 35
    endloop
  endfacet
  facet normal -0.984808 -0.173648 0
    outer loop
      vertex 5.5 0 0
      vertex 5.16831 1.88111 35
      vertex 5.16831 1.88111 0
    endloop
  endfacet
  facet normal -0.984808 -0.173648 0
    outer loop
      vertex 5.16831 1.88111 35
      vertex 5.5 0 0
      vertex 5.5 0 35
    endloop
  endfacet
  facet normal 0.984808 -0.173648 0
    outer loop
      vertex -5.5 0 35
      vertex -5.16831 1.88111 0
      vertex -5.16831 1.88111 35
    endloop
  endfacet
  facet normal 0.984808 -0.173648 0
    outer loop
      vertex -5.16831 1.88111 0
      vertex -5.5 0 35
      vertex -5.5 0 0
    endloop
  endfacet
  facet normal 0.984808 0.173648 0
    outer loop
      vertex -5.16831 -1.88111 35
      vertex -5.5 0 0
      vertex -5.5 0 35
    endloop
  endfacet
  facet normal 0.984808 0.173648 0
    outer loop
      vertex -5.5 0 0
      vertex -5.16831 -1.88111 35
      vertex -5.16831 -1.88111 0
    endloop
  endfacet
  facet normal 0 -1 0
    outer loop
      vertex -0.955065 5.41644 0
      vertex 0.955065 5.41644 35
      vertex -0.955065 5.41644 35
    endloop
  endfacet
  facet normal 0 -1 -0
    outer loop
      vertex 0.955065 5.41644 35
      vertex -0.955065 5.41644 0
      vertex 0.955065 5.41644 0
    endloop
  endfacet
  facet normal -0.642788 -0.766044 0
    outer loop
      vertex 2.75 4.76314 0
      vertex 4.21324 3.53533 35
      vertex 2.75 4.76314 35
    endloop
  endfacet
  facet normal -0.642788 -0.766044 -0
    outer loop
      vertex 4.21324 3.53533 35
      vertex 2.75 4.76314 0
      vertex 4.21324 3.53533 0
    endloop
  endfacet
  facet normal -0.866025 -0.5 0
    outer loop
      vertex 5.16831 1.88111 0
      vertex 4.21324 3.53533 35
      vertex 4.21324 3.53533 0
    endloop
  endfacet
  facet normal -0.866025 -0.5 0
    outer loop
      vertex 4.21324 3.53533 35
      vertex 5.16831 1.88111 0
      vertex 5.16831 1.88111 35
    endloop
  endfacet
  facet normal 0.34202 -0.939693 0
    outer loop
      vertex -2.75 4.76314 0
      vertex -0.955065 5.41644 35
      vertex -2.75 4.76314 35
    endloop
  endfacet
  facet normal 0.34202 -0.939693 0
    outer loop
      vertex -0.955065 5.41644 35
      vertex -2.75 4.76314 0
      vertex -0.955065 5.41644 0
    endloop
  endfacet
  facet normal 0.866025 -0.5 0
    outer loop
      vertex -5.16831 1.88111 35
      vertex -4.21324 3.53533 0
      vertex -4.21324 3.53533 35
    endloop
  endfacet
  facet normal 0.866025 -0.5 0
    outer loop
      vertex -4.21324 3.53533 0
      vertex -5.16831 1.88111 35
      vertex -5.16831 1.88111 0
    endloop
  endfacet
  facet normal 0.642787 -0.766045 0
    outer loop
      vertex -4.21324 3.53533 0
      vertex -2.75 4.76314 35
      vertex -4.21324 3.53533 35
    endloop
  endfacet
  facet normal 0.642787 -0.766045 0
    outer loop
      vertex -2.75 4.76314 35
      vertex -4.21324 3.53533 0
      vertex -2.75 4.76314 0
    endloop
  endfacet
  facet normal -0.34202 -0.939693 0
    outer loop
      vertex 0.955065 5.41644 0
      vertex 2.75 4.76314 35
      vertex 0.955065 5.41644 35
    endloop
  endfacet
  facet normal -0.34202 -0.939693 -0
    outer loop
      vertex 2.75 4.76314 35
      vertex 0.955065 5.41644 0
      vertex 2.75 4.76314 0
    endloop
  endfacet
  facet normal -0.34202 0.939693 0
    outer loop
      vertex 2.75 -4.76314 0
      vertex 0.955065 -5.41644 35
      vertex 2.75 -4.76314 35
    endloop
  endfacet
  facet normal -0.34202 0.939693 0
    outer loop
      vertex 0.955065 -5.41644 35
      vertex 2.75 -4.76314 0
      vertex 0.955065 -5.41644 0
    endloop
  endfacet
  facet normal -0.984808 0.173648 0
    outer loop
      vertex 5.16831 -1.88111 0
      vertex 5.5 0 35
      vertex 5.5 0 0
    endloop
  endfacet
  facet normal -0.984808 0.173648 0
    outer loop
      vertex 5.5 0 35
      vertex 5.16831 -1.88111 0
      vertex 5.16831 -1.88111 35
    endloop
  endfacet
  facet normal 0.866025 0.5 0
    outer loop
      vertex -4.21324 -3.53533 35
      vertex -5.16831 -1.88111 0
      vertex -5.16831 -1.88111 35
    endloop
  endfacet
  facet normal 0.866025 0.5 0
    outer loop
      vertex -5.16831 -1.88111 0
      vertex -4.21324 -3.53533 35
      vertex -4.21324 -3.53533 0
    endloop
  endfacet
  facet normal -0.642788 0.766044 0
    outer loop
      vertex 4.21324 -3.53533 0
      vertex 2.75 -4.76314 35
      vertex 4.21324 -3.53533 35
    endloop
  endfacet
  facet normal -0.642788 0.766044 0
    outer loop
      vertex 2.75 -4.76314 35
      vertex 4.21324 -3.53533 0
      vertex 2.75 -4.76314 0
    endloop
  endfacet
  facet normal -0.866025 0.5 0
    outer loop
      vertex 4.21324 -3.53533 0
      vertex 5.16831 -1.88111 35
      vertex 5.16831 -1.88111 0
    endloop
  endfacet
  facet normal -0.866025 0.5 0
    outer loop
      vertex 5.16831 -1.88111 35
      vertex 4.21324 -3.53533 0
      vertex 4.21324 -3.53533 35
    endloop
  endfacet
  facet normal 0 1 -0
    outer loop
      vertex 0.955065 -5.41644 0
      vertex -0.955065 -5.41644 35
      vertex 0.955065 -5.41644 35
    endloop
  endfacet
  facet normal 0 1 0
    outer loop
      vertex -0.955065 -5.41644 35
      vertex 0.955065 -5.41644 0
      vertex -0.955065 -5.41644 0
    endloop
  endfacet
  facet normal 0.34202 0.939693 -0
    outer loop
      vertex -0.955065 -5.41644 0
      vertex -2.75 -4.76314 35
      vertex -0.955065 -5.41644 35
    endloop
  endfacet
  facet normal 0.34202 0.939693 0
    outer loop
      vertex -2.75 -4.76314 35
      vertex -0.955065 -5.41644 0
      vertex -2.75 -4.76314 0
    endloop
  endfacet
  facet normal 0.642788 0.766044 -0
    outer loop
      vertex -2.75 -4.76314 0
      vertex -4.21324 -3.53533 35
      vertex -2.75 -4.76314 35
    endloop
  endfacet
  facet normal 0.642788 0.766044 0
    outer loop
      vertex -4.21324 -3.53533 35
      vertex -2.75 -4.76314 0
      vertex -4.21324 -3.53533 0
    endloop
  endfacet
endsolid OpenSCAD_Model
